<?xml version="1.0" encoding="utf-8"?>
<!-- Generator: Adobe Illustrator 26.2.1, SVG Export Plug-In . SVG Version: 6.00 Build 0)  -->
<svg version="1.1" id="Layer_1" xmlns="http://www.w3.org/2000/svg" xmlns:xlink="http://www.w3.org/1999/xlink" x="0px" y="0px"
	 viewBox="0 0 160 72.1" style="enable-background:new 0 0 160 72.1;" xml:space="preserve">
<style type="text/css">
	.st0{fill:#000;}
</style>
<g>
	<path class="st0" d="M40.6,70c-0.3,0-0.7,0-1,0c-1.7,0-3.5,0-5.2,0c-0.8,0-1.7,0.1-2.5,0.1c-0.9,0-1.8,0-2.7,0
		c-0.6,0-1.2,0.1-1.8,0.1c-0.6,0-1.2,0.1-1.8,0.1c-0.5,0-1.1,0-1.6,0c-0.7,0-1.4,0-2.1,0.1c-0.3,0.1-0.7,0.3-1,0.5
		c-0.4,0.3-0.6,0.7-1.1,0.8c-0.4,0.1-0.7,0-0.9-0.2c-0.6-0.6-1.3-0.6-2.1-0.5c-0.7,0.1-1.5,0.2-2.2,0.3c-1,0.1-1.9,0.4-2.9,0.4
		c-0.9,0.1-1.7,0-2.6,0c-0.7,0-1.4-0.1-2-0.2c-2-0.2-4-0.4-5.9-1.2c-0.2-0.1-0.5-0.1-0.7-0.3c-0.2-0.2-0.2-0.6-0.2-0.9
		c0-0.2,0.1-0.4,0.2-0.6c0.7-0.8,0.7-1.8,0.5-2.7c-0.2-0.9,0-1.6,0.2-2.4c0-0.1,0.1-0.3,0.2-0.4c0.1-0.5-0.1-0.7-0.6-0.7
		c-0.3,0-0.5-0.1-0.8-0.1c-0.1,0-0.1-0.1-0.1-0.2c0-0.5-0.1-1,0.5-1.2C0.9,60.7,1,60.4,1,60c0.1-1.1,0.2-2.2,0.4-3.3
		c0,0,0-0.1,0-0.1c0-1,0-2,0.1-3c0.1-1.3,0.2-2.6,0.4-4c0.1-0.7,0.1-1.5,0.2-2.2c0.1-0.9,0.3-1.8,0.4-2.7c0.1-1.1,0.2-2.2,0.3-3.4
		c0-0.2,0-0.3-0.1-0.5c-0.5-0.8-0.1-1.6,0-2.4c0.1-0.7,0.2-1.3,0.3-2c0.2-1.4,0.3-2.7,0.5-4.1c0.1-0.7-0.2-1.3-1-1.8
		c-0.2-0.1-0.4-0.4-0.6-0.5C2,30,2.2,29.8,2.4,29.7c0.7-0.3,1-0.9,0.9-1.8c-0.1-0.6,0-1.2,0.1-1.8c0-0.1,0-0.2,0-0.4
		c0.1-1,0.1-2.1,0.2-3.1c0-0.8,0.1-1.5,0.1-2.3c0-0.8,0.1-1.6,0.2-2.5c0-0.6,0-1.2,0.1-1.8c0.2-1.4,0.4-2.8,0.6-4.1
		C4.9,11,5.1,9.9,5.3,8.9c0.2-1.3,0.4-2.6,0.7-3.9c0.2-1.2,0.4-2.4,0.7-3.5C6.7,0.7,7.7,0,8.4,0C9,0.1,9.5,0.1,10,0.1
		c0.2,0,0.4-0.1,0.7-0.1c1-0.1,2,0.3,3,0.5c0.6,0.1,1.3,0.1,1.9,0c0.8-0.1,1.7-0.3,2.5-0.4c0.7-0.1,1,0.3,1.2,1.1
		c0.1,0.2,0,0.5,0,0.8c0,0.8,0,1.6,0,2.4c0,0.9,0.1,1.8,0.1,2.6c0,0.9,0,1.8,0.1,2.7c0.1,1.1,0,2.2-0.2,3.4
		c-0.1,0.4,0.2,0.5,0.5,0.5c1.2-0.1,2.5-0.3,3.7-0.4c0.5-0.1,0.9,0.1,1.3,0.5c0.8,0.7,1.7,0.6,2.7,0.3c1.7-0.5,3.3-1,5-1.4
		c0.1,0,0.2,0,0.4,0c3.1,0,6.3,0,9.4,0c1.4,0,2.9,0.1,4.3,0.1c0.4,0,0.8,0.1,1.2,0c0.2,0,0.4-0.3,0.5-0.5c0.2-0.7,0.3-1.4,0.4-2
		c0.1-0.3,0.2-0.7,0.6-0.7c0.3,0,0.6,0.5,0.6,0.9c0,0.6-0.1,1.3-0.1,1.9c0,0.8,0.2,0.8,0.7,0.8c1-0.1,2.1-0.1,3.1-0.1
		c0.6,0,1.3,0,1.9-0.2c0.6-0.2,1.3-0.7,1.8-1.1c0.9-0.8,2-1.1,3.2-1.3c0.7-0.1,1.4-0.2,2-0.4c0.8-0.2,1.6-0.1,2.4,0
		c0.7,0.1,1.4,0.2,2.1,0.3c1.1,0.2,2.2,0.4,3.3,0.6c1.4,0.3,2.7,0.5,4.1,0c0.1,0,0.2,0,0.3,0c1,0,1.9,0.1,2.9,0.1
		c1.3,0,2.7-0.1,4-0.2c0.6,0,1.2-0.2,1.8-0.3c0.5-0.1,0.8-0.4,0.8-1c0-0.6,0-1.1,0-1.7c0-0.8,0.3-1.4,0.7-2c0.1-0.2,0.3-0.2,0.4,0
		c0.5,0.5,1,1,1.1,1.7c0,0.1,0.1,0.2,0.2,0.3c0.5,0.6,0.5,1.2,0.3,1.8c-0.1,0.5-0.1,0.6,0.4,0.6c0.7-0.1,1.5-0.2,2.2-0.3
		c0.6-0.1,1.3-0.3,1.9-0.4c1-0.2,2-0.3,2.9-0.5c0.9-0.1,1.8-0.3,2.8-0.4c1.2-0.1,2.4-0.1,3.5-0.2c1-0.1,2.1-0.2,3.1-0.4
		c1.2-0.2,2.4-0.5,3.7-0.7c1-0.2,1.9-0.3,2.9-0.4c1.3-0.1,2.5-0.3,3.8-0.4c0.5,0,0.9-0.1,1.4-0.1c1.1-0.1,2.1-0.1,3.2-0.2
		c0.8-0.1,1.7-0.1,2.5-0.2c1.1-0.1,2.3-0.2,3.4-0.3c0.7-0.1,1.4-0.2,2.1-0.3c0.3,0,0.5-0.2,0.5-0.6c0.1-0.8,0.1-1.6,0.2-2.4
		c0.1-0.4,0.4-0.8,0.6-1.1c0.2-0.2,0.7,0.2,0.8,0.6c0.1,0.3,0.1,0.6,0.1,0.9c0,0.8,0,1.7,0,2.5c0,0.4,0.2,0.5,0.5,0.5
		c1,0,2,0.1,3,0.1c1.2,0,2.5,0,3.7,0c1.8-0.1,3.5-0.3,5.2-0.8c0.8-0.2,1.6-0.3,2.3-0.4c1.2-0.2,2.3-0.3,3.5-0.5
		c0.6-0.1,1.2-0.1,1.8-0.1c0.6,0,1.3-0.1,1.9-0.1c0.9,0,1.8,0,2.7,0.1c1.1,0.2,1.6-0.3,1.9-1.3c0.2-0.8,0.4-1.5,0.7-2.3
		c0.1-0.3,0.6-0.4,0.8-0.1c0.3,0.3,0.3,0.8,0.3,1.2c0,0.6,0,1.3,0.1,1.9c0.1,0.8-0.7,1.6-1.5,1.5c-0.8-0.1-1.7,0-2.5,0.1
		c-0.1,0-0.2,0-0.3,0c-0.9,0-1.8,0-2.7,0c-1.4,0-2.9,0.1-4.3,0.2c-1.2,0.1-2.5,0.3-3.7,0.5c-0.2,0-0.3,0.2-0.5,0.2
		c0.1,0.1,0.1,0.3,0.2,0.3c0.5,0.1,1.1,0.3,1.6,0.4c0.9,0.2,1.9,0.3,2.8,0.5c0.8,0.2,1.6,0.7,2.2,1.3c0.7,0.7,1.3,1.5,2,2.2
		c0.3,0.3,0.6,0.5,1,0.7c0.4,0.2,0.7,0,0.7-0.4c0-1.2,0.2-2.3,0.5-3.5c0.2-0.9,1.6-1.6,2.3-1.5c0.7,0.1,1.4,0,2,0.2
		c0.8,0.2,1.3,0.9,1.4,1.7c0.2,1.4,0.3,2.8,0.5,4.2c0.1,1.2,0.3,2.4,0.4,3.6c0.1,1.3,0.2,2.6,0.3,3.9c0.1,0.9,0.1,1.8,0.1,2.7
		c0,1,0.1,2.1,0.1,3.1c0,0.5-0.1,1-0.1,1.5c0,1,0.1,2.1,0.1,3.1c0,0.9-0.2,1.7-0.2,2.6c0,1.1,0.2,2.2,0.2,3.3c0,1-0.1,2-0.2,3
		c0,0.5,0.1,1,0.1,1.5c0,0.2-0.1,0.4-0.1,0.7c0,0.8,0.1,1.5,0.1,2.3c-0.1,1.5-0.2,3-0.3,4.5c-0.1,1.1-0.3,2.2-0.4,3.4
		c-0.1,0.7-0.2,1.5-0.2,2.2c0,0.6,0.2,1.2,0.2,1.8c0,1.1-0.1,2.1-0.1,3.2c0,1.1,0,2.1,0.1,3.2c0.1,0.8,0.2,1.6,0.4,2.4
		c0.1,0.5-0.2,0.9-0.5,1.1c-1.2,0.8-2.3,1.7-3.7,2c-0.6,0.2-1.2,0.3-1.8,0.3c-1.5,0.1-3,0.1-4.6,0.1c-0.3,0-0.7,0-1,0
		c-1.5,0.1-3,0.1-4.4,0.2c-0.2,0-0.5-0.1-0.7-0.1c-0.8,0-1.6,0.1-2.4,0.1c-0.9,0-1.8,0-2.7,0c-0.6,0-1.2,0.2-1.8,0.2
		c-0.7,0-1.4-0.1-2.1-0.2c-1.3-0.2-2.6-0.4-3.8-0.1c-1.2,0.2-2.4,0.3-3.6,0.6c-1.4,0.3-2.7,0.6-4.1,1c-0.3,0.1-0.7,0.2-1,0.3
		c-0.7,0.2-1.3,0.7-1.8,1.2c-0.4,0.5-1.1,0.6-1.6,0.2c-0.8-0.7-1.5-1.4-2.2-2.1c-0.4-0.3-0.7-0.6-1.3-0.6c-1.1,0-2.2,0.1-3.4,0.1
		c-1,0-2.1,0-3.1,0c-1.3,0.1-2.5,0.2-3.8,0.4c-1.2,0.1-2.3,0.3-3.5,0.5c-1.3,0.2-2.5,0.5-3.8,0.8c-0.5,0.1-1.1,0.2-1.6,0.3
		c-0.7,0-1.4,0-2.2,0c-0.7,0-1.3,0.3-1.6,1c-0.4,0.7-0.9,0.9-1.5,0.2c-0.6-0.7-1.3-0.7-2-0.5c-0.5,0.1-0.9,0.2-1.4,0.2
		c-1,0-2,0-3,0.1c-1.1,0.2-2-0.1-2.8-0.8c-0.3-0.3-0.7-0.4-1.1-0.4c-1.4,0.1-2.9,0.1-4.3,0.2c-0.8,0-1.7,0-2.5,0
		c-0.6,0-1.3,0-1.9,0.1c-0.9,0.1-1.8,0.4-2.7,0.4c-0.6,0.1-1.3-0.1-1.9-0.1c-0.1,0-0.3-0.1-0.4-0.1c-0.9,0-1.7-0.1-2.6-0.1
		c-1.3-0.1-2.6-0.2-3.8-0.2c-0.9,0-1.7,0-2.6,0.1c-1,0.1-2,0.4-3.1,0.5c-0.8,0.1-1.6,0.1-2.5,0.1c-0.5,0-1,0-1.6-0.1
		c-1.4-0.1-2.8-0.2-4.3-0.4c-1.1-0.1-2.3-0.3-3.4-0.5C41.7,70.4,41.1,70.2,40.6,70 M41.9,26c0.2,1.2,0.3,2.4,0.5,3.6
		c0.3,1.8,0.7,3.7,1,5.5c0.2,1.2,0.5,2.3,0.7,3.4c0.2,1.2,0.5,2.5,0.7,3.8c0.2,1,0.3,2.1,0.5,3.1c0.3,1.5,0.6,2.9,0.8,4.3
		c0.2,1.5,0.3,3,0.5,4.4c0.1,0.8,0.1,1.5,0.2,2.3c0,0.2-0.1,0.3-0.1,0.5c0.3,1,0.2,2.1-0.1,3.1c-0.3,1.2-0.6,2.3-0.3,3.5
		c0,0.2-0.2,0.4-0.3,0.6c-0.1-0.1-0.2-0.2-0.2-0.3c-0.1-0.1-0.1-0.3-0.2-0.4c-0.1-0.1-0.2-0.2-0.3-0.3c-0.1,0.1-0.2,0.3-0.2,0.4
		c-0.1,1.3-0.2,2.7-0.3,4c0,0.6-0.1,1.2-0.7,1.6c-0.1,0.1-0.1,0.4-0.2,0.6c0.1,0,0.3,0.1,0.4,0.1c0.5,0,1.1-0.2,1.6-0.2
		c0.9,0,1.8,0.1,2.7,0.2c0.6,0.1,1.3,0.2,1.9,0.4c1.2,0.2,1.6-0.1,1.5-1.4c0-0.8-0.1-1.6-0.1-2.4c0-1,0-2.1,0-3.1
		c0-1.8-0.1-3.5-0.1-5.3c0-0.3,0-0.7,0-1c0-1.2-0.1-2.4-0.1-3.5c0-0.9-0.1-1.8-0.1-2.7c0-1-0.1-2-0.2-3c-0.1-1-0.1-2-0.2-3
		c-0.1-1.2-0.2-2.5-0.3-3.7c-0.1-0.9-0.2-1.8-0.3-2.7c-0.1-1.1-0.3-2.2-0.4-3.3c0-0.4,0-0.9-0.1-1.3c-0.2-1.2-0.2-2.5,0-3.7
		c0.2-1.5,0.6-2.9,0.9-4.4c0.2-1,0.5-1.9,0.9-2.8c0.5-1.1,1.2-2.1,1.9-3c0.6-0.8,1.2-1.6,1.9-2.2c1.2-1.1,2.7-2,4.2-2.6
		c0.9-0.4,1.8-0.7,2.8-0.7c0.9,0,1.8-0.1,2.6-0.2c1.2-0.1,2.3-0.4,3.6-0.2c1,0.2,2.1,0.2,3.1,0.4c1.6,0.3,3.2,0.8,4.6,1.6
		c1.7,0.9,3,2.3,3.5,4.3c0.3,1.3,0.7,2.7,0.9,4.1c0.3,1.7,0.5,3.3,0.7,5c0.1,0.9,0.1,1.8,0.1,2.7c0,1,0.1,2,0.2,3
		c0,0.2-0.1,0.4-0.1,0.6c0.2,1.2,0.2,2.4,0.1,3.6c-0.1,1.3-0.3,2.5-0.3,3.8c0,1.2,0.2,2.3,0.4,3.5c0.1,1.3,0.3,2.6,0.5,3.9
		c0.1,1,0.2,2.1,0.3,3.1c0.1,1.3,0.3,2.6,0.4,3.8c0.1,1.1,0.2,2.2,0.3,3.4c0,0.4,0.1,0.8,0.1,1.2c0.1,0.9,0.2,1.8,0.2,2.8
		c0,1,0,2.1,0,3.1c0,0.6,0,1.1-0.1,1.7c-0.1,0.8,0.3,1.3,0.9,1.2c1-0.1,2.1-0.3,3.1-0.4c0.8-0.1,1.1-0.4,1-1.2c-0.1-1-0.3-2-0.4-2.9
		c-0.1-0.6,0-1.2,0-1.8c0-1.4-0.1-2.7-0.1-4.1c0-1.4,0.3-2.7,0.3-4.1c0-0.7,0-1.3,0-2c0-4.9,0-9.7,0-14.6c0-0.2-0.1-0.4-0.1-0.6
		c0-0.6,0-1.2,0-1.8c-0.1-1.2-0.3-2.4-0.4-3.6c-0.1-1.2,0-2.4,0-3.6c0-0.7-0.1-1.4-0.1-2.1c0.1-1.1,0.3-2.3,0.4-3.4
		c0.1-1,0.4-2,0.8-2.8c0.7-1.3,1.4-2.7,2.2-4c0.4-0.7,1-1.3,1.8-1.7c0.9-0.4,1.8-0.8,2.7-1.2c1.4-0.6,2.8-1.2,4.2-1.7
		c1.6-0.6,3.1-1.3,4.8-0.9c0.8,0.2,1.6,0.5,2.4,0.8c1,0.5,1.7,1.2,2.4,2.1c0.9,1.1,1.9,2.2,2.8,3.3c0.2,0.3,0.6,0.6,0.2,1
		c-0.3,0.3-0.3,0.7-0.2,1.1c0.2,0.8,0.5,1.5,0.7,2.3c0.3,1.4,0.6,2.8,0.8,4.2c0.1,0.7,0.2,1.4,0.3,2.1c0.1,1,0.3,2,0.5,3
		c0.1,0.7,0.1,1.4,0.2,2.1c0.1,1.1,0.3,2.1,0.4,3.2c0.1,0.7,0.1,1.5,0.2,2.2c0.1,0.9,0.3,1.7,0.4,2.6c0.1,0.8,0.1,1.6,0.2,2.3
		c0.3,1.8,0.4,3.5,0.4,5.3c0,0.5,0.1,1.1,0.2,1.6c0.2,1.2,0.4,2.4,0.6,3.5c0.1,0.9,0.3,1.7,0.4,2.6c0.2,1.1,0.3,2.1,0.5,3.2
		c0.1,0.9,0.1,1.9,0.2,2.8c0.2,1.6,0.4,3.1,0.6,4.7c0.1,0.7,0.5,1.1,1.1,1c1.6-0.4,3.2-0.8,4.7-1.2c0.4-0.1,0.8-0.7,0.8-1.1
		c-0.2-0.6-0.4-1.2-0.5-1.8c-0.4-1.6-0.9-3.1-0.8-4.7c0.1-1,0.1-1.9,0.1-2.9c0-0.7,0-1.5,0-2.2c0-0.1,0-0.2,0-0.4
		c0-1,0.1-1.9,0.1-2.9c0-0.9-0.3-1.8-0.3-2.7c0-1.3,0-2.5,0.1-3.8c0-0.2-0.1-0.3-0.1-0.5c0-1.2,0.1-2.4,0.2-3.6c0-0.5,0-1.1,0.1-1.6
		c0.4-1.4,0.9-2.8,0.6-4.4c-0.1-0.8-0.2-1.6-0.3-2.5c-0.1-1.2-0.4-2.3-0.4-3.5c0-1.1,0.1-2.2,0.3-3.3c0.1-1,0.4-1.9,0.6-2.8
		c0.3-1.1,0.7-2.3,1-3.4c0.5-1.9,1.1-3.7,2.4-5.3c1-1.3,2.3-2.2,3.8-2.7c1.7-0.6,3.3-1.1,5.1-1c0.5,0,1,0.1,1.5,0.1
		c0.6,0,1.1,0.1,1.7,0.1c0.8,0.1,1.7,0.3,2.5,0.2c1.1-0.1,2,0.1,3.1,0.3c0.7,0.1,1.4,0.3,2.1,0.4c0.2,0,0.3-0.1,0.5-0.1
		c-0.1-0.2-0.1-0.5-0.2-0.6c-0.7-0.6-1.5-1.1-2.3-1.6C146,8.7,145,8.8,144,8.6c-0.8-0.2-1.6-0.3-2.5-0.4c-0.9-0.1-1.7-0.3-2.6-0.4
		c-0.9,0-1.9,0.1-2.8,0.2c-0.5,0-1,0.1-1.5,0.2c-2,0.5-3.9,1.1-5.7,2.1c-0.9,0.5-1.8,1.1-2.3,2.1c-0.2,0.4-0.4,0.8-0.6,1.2
		c-0.6,0.7-1.2,1.3-1.8,1.9c-0.5,0.5-0.7,1.1-0.8,1.7c-0.1,0.5-0.2,1-0.4,1.4c-0.1,0.3-0.4,0.4-0.7,0.2c-0.4-0.3-0.8-0.7-1.1-1.1
		c-0.8-1.3-1.8-2.4-3.1-3.3c-1.3-0.9-2.6-1.7-4.1-2.2c-1.4-0.5-2.9-0.9-4.3-1.4c-1.7-0.6-3.6-0.8-5.4-0.9c-1.1-0.1-2.1,0-3.2-0.2
		c-0.3-0.1-0.6-0.1-0.9-0.1c-0.5,0-0.9,0.1-1.4,0.2c-1.1,0.1-2.1,0.3-3,0.8c-1.6,0.8-2.9,1.8-4.2,3.1c-1.6,1.6-3.2,3.4-4.8,5.1
		c-0.4,0.5-1,0.6-1.6,0c-0.5-0.5-0.9-1-1.4-1.5c-1-1.1-2.3-1.8-3.7-2.3c-1.9-0.7-3.8-1.3-5.8-1.8c-1.6-0.4-3.3-0.7-5-1
		c-0.6-0.1-1.3-0.2-1.9-0.3c-1.1-0.2-2.1-0.2-3.2-0.1c-1.2,0.1-2.3,0.4-3.4,0.7c-1,0.3-2,0.5-2.9,0.9c-1.8,0.8-3.1,2.1-4.5,3.4
		c-1.1,0.9-2,2.1-2.7,3.4c-0.5,0.9-1.2,1.7-1.8,2.5c-0.2,0.2-0.4,0.4-0.7,0.2c-0.3-0.2-0.4-0.5-0.3-0.9c0.2-0.7,0.3-1.3-0.4-1.8
		c-0.4-0.3-0.7-0.6-1.1-0.9c-1.6-1.2-3.2-2.4-4.7-3.5c-1-0.7-2-1.4-3.1-1.8c-0.2-0.1-0.5,0-0.8,0c0.1,0.2,0.1,0.4,0.2,0.6
		c0.1,0.1,0.2,0.2,0.4,0.2c0.4,0.2,0.8,0.4,1.3,0.6c0.2,0.1,0.3,0.3,0.5,0.4c-0.2,0-0.5,0.1-0.7,0.1c-0.8-0.2-1.6-0.5-2.4-0.8
		c-1.2-0.4-2.3-0.7-3.5-0.4c-1.9,0.6-3.8,0.8-5.8,0.8c-0.2,0-0.4,0-0.5,0.1c-0.8,0.3-1.6,0.6-2.4,0.9c-1.2,0.5-2.3,1.3-3.1,2.3
		c-1,1.2-1.7,2.6-2,4.1c-0.3,1.4-0.6,2.9-0.8,4.4c-0.1,0.7,0,1.4,0,2.1c0,1-0.1,1.9-0.2,2.9c0,0.2,0.1,0.4,0.1,0.5
		c0,0.9-0.1,1.7-0.2,2.5c0,0.9-0.1,1.9-0.1,2.8c0,0.7-0.1,1.4-0.2,2.1c-0.1,1.1-0.3,2.1-0.4,3.2c-0.1,0.7-0.1,1.4-0.2,2.2
		c-0.1,1.4-0.2,2.7-0.3,4.1c0,1,0,1.9,0,2.9c0,1.3,0.1,2.7,0.1,4c0,0.8-0.1,1.6-0.1,2.4c0,0.2,0.1,0.4,0.1,0.6c0,0.5-0.1,1-0.2,1.5
		c0,1,0,1.9,0,2.9c0,0.2,0.1,0.4,0.1,0.6c0,0.7,0.1,1.5,0.1,2.2c0,0.5,0.1,1,0.1,1.5c0,0.3-0.4,0.6-0.6,0.5
		c-1.6-0.6-3.2-0.6-4.8-0.4c-0.4,0.1-0.8,0.3-1.2,0.5c-0.3,0.2-0.4,0.5-0.2,0.8c0.5,0.7,1.2,1,2,0.8c1.3-0.2,2.7-0.4,4-0.7
		c0.8-0.1,1.7-0.9,1.6-1.8c-0.1-1.4-0.2-2.8-0.3-4.1c-0.1-0.7-0.1-1.5-0.2-2.2c0-0.5-0.1-1-0.1-1.5c0.1-0.7,0.2-1.3,0.4-2
		c0.3-1.2,0.5-2.4,0.8-3.6c0.4-1.6,1-3.1,1.5-4.6c0.4-1.2,0.7-2.4,0.6-3.6c0-0.8-0.1-1.7-0.1-2.5c0-1.1,0.1-2.2,0.1-3.3
		c0-0.1,0-0.2,0-0.4c-0.1-0.9-0.2-1.7-0.2-2.6c0-1,0.3-1.9,0.3-2.8c0.1-1.2,0.1-2.5,0.1-3.7c0-0.9-0.2-1.7-0.2-2.6
		c0-0.5,0-0.9,0.1-1.4c0.2-1.1,0.7-2.1,1.2-3.1c0.3-0.8,0.7-1.6,0.2-2.5c-0.1-0.1,0.1-0.4,0.1-0.6c0.2,0.1,0.3,0.1,0.5,0.2
		c0.1,0,0.1,0.1,0.2,0.2c0.3,0.3,0.5,0.3,0.8,0c0.4-0.4,0.8-0.9,1.3-1.3c0.8-0.8,1.7-1.5,2.6-2.2c1.4-1.1,3.1-1.7,4.8-1.7
		c0.9,0,1.7,0.3,2.6,0.4c0.8,0.1,1.6,0.3,2.2,0.8c0.6,0.5,1.3,0.9,1.9,1.4c0.5,0.4,0.9,0.8,1.1,1.5c0.4,1.5,1.2,3,1.1,4.6
		C41.9,25.3,42,25.6,41.9,26 M144.9,39.7c0.7,0,1.4,0,2.2,0c0.9,0,1.8-0.1,2.7-0.1c0.9,0,1.8,0,2.7,0.1c0.5,0,0.8-0.2,0.8-0.7
		c0-0.8-0.1-1.6-0.1-2.4c0-0.5-0.1-0.9-0.1-1.4c-0.1-1.1-0.2-2.1-0.3-3.2c-0.1-0.8-0.1-1.6-0.1-2.4c0-0.3,0-0.6-0.1-0.9
		c-0.1-0.2-0.2-0.4-0.4-0.5c-0.3-0.1-0.6,0-0.9,0c-1.1,0.1-2.3,0.2-3.4,0.3c-0.9,0.1-1.8,0.1-2.7,0.2c-1.4,0.1-2.7,0.2-4.1,0.3
		c-1.2,0.1-2.4,0.1-3.6,0.1c-0.4,0-0.8,0.1-1.2,0.1c-0.9,0-1.7-0.1-2.6-0.1c-1.4,0-2.7,0-4.1,0c-0.2,0-0.4-0.1-0.6-0.1
		c-0.1,0-0.3,0.1-0.3,0.1c-0.1,0.4-0.2,0.9-0.3,1.3c-0.1,0.4-0.2,0.8-0.3,1.2c-0.2,1.4-0.4,2.7-0.6,4.1c-0.2,1.2-0.4,2.4-0.7,3.5
		c-0.1,0.6,0,0.7,0.6,0.7c0.4,0,0.9-0.2,1.3-0.2c1.4,0,2.8,0.1,4.2,0.1c0.4,0,0.8,0,1.3,0c0.8,0,1.6,0.1,2.4,0.1c2.1,0,4.1,0,6.2,0
		C143.5,39.8,144.2,39.8,144.9,39.7 M54.4,36c-0.1,0.9-0.1,1.8-0.2,2.7c0,0.5,0,1.1-0.1,1.6c-0.1,0.7,0.1,1,0.8,1
		c0.1,0,0.2-0.1,0.3-0.1c0.8,0,1.7,0.1,2.5,0.1c1,0,2,0,3,0c0.1,0,0.2,0,0.3,0c0.9-0.1,1.9-0.2,2.8-0.2c1,0,2.1,0.1,3.1,0.2
		c0.3,0,0.6,0,0.8,0.1c1.3,0.6,2.6,0.4,4,0.3c0.6-0.1,1.2-0.1,1.8-0.1c0.4,0,0.7,0.1,1.1,0.2c1.5,0.1,3-0.3,4.5-0.5
		c0.4-0.1,0.8-0.4,0.8-0.8c0-1,0-2-0.1-3c-0.1-0.9-0.3-1.9-0.5-2.8c-0.2-1.1-0.3-2.1-0.5-3.2c-0.1-0.5-0.3-0.9-0.9-0.9
		c-0.4,0-0.9,0-1.3,0c-1.2,0.1-2.5,0.2-3.7,0.3c-0.8,0.1-1.5,0.1-2.3,0.2c-1.3,0.1-2.5,0.2-3.8,0.2c-0.8,0-1.7-0.1-2.5-0.1
		c-1.3,0-2.6-0.1-3.9-0.1c-1,0-2.1,0-3.1,0c-0.1,0-0.3,0-0.4-0.1c-0.6-0.2-1.4,0.2-1.5,0.7c-0.2,0.7-0.3,1.3-0.5,2
		C54.7,34.4,54.6,35.2,54.4,36 M98.3,29.5c-0.9,0.1-1.8,0.2-2.7,0.3c-0.7,0.1-1.5,0.2-2.2,0.3c-0.5,0.1-1,0.3-1.1,0.9
		c-0.2,1-0.4,2-0.5,3c-0.1,0.7-0.1,1.4-0.2,2.1c-0.1,1.3-0.3,2.7-0.4,4c0,0.6,0.3,0.9,0.9,0.9c0.7,0,1.3-0.2,2-0.2
		c0.7,0,1.5,0.1,2.2,0.2c1.2,0.1,2.4,0.1,3.6,0.2c1,0.1,2,0.1,3,0.2c0.9,0.1,1.8,0.1,2.7,0.2c1.2,0.1,2.4,0.2,3.6,0.3
		c1.2,0.1,2.4,0.1,3.6,0.1c0.1,0,0.2-0.1,0.3-0.1c0.8-0.2,0.9-0.9,0.9-1.5c0-1-0.2-2.1-0.3-3.1c-0.1-0.6-0.1-1.2-0.2-1.8
		c-0.1-1-0.3-1.9-0.4-2.9c-0.1-0.7-0.1-1.4-0.2-2c0-0.3-0.3-0.5-0.5-0.7c-0.2-0.1-0.6-0.2-0.8-0.2c-0.9,0-1.8,0.2-2.8,0.2
		c-1,0-2.1,0-3.1-0.1c-0.4,0-0.7,0-1.1-0.1c-1-0.1-2-0.2-3-0.2C100.5,29.4,99.4,29.5,98.3,29.5 M63.4,69.7c1.7-0.1,3.4-0.2,5.1-0.3
		c0.9,0,1.7-0.1,2.6-0.1c1.1,0,2.1-0.1,3.2-0.1c1.2,0,2.3,0,3.5,0c0.3,0,0.6-0.1,0.6-0.4c0-0.9,0.1-1.9-0.1-2.8
		c-0.4-1.7-1.6-3-3-4.1c-1.2-0.9-2.5-1.5-4-1.9c-1.3-0.4-2.7-0.7-4.1-0.7c-0.5,0-1-0.1-1.4-0.1c-1.1-0.1-2.2,0-3.2,0.3
		c-1.3,0.3-2.5,0.8-3.7,1.5c-1,0.6-1.9,1.3-2.6,2.4c-0.8,1.4-1,2.9-0.8,4.4c0.1,0.8,0.5,1.3,1.2,1.4c1.1,0.1,2.1,0.2,3.2,0.3
		c0.7,0.1,1.4,0.1,2.2,0.1C62.4,69.6,62.8,69.7,63.4,69.7 M145.8,26.7c0.9-0.1,1.9-0.1,2.8-0.2c1,0,2-0.1,3-0.1
		c0.3,0,0.7-0.1,0.7-0.6c0-0.9-0.1-1.8-0.5-2.5c-0.5-0.9-1-1.8-1.5-2.6c-1.1-1.7-2.7-2.8-4.7-3.3c-1.7-0.4-3.5-0.5-5.2-0.6
		c-1.2-0.1-2.3,0.2-3.4,0.5c-1.7,0.5-3,1.5-4.3,2.7c-1.1,1.1-1.9,2.4-2.4,3.9c-0.3,0.8-0.6,1.6-0.9,2.4c-0.2,0.4,0.2,1,0.7,1
		c1,0,2,0.1,2.9,0.1c1.3,0,2.6,0,3.9-0.1c1.4-0.1,2.9-0.2,4.3-0.3c1-0.1,2-0.1,3-0.2C144.7,26.8,145.2,26.7,145.8,26.7 M24.5,65
		c0,0.1,0,0.1,0,0.2c-0.3,1-0.5,2-0.8,3c-0.2,0.6,0,0.9,0.6,0.8c0.8,0,1.5-0.1,2.3-0.1c0.8,0,1.6-0.1,2.4-0.1c1,0,1.9-0.1,2.9-0.1
		c0.6,0,1.2,0,1.8,0c1.5,0,3.1-0.1,4.6-0.1c0.9,0,1.8,0,2.7,0c0.4,0,0.7-0.4,0.7-0.8c-0.1-0.9-0.2-1.8-0.3-2.6
		c-0.1-1.2-0.1-2.3-0.4-3.5c-0.3-1.5-1.1-2.5-2.6-2.9c-1.1-0.3-2.2-0.5-3.3-0.9c-1.2-0.4-2.4-0.6-3.6-0.6c-0.4,0-0.8,0.1-1.1,0.1
		c-0.4,0-0.8,0-1.1,0.1c-0.5,0.1-1,0.3-1.4,0.7c-0.3,0.3-0.7,0.5-1,0.8c-0.6,0.5-1.1,1-1.3,1.8C25.2,62.2,24.9,63.6,24.5,65
		 M23.2,33.3c0,0.2,0,0.4,0,0.5c-0.4,1.6-0.3,3.2-0.5,4.7c-0.1,0.7,0,1.4,0,2.1c0,0.3,0.2,0.4,0.4,0.5c0.5,0.1,1,0.2,1.5,0.2
		c1.1,0.1,2.2,0.1,3.3,0.1c0.2,0,0.4-0.1,0.6-0.1c1,0.1,2,0.1,3.1,0.2c0.2,0,0.3-0.1,0.5-0.1c1.1,0.1,2.2,0.1,3.3,0.2
		c1.4,0,2.9,0,4.3,0c0.4,0,0.6-0.2,0.5-0.5c0-1.3-0.1-2.5-0.1-3.8c0-1.1-0.1-2.3-0.1-3.4c0-0.4,0-0.7-0.1-1.1
		c-0.1-0.5-0.5-0.9-1-0.9c-1,0-2,0.1-3.1,0.1c-0.9,0-1.9,0.1-2.8,0.1c-0.9,0-1.7,0.1-2.6,0.1c-1.6,0-3.2,0-4.8-0.1
		C24.3,31.9,23.7,32.2,23.2,33.3 M154.9,63c0,0.5-0.1,1-0.1,1.5c0,0.2,0.2,0.4,0.4,0.5c0.1-0.1,0.2-0.3,0.3-0.4
		c0.1-1.1,0.3-2.2,0.4-3.3c0.1-0.7,0.2-1.3,0.3-1.9c0.1-0.6,0.2-1.2,0.3-1.9c0.1-0.9,0.2-1.8,0.3-2.6c0.1-1.4,0.2-2.7,0.3-4.1
		c0-0.9,0-1.9,0-2.8c0-1.4,0.1-2.8,0.2-4.1c0-0.3,0.1-0.6,0.2-0.9c0.2-0.6,0.6-1.2,0.7-1.8c0.2-0.9,0.2-1.8,0.2-2.8
		c0-1,0-1.9,0.1-2.9c0-0.8,0.1-1.6,0.1-2.3c0-0.9,0-1.8,0-2.6c0-1.7,0-3.4,0-5.1c0-0.8,0-1.6,0-2.4c0-0.5,0.1-1,0.1-1.5
		c0-0.7,0.1-1.5,0-2.2c-0.1-1-0.4-1.9-0.4-2.9c0.1-0.8,0-1.5-0.1-2.3c-0.1-0.7-0.2-1.3-0.2-2c-0.2-1.2-0.3-2.3-0.5-3.4
		c-0.1-0.7-0.2-1.2-1-1.4c-1-0.2-1.8,0-1.9,1.4c-0.1,0.9-0.3,1.7-0.4,2.6c-0.1,0.6-0.3,1.1-0.2,1.7c0,0.8,0.3,1.6,0.3,2.4
		c0.1,0.9,0.2,1.7,0.1,2.6c-0.1,1.1,0,2.2,0.1,3.3c0,1.2,0.1,2.4,0.2,3.6c0,0.4,0.1,0.9,0.1,1.3c0.1,0.6,0.1,1.3,0.2,1.9
		c0.1,0.8,0.1,1.5,0.2,2.3c0.1,1.2,0.4,2.4,0.4,3.6c0.1,1.3,0.1,2.6,0.1,3.9c0,0.4,0,0.7-0.1,1.1c-0.3,1.3-0.4,2.5-0.2,3.8
		c0,0.3,0,0.5,0,0.8c0.1,1,0.2,1.9,0.2,2.9c0,1-0.1,2-0.2,3.1c0,0.2,0.1,0.3,0.1,0.5c0,0.8-0.2,1.5-0.2,2.3
		C155,55.9,155.1,59.4,154.9,63 M106.6,59.6c-0.8-0.1-1.5-0.2-2.3-0.3c-0.6,0-1.1,0-1.7,0.1c-0.8,0-1.6,0-2.3,0.1
		c-1.4,0.3-2.7,0.8-4,1.5c-1,0.5-1.8,1.3-2.2,2.3c-0.4,0.8-0.6,1.6-0.8,2.5c-0.3,1.1-0.4,2.2-0.2,3.4c0,0.1,0.1,0.2,0.2,0.2
		c0.2,0,0.4,0,0.6,0c1.5-0.2,3.1-0.5,4.6-0.7c1-0.2,2-0.3,3-0.5c1.5-0.2,3.1-0.4,4.6-0.7c0.4-0.1,0.8-0.1,1.3-0.1
		c1.4-0.1,2.7-0.3,4.1-0.4c0.6,0,1.2-0.1,1.7-0.1c0.4,0,0.8-0.1,1.2-0.1c0.5,0,0.6-0.2,0.4-0.6c-0.2-0.4-0.4-0.9-0.6-1.4
		c-0.6-1.8-1.7-3.2-3.5-4C109.5,60.2,108.1,60,106.6,59.6 M149.5,66.4c0.4,0,0.5-0.4,0.4-0.7c-0.5-1.2-0.9-2.4-1.6-3.5
		c-0.9-1.5-2.2-2.5-3.9-3c-1.3-0.4-2.5-0.8-3.8-1.2c-1-0.3-2-0.6-3-0.6c-0.8,0-1.5,0.1-2.2,0.3c-1.8,0.5-3.3,1.4-4.3,3
		c-0.9,1.3-1.3,2.8-1.8,4.3c-0.2,0.7-0.2,0.8,0.5,1.1c0.6,0.2,1.2,0.4,1.8,0.4c0.7,0.1,1.5,0.1,2.2,0.2c1.1,0.1,2.3,0.3,3.4,0.4
		c1.2,0,2.3,0,3.5-0.1c1,0,2-0.1,3-0.1c0.6,0,1.1,0,1.7-0.1C146.7,66.7,148.1,66.5,149.5,66.4 M80.8,48.2c-0.1-0.6-0.2-1.3-0.2-1.9
		c0-0.9-0.1-1.8-0.4-2.7c-0.2-0.5-0.3-1-1-1c-0.6,0-1.2,0-1.9,0c-1.3,0.1-2.5,0.3-3.8,0.4c-0.9,0.1-1.7,0.1-2.6,0.1
		c-0.5,0-0.9,0-1.4,0c-0.3,0-0.6,0.1-0.9,0.1c-1-0.1-2-0.3-2.9-0.3c-3.6,0-7.2,0-10.8,0c-0.7,0-0.8-0.1-1,0.8c0,0.1,0,0.2,0,0.4
		c0,0.6,0.1,1.3,0.1,1.9c0,0.7-0.1,1.4-0.2,2.2c-0.1,0.9-0.2,1.8-0.3,2.7c0,0.2,0,0.6,0.2,0.7c0.3,0.2,0.3-0.2,0.5-0.4
		c0.7-1.4,1.9-2.3,3.5-2.8c1.6-0.5,3.2-1,4.8-1.5c1.2-0.4,2.5-0.7,3.8-0.6c1,0,2.1,0.2,3.1,0.4c1.5,0.2,2.8,0.6,4.2,1.3
		c1.2,0.6,2.4,1.2,3.6,1.9c0.7,0.4,1.3,0.9,1.9,1.4c0.6,0.5,0.9,1.3,1.3,2c0.3,0.6,0.7,1.1,1,1.7c0,0.1,0.2,0.1,0.3,0.2
		c0-0.1,0-0.2,0-0.3c-0.1-1.1-0.3-2.2-0.4-3.4C81.1,50.3,81,49.3,80.8,48.2 M75.2,49.9c-1.2-0.5-2.3-1-3.5-1.5
		c-1.3-0.6-2.7-1-4.2-0.9c-0.2,0-0.4,0-0.5,0c-1.2-0.1-2.4-0.1-3.5,0.1c-1.5,0.3-3,0.7-4.5,1.2c-1.4,0.5-2.5,1.2-3.3,2.5
		c-0.9,1.4-1.2,2.9-1.3,4.5c0,0.6,0,1.1,0.1,1.7c0,0.2,0.1,0.3,0.2,0.5c0.1-0.2,0.3-0.3,0.3-0.5c0.2-0.7,0.4-1.4,0.6-2
		c0.2-0.6,0.5-0.9,1.2-0.9c0.2,0,0.3,0,0.5,0c1.4-0.5,2.9-0.9,4.5-1c1.3-0.1,2.6-0.2,3.9-0.4c0.7-0.1,1.3-0.2,1.9-0.3
		c0.4-0.1,0.9-0.2,1.3-0.2c1.2,0.1,2.2,0.7,3.3,1.2c0.7,0.3,1.3,0.7,2,1c1.4,0.6,2.7,1.2,3.6,2.5c0.2,0.2,0.5,0.5,0.8,0.5
		c0.8,0.1,1.2,0.6,1.5,1.3c0.2,0.6,0.4,1.3,0.7,1.9c0,0.1,0.2,0.2,0.3,0.3c0.1-0.1,0.2-0.3,0.2-0.4c0.1-0.8-0.1-1.6-0.4-2.4
		c-0.5-1.4-1.1-2.8-1.6-4.2c-0.4-1.1-1-2.1-1.9-2.9C76.6,50.8,75.9,50.4,75.2,49.9 M146.8,41.1c-1.2,0-2.3,0.1-3.5,0.1
		c-0.7,0-1.3-0.1-2-0.1c-1.1,0-2.2-0.1-3.3-0.1c-1.5,0-3.1,0.1-4.6,0.1c-1.8,0-3.7,0-5.5,0c-0.1,0-0.2,0-0.3,0
		c-0.2-0.1-0.4-0.1-0.6,0.1c-0.1,0.2-0.3,0.4-0.4,0.5c0,0.1,0.1,0.2,0.1,0.3c0,0.2,0.1,0.4,0.1,0.6c-0.1,0.3-0.2,0.6-0.3,0.9
		c-0.1,0.8-0.1,1.6-0.1,2.4c0,1.3-0.1,2.7-0.1,4c0,0.4,0.2,0.6,0.5,0.6c0.2,0,0.5-0.2,0.6-0.4c0.4-0.5,0.7-1.1,1.1-1.7
		c0.7-1,1.6-1.8,2.7-2.3c1.7-0.8,3.5-1.5,5.4-1.9c1.1-0.2,2.3-0.3,3.4-0.1c1.1,0.2,2.3,0.4,3.4,0.7c0.8,0.1,1.6,0.2,2.3,0.5
		c1.4,0.5,2.8,1.1,4.1,1.8c0.7,0.4,1.3,1,1.8,1.6c0.4,0.4,0.6,0.9,1,1.4c0.1,0.2,0.4,0.3,0.6,0.4c0.1-0.2,0.1-0.4,0.2-0.6
		c0-0.2,0-0.4,0-0.7c0-1.4,0-2.8,0-4.1c0-1,0.2-2.1,0.4-3.1c0-0.4-0.3-0.8-0.7-0.8c-1.4-0.1-2.7-0.1-4.1-0.2
		C148.2,41,147.6,41.1,146.8,41.1 M59,25.8c-0.9,1.1-1.8,2.3-2.7,3.4c-0.1,0.2-0.1,0.4-0.2,0.6c0.2,0,0.4,0.1,0.6,0.1
		c3.8-0.1,7.5,0.2,11.3-0.2c0.7-0.1,1.4-0.1,2.2-0.2c1.1-0.1,2.2-0.2,3.3-0.3c0.9,0,1.9,0,2.8,0c0.4,0,0.8,0,1.2,0
		c0.3,0,0.5-0.1,0.3-0.5c-0.1-0.2-0.3-0.5-0.4-0.7c-0.6-1.2-1-2.5-2.1-3.4c-0.5-0.4-1-0.8-1.5-1.2c-1.4-1.1-3.1-1.7-4.9-1.8
		c-0.8,0-1.7,0.1-2.5,0.2c-1.2,0.1-2.4,0.4-3.5,1c-0.8,0.5-1.6,1-2.4,1.6C60,24.9,59.5,25.3,59,25.8 M91,45.7c0,1.2,0,2.3,0,3.5
		c0,0.6,0.2,0.7,0.7,0.5c0.2-0.1,0.3-0.2,0.4-0.3c0.6-0.5,1.1-1,2-1c0.7,0,1.5-0.2,2.2-0.3c1-0.1,2.1-0.3,3.1-0.4
		c0.7-0.1,1.3-0.1,2-0.1c0.4,0,0.9-0.1,1.3-0.1c1.3-0.1,2.7-0.2,4.1-0.1c1.3,0.1,2.5,0.2,3.7,0.6c1.1,0.3,2.1,0.8,2.7,1.8
		c0.3,0.4,0.6,0.8,1.1,0.9c0.3,0.1,0.5,0.1,0.5-0.3c-0.1-0.9-0.1-1.7-0.2-2.6c-0.1-1.1-0.2-2.3-0.3-3.4c0-0.5-0.4-0.9-0.9-1
		c-0.8,0-1.7-0.1-2.5-0.1c-0.5,0-1.1,0-1.6,0c-0.6,0-1.3-0.1-1.9-0.1c-0.4,0-0.9-0.1-1.3-0.1c-0.5,0-1.1,0-1.6-0.1
		c-0.7-0.1-1.5-0.2-2.2-0.4c-0.6-0.1-1.1-0.2-1.7-0.3c-0.8-0.1-1.5-0.2-2.3-0.2c-0.8,0-1.6,0.1-2.4,0.2c-1.2,0.1-2.5,0.1-3.7,0.1
		c-0.6,0-1.1,0.4-1.1,1.1C91,44.2,91,44.9,91,45.7 M151.5,51.2c-0.2-0.3-0.3-0.6-0.5-0.9c-1-1.6-2.4-2.8-4.3-3.5
		c-0.8-0.3-1.7-0.6-2.6-0.7c-1.2-0.2-2.4-0.5-3.6-0.6c-1.1-0.1-2.3,0-3.4,0.1c-1.3,0.1-2.5,0.5-3.8,1c-1.8,0.7-3.2,1.9-4.4,3.4
		c-0.1,0.1-0.1,0.2-0.1,0.2c0.1,0,0.2,0.1,0.2,0.1c0.7,0,1.3,0,2-0.1c1.4-0.1,2.9-0.3,4.3-0.4c0.8,0,1.6,0.1,2.4,0.1
		c0.5,0,1,0,1.6,0c0.4,0,0.7,0.1,1.1,0.1c1.2,0.3,2.3,0.5,3.5,0.9c1.2,0.4,2.4,0.7,3.6,1.2c1,0.5,1.9,1.1,2.8,1.7
		c0.6,0.4,1.1,1,1.2,1.8c0.2,1,0.4,2.1,0.6,3.1c0.1,0.7,0.3,1.4,0.5,2.1c0,0.1,0.1,0.2,0.2,0.2c0.1,0,0.2-0.1,0.2-0.2
		c0.1-0.1,0.1-0.3,0.1-0.4c0-1.2,0-2.5-0.1-3.7c0-0.7,0-1.4-0.2-2C152.4,53.6,151.9,52.4,151.5,51.2 M27.2,30.9
		c0.6,0.1,1.2,0.2,1.8,0.2c1,0,2.1,0,3.1-0.1c0.3,0,0.7-0.1,1-0.1c1-0.1,2-0.2,3-0.3c0.8,0,1.5,0.1,2.3,0.1c0.8,0,1.2-0.4,1-1.2
		c-0.4-1.4-0.8-2.8-1.2-4.2c-0.5-1.5-1.8-2.6-3.5-2.5c-0.6,0-1.2,0.1-1.8,0.1c-0.8,0.1-1.7,0.1-2.5,0.2c-1.9,0.3-3.4,1-4.3,2.9
		c-0.6,1.4-1.4,2.7-2.1,4c-0.3,0.5-0.1,0.7,0.4,0.7c0.5,0,1,0,1.6,0.1C26.5,30.7,26.8,30.8,27.2,30.9 M40.7,45.8
		c0-0.9-0.1-1.7-0.1-2.6c0-0.4-0.2-0.6-0.5-0.6c-0.8-0.1-1.6-0.2-2.4-0.2c-1.1,0-2.3,0-3.4,0c-0.6,0-1.2,0-1.7,0
		c-1.1,0-2.1,0.2-3.2,0.2c-1,0-1.9-0.1-2.9-0.2c-0.8,0-1.6-0.1-2.4-0.1c-0.5,0-1.2,0.3-1.2,0.7c-0.1,0.6-0.1,1.3-0.1,2
		c0,0.2,0,0.4,0,0.6c-0.1,1-0.2,2-0.3,3c0,0.4,0.2,0.4,0.5,0.3c0.5-0.2,0.9-0.3,1.4-0.5c1.5-0.7,3.1-1.1,4.7-1.1
		c0.4,0,0.7,0.1,1.1,0.1c0.6,0,1.3,0,1.9,0c0.9,0.1,1.9,0.2,2.8,0.3c0.3,0,0.6,0,0.9,0.1c1.3,0.3,2.6,0.7,3.8,1.4
		c0.3,0.2,0.7,0.3,1,0.5c0.4,0.1,0.6-0.1,0.5-0.4C40.9,48.2,40.8,47.1,40.7,45.8 M124.5,11.8c0.1-0.1,0.2-0.3,0.3-0.4
		c0.4-0.4,0.8-0.9,1.3-1.2c0.7-0.6,1.5-1.1,2.3-1.6c0.9-0.5,1.8-0.9,2.7-1.3c0.1,0,0.2-0.1,0.3-0.2c-0.1,0-0.2-0.1-0.3-0.1
		c-0.7-0.2-1.4-0.3-2.2-0.2c-0.8,0.1-1.7,0-2.5,0c-1.2,0-2.4,0.1-3.7,0.1c-0.6,0-1.2,0.1-1.7,0.1c-1.3,0.1-2.5,0.2-3.8,0.3
		c-1,0.1-1.9,0.1-2.9,0.2c-0.4,0-0.7,0.1-1.1,0.1c-1.4,0.1-2.8,0.2-4.2,0.4c-0.3,0-0.7,0.2-1,0.3c-0.1,0-0.2,0.2-0.2,0.3
		c0,0.1,0.1,0.2,0.2,0.2c1.1,0.3,2.2,0.6,3.3,1c1.2,0.4,2.5,0.7,3.6,1.3c1.2,0.6,2.4,1.4,3.5,2.1c0.8,0.5,1.6,1,2.4,1.5
		c0.8,0.5,1.5,0.1,1.9-0.5C123.3,13.4,123.9,12.6,124.5,11.8 M38.7,53.1c0.6,0.3,1.1,0.6,1.7,0.8C40.7,54,41,54,41.3,54
		c0.1,0,0.2-0.2,0.2-0.3c-0.3-1.3-1-2.4-2.2-3.2c-1-0.7-2.1-1-3.2-1.4c-1.2-0.3-2.4-0.6-3.6-0.6c-2.3-0.1-4.6,0.1-6.9,0.5
		c-1,0.2-2,0.5-2.7,1.3c-1.2,1.3-1.5,2.8-1.6,4.5c0,0.8,0,1.5,0,2.3c0,0.2,0,0.4,0.1,0.6c0.2-0.1,0.5-0.1,0.7-0.3
		c0.3-0.2,0.5-0.6,0.8-0.8c0.6-0.4,1.1-0.9,1.8-1.2c0.8-0.4,1.7-0.8,2.6-1.2c1.7-0.7,3.3-1.6,5.2-1.8c1.4-0.2,2.7-0.2,4.1,0.1
		C37.2,52.6,38,52.8,38.7,53.1 M4.1,42.7c0,0,0,0.1,0,0.1c0,1.4,0,2.7-0.2,4.1c-0.2,1.2-0.3,2.4-0.5,3.6c0,0.3,0,0.6,0.4,0.7
		c0.6,0,1.2,0.1,1.8,0.1c1.1-0.1,2.1-0.3,3.2-0.6c0.5-0.1,1.2-0.2,1.2-1.1c0-0.6,0.3-1.2,0.3-1.8c0.1-0.8-0.6-1.5-1.4-1.5
		c-0.6,0-1.1,0-1.7,0c-0.8,0-1.5,0.1-2.3,0.1c-0.1,0-0.2-0.1-0.3-0.1c0-0.1,0.1-0.2,0.2-0.3c0.4-0.6,1.1-0.7,1.8-0.7
		c1-0.1,2-0.1,2.9-0.1c0.5,0,0.7-0.3,0.8-0.8c0-0.4,0.1-0.8,0.1-1.2c0-0.9,0.6-1.6,1.2-2.2c0.1-0.1,0.3-0.2,0.5-0.3
		c0,0.2,0,0.4,0.1,0.6c0,0.1,0,0.2,0,0.2c0.1,0.7,0.2,1.4,0,2.1c-0.2,0.7,0.1,1.1,0.8,1.1c0.8,0,1.5-0.1,2.3-0.2
		c0.2,0,0.5-0.3,0.6-0.5c0.1-0.3,0.1-0.6,0.1-0.9c0.1-0.8,0.3-1.7,0.3-2.5c0-0.4-0.3-0.7-0.7-0.7c-0.6,0-1.3,0-1.9,0
		c-0.8,0-1.5,0.1-2.3,0.2c-0.4,0-0.9,0-1.3,0.1c-1.1,0.1-2.1,0.2-3.2,0.4c-0.8,0.1-1.6,0.2-2.4,0.3c-0.3,0-0.5,0.3-0.5,0.6
		C4.1,41.8,4.1,42.2,4.1,42.7 M108.8,15c-0.1-0.2-0.1-0.4-0.3-0.5c-0.6-0.7-1.4-1-2.2-1.2c-0.5-0.1-1.1-0.4-1.6-0.3
		c-2.1,0.5-4.1,1.2-6,2.1c-1,0.5-2.1,1.1-3.2,1.3c-1.3,0.3-1.8,1.3-1.6,2.4c0.2,1.3,0.4,2.6,0.7,3.9c0.1,0.3,0.3,0.5,0.6,0.4
		c0.5-0.2,0.9-0.4,1.4-0.7c0.3-0.2,0.5-0.5,0.5-0.9c-0.1-0.9-0.3-1.8-0.4-2.7c-0.1-0.8-0.3-1.5,0.4-2.2c0.2-0.1,0.2-0.2,0.3,0
		c0.5,0.5,0.7,1.2,0.8,1.9c0,0.9,0.1,1.7,0.1,2.6c0,0.3,0.2,0.5,0.5,0.4c0.6-0.2,1.3-0.4,1.9-0.6c0.5-0.2,0.8-0.6,0.9-1.2
		c0.2-1.1,0.3-2.1,0.6-3.2c0.1-0.4,0.4-0.7,0.6-1c0-0.1,0.3-0.1,0.3-0.1c0.2,0.3,0.4,0.6,0.4,1c-0.1,0.7-0.2,1.3-0.3,2
		c0,0.3,0,0.6-0.1,0.9c-0.1,0.6,0.1,1.1,0.7,1.2c0.4,0.1,0.8,0.1,1.1,0.1c0.4,0,0.6-0.2,0.5-0.6c0-0.4-0.1-0.7-0.1-1.1
		c0-1.3,0-2.6,0.1-3.9c0-0.3,0.1-0.6,0.5-0.5c0.2,0,0.5,0.3,0.5,0.5c0.1,1,0.2,1.9,0.2,2.9c0,0.7,0,1.3,0,2c0,0.9,0.6,1.2,1.5,1.4
		c0.3,0.1,0.5-0.1,0.5-0.4c-0.1-0.4-0.2-0.8-0.2-1.2c0.1-0.7,0.3-1.4,0.4-2.1C108.8,16.9,109.2,16,108.8,15 M109.7,28.5
		c0.2,0,0.3-0.1,0.5-0.1c0.8,0,1.5,0,2.3,0c0,0,0.1-0.2,0.1-0.3c0-0.1-0.1-0.2-0.2-0.2c-1.5-1.2-2.9-2.5-4.4-3.6
		c-1.5-1.1-3-2.1-5-1.8c-0.8,0.1-1.6,0.2-2.3,0.3c-1.4,0.2-2.5,0.9-3.6,1.8c-1.2,1.1-2.4,2.2-3.6,3.3c-0.1,0.1-0.2,0.2-0.2,0.3
		c0,0.3,0,0.5,0,0.8c0,0,0.3,0.1,0.5,0c0.9-0.1,1.8-0.3,2.8-0.5c0.9-0.1,1.8-0.2,2.7-0.4c0.9-0.2,1.9-0.1,2.8-0.1
		c1.4,0.1,2.7,0.3,4.1,0.3C107.2,28.6,108.4,28.5,109.7,28.5 M108.7,51.8c0.3,0.1,0.6,0.2,0.9,0.4c1.6,0.8,2.9,2,3.9,3.5
		c0.3,0.5,0.7,1,1.1,1.4c0.1,0.1,0.4,0.2,0.6,0.1c0.1-0.1,0.3-0.4,0.2-0.5c-0.6-1.4-0.8-2.9-1.6-4.2c-0.8-1.4-2-2.5-3.4-3.3
		c-1.3-0.7-2.8-1.2-4.3-1c-0.7,0.1-1.3,0-2,0.1c-1.3,0.2-2.5,0.4-3.8,0.5c-1.4,0.1-2.7,0.1-4.1,0.1c-0.8,0-1.6,0.2-2.4,0.6
		c-1.8,1-2.5,2.6-2.5,4.6c0,0.3,0.2,0.6,0.3,0.9c0.2-0.2,0.5-0.3,0.7-0.5c0.1,0,0.1-0.1,0.2-0.2c0.8-1.3,2.1-2.1,3.5-2.7
		c1.6-0.6,3.4-0.8,5.1-0.8c1.3,0,2.5,0.1,3.8,0.2C106,51.3,107.3,51.5,108.7,51.8 M55.1,21.2c0,0.2,0,0.4,0,0.6
		c0.1,1.1,0.3,2.3,0.5,3.4c0.1,0.6,0,1.1,0,1.7c0,0.1,0.2,0.2,0.2,0.1c0.1-0.1,0.3-0.2,0.4-0.3c0.4-0.5,0.8-1,1.3-1.5
		c1.1-1.2,2.7-1.9,4-2.7c0.8-0.5,1.6-0.9,2.4-1.4c0.1-0.1,0.3-0.3,0.3-0.5c0-0.9-0.1-1.7-0.2-2.6c0-0.5,0-1,0.3-1.4
		c0.1-0.2,0.3-0.2,0.4-0.1c0.3,0.3,0.5,0.6,0.6,1.1c0,0.8,0.1,1.6,0.2,2.4c0,0.1,0.2,0.3,0.4,0.4c0.8,0,1.6,0,2.4,0
		c0,0,0.1-0.1,0.1-0.2c-0.2-0.3-0.4-0.6-0.5-1c-0.1-0.8-0.2-1.7-0.3-2.6c-0.1-1.1-0.4-1.5-1.5-1.4c-1.4,0.1-2.8,0.3-4.2,0.4
		c-1.2,0.1-2.2,0.4-3.1,1.1c-0.8,0.6-1.6,1.3-2.4,1.9C55.8,19.2,55.3,20,55.1,21.2 M10.7,30.3c-1.6,0-3.2,0-4.9,0c-0.8,0-1,0.2-1,1
		c0,1.3,0,2.6-0.2,4c-0.2,1.2-0.3,2.5-0.4,3.7c0,0.2-0.1,0.7,0.5,0.6c0.5,0,1,0,1.4,0c1.1-0.1,2.2-0.3,3.4-0.4
		c0.8-0.1,1-0.1,1.2-0.9c0.1-0.4,0.3-0.8,0.3-1.3c0-0.2,0-0.4,0-0.6c0-0.8-0.1-1.6,0-2.4c0.1-0.9,0.3-1.8,0.4-2.8
		C11.7,30.5,11.3,30.3,10.7,30.3 M141.1,56c-0.2-0.3-0.4-0.6-0.5-0.9c-0.2-0.7-0.4-1.4-0.2-2.2c0.1-0.3,0.2-0.9-0.2-1
		c-0.8-0.3-1.6-0.7-2.4-0.7c-1.5,0-3,0.2-4.5,0.3c-0.9,0.1-1.7,0.2-2.6,0.4c-0.4,0.1-0.8,0.2-0.9,0.7c-0.1,0.5-0.3,0.9-0.4,1.4
		c-0.2,0.7-0.3,1.5-0.1,2.2c0.1,0.5,0,0.7-0.4,0.8c-0.2,0-0.4,0.1-0.6,0.1c-0.9,0.2-1.1,0.5-1.1,1.4c0,0.2,0,0.4,0,0.6
		c0,1.6,0,3.1,0,4.7c0,0.2,0.2,0.5,0.4,0.5c0.2,0.1,0.5,0,0.5-0.4c0.2-0.6,0.5-1.3,0.6-1.9c0.3-1,0.6-2.1,0-3.2
		c-0.1-0.2,0.2-0.5,0.3-0.8c0.1,0.1,0.3,0.1,0.4,0.2c0.1,0.1,0.2,0.3,0.4,0.5c0.1,0.1,0.4,0.3,0.5,0.3c0.5-0.2,1-0.4,1.5-0.7
		c0.4-0.2,0.3-0.6,0.1-1c-0.2-0.4-0.5-0.8-0.6-1.3c-0.2-0.5-0.2-1.1-0.3-1.6c-0.1-0.6,0.1-1.1,0.3-1.5c0.1-0.1,0.2-0.3,0.3,0
		c0.7,1,0.9,2.1,1.1,3.3c0.1,0.4,0.2,0.7,0.6,0.7c0.4,0.1,0.9-0.3,0.9-0.6c0-0.8-0.1-1.5-0.2-2.2c-0.2-0.7-0.2-1,0.4-1.5
		c0.1-0.1,0.3,0,0.3,0c0.6,0.7,0.9,1.5,0.9,2.5c0,0.8,0.2,1.1,1.1,1.1c0.1,0,0.3,0,0.4,0c0.6,0,0.6-0.1,0.4-0.6
		c-0.4-1-0.5-1.9,0.1-2.8c0.2-0.2,0.2-0.2,0.3,0c0.4,0.7,0.8,1.4,0.8,2.3c0,0.7,0.3,1.1,1,1.3c0.4,0.1,0.7,0.3,1.1,0.4
		c0.2,0.1,0.4,0,0.6,0.1c0-0.2-0.1-0.3-0.1-0.5C141.2,56.1,141.2,56.1,141.1,56 M78.3,20.3c0-0.5,0-1,0-1.5c0-0.7-0.5-1.2-1-1.6
		c-0.3-0.2-0.5-0.1-0.5,0.2c0,0.7,0,1.5,0.1,2.2c0.1,0.7-0.1,1.3-0.2,1.9c0,0.2-0.4,0.4-0.6,0.4c-0.2,0-0.4-0.3-0.5-0.4
		c-0.1-0.2-0.1-0.4-0.1-0.5c-0.1-1.2-0.1-2.5-0.2-3.7c0-0.5-0.3-1-1-1.2c-1.4-0.3-2.8-0.6-4.2-0.9c-0.7-0.2-1.1,0.1-1,0.8
		c0,0.5,0.1,1,0.2,1.5c0.1,0.9,0.2,1.8,0.4,2.7c0,0.3,0.3,0.5,0.6,0.5c0.4,0,0.8,0,1.2,0c0.2,0,0.4-0.2,0.4-0.3
		c0-0.9-0.1-1.8-0.1-2.7c0-0.5,0-0.9,0-1.4c0-0.2,0.2-0.3,0.4-0.1c0.5,0.4,0.7,1,0.8,1.6c0.2,0.8,0.3,1.7,0.1,2.5
		c-0.1,0.7,0,1.4,0.6,1.9c0.5,0.4,1,0.7,1.5,1.1c0.7,0.6,1.4,1.2,2,1.9c0.5,0.5,0.9,1,1.2,1.5c0.8,1.3,1.1,2.9,1.7,4.3
		c0.1,0.1,0.2,0.2,0.3,0.3c0.1-0.1,0.2-0.3,0.2-0.4c0-0.8-0.1-1.6-0.2-2.4c-0.1-1.3-0.2-2.6-0.3-4c-0.1-0.7-0.2-1.5-0.3-2.2
		c0-0.1-0.2-0.3-0.3-0.3c-0.1,0-0.3,0.2-0.3,0.3c-0.1,0.1-0.1,0.3-0.1,0.5c-0.1,0.5-0.3,0.9-0.4,1.4c0,0.2-0.1,0.1-0.2,0.1
		c-0.6-0.2-0.5-0.6-0.5-1C78.2,22.2,78.2,21.3,78.3,20.3 M6.8,29.2c1.2,0,2.4,0,3.6,0c0.8,0,1.2-0.3,1.2-1.2c0-1.4,0-2.9,0-4.3
		c0-0.7,0.1-1.4,0.2-2.2c0.1-0.9-0.4-0.9-1-0.7c-1.4,0.3-2.9,0.8-4.3,1.2c-0.8,0.2-1.4,0.6-1.3,1.7c0,0.7,0,1.4-0.1,2.1
		c0,0.6-0.1,1.1-0.2,1.7c0,0.6-0.1,1.2-0.1,1.8c0,0.3,0,0.5,0.5,0.4C5.7,29.4,6.2,29.3,6.8,29.2 M146.4,53.1c-0.5-0.2-1-0.3-1.5-0.5
		c-0.9-0.2-1.9-0.4-2.8-0.6c-0.2,0-0.5,0-0.6,0.1c-0.1,0.1-0.1,0.4,0,0.6c0.6,0.9,0.7,1.9,0.7,3c0,0.8,0.2,1.5,1.1,1.7
		c0.3,0.1,0.6,0.2,0.9,0.4c1,0.5,2.1,1,3.1,1.6c1.1,0.7,2.1,1.5,2.7,2.8c0.4,0.9,0.7,1.9,1.1,2.9c0.1,0.3,0.3,0.5,0.4,0.8
		c0,0,0.2,0,0.2,0c0.1-0.2,0.2-0.5,0.2-0.7c-0.1-0.5-0.2-1.1-0.3-1.6c-0.3-1.2-0.5-2.5-0.8-3.7c-0.2-0.8-0.4-1.7-0.6-2.5
		c-0.2-0.7-0.4-1.5-0.7-2.1C148.8,54.1,147.6,53.6,146.4,53.1 M91.3,12c0.1-0.1,0.2-0.1,0.3-0.2c0.6-0.4,1.3-0.9,1.9-1.3
		c0,0,0.1-0.1,0.1-0.1c0,0-0.1-0.1-0.1-0.1c-0.5,0-1-0.1-1.5,0c-1.6,0.3-3.1,0.6-4.7,0.9c-0.9,0.2-1.8,0.2-2.6,0.3
		c-1.5,0.1-3.1,0.2-4.6,0.3c-0.9,0.1-1.9,0.1-2.8,0.2c-0.1,0-0.3,0.2-0.4,0.3c0.1,0.1,0.2,0.2,0.4,0.3c1.1,0.4,2.2,0.7,3.3,1.1
		c1.4,0.5,2.7,1.2,3.8,2.2c1.1,0.9,2.3,1,3.1-0.2C88.6,14.4,89.8,13.1,91.3,12 M41.9,41.2c0.1,1.2,0.2,2.3,0.3,3.5
		c0.1,1.3,0.3,2.6,0.5,3.8c0.1,1.3,0.2,2.6,0.4,3.8c0.1,0.8,0.3,1.7,0.7,2.4c0.6,1.5,1.5,2.8,1.5,4.4c0,0.2,0.2,0.3,0.3,0.5
		c0.1-0.2,0.3-0.3,0.3-0.5c0.1-0.9,0.1-1.8,0.1-2.7c0-0.7-0.2-1.5-0.3-2.2c-0.1-0.8-0.3-1.7-0.4-2.5c-0.1-0.9-0.2-1.7-0.4-2.6
		c-0.1-1-0.3-1.9-0.5-2.9c-0.1-0.8-0.3-1.7-0.4-2.5c-0.2-1.3-0.4-2.6-0.6-3.9c-0.1-0.7-0.2-1.4-0.3-2.1c-0.2-1-0.4-2.1-0.6-3.1
		c-0.1-0.5-0.3-1.1-0.5-1.6c0,0-0.2-0.1-0.2-0.1c-0.1,0.3-0.3,0.5-0.3,0.8c0,0.8,0,1.7,0.1,2.5c0,0.9,0.1,1.8,0.2,2.7
		C41.8,39.8,41.8,40.5,41.9,41.2 M109.7,55.5c0,0.6,0.1,1.2,0.1,1.8c0,0.2-0.3,0.5-0.5,0.7c-0.2-0.2-0.5-0.3-0.6-0.5
		c-0.1-0.3-0.1-0.7-0.2-1c-0.2-1-0.4-2-0.7-3.1c-0.2-0.8-0.6-1-1.4-0.9c-0.5,0-0.8,0.3-0.7,0.7c0.1,0.7,0.3,1.4,0.4,2.2
		c0.1,0.6,0.3,1.2,0,1.8c-0.1,0.2-0.3,0.3-0.4,0.4c-0.3-0.3-0.7-0.6-0.7-0.9c-0.3-1-0.5-2-0.6-3.1c-0.1-1-0.2-1.2-1.1-1.3
		c-0.5-0.1-1,0.3-1,0.9c0,0.5,0.1,1,0.2,1.6c0.1,0.8,0.2,1.6,0.3,2.4c0.1,0.3,0.2,0.7,0.6,0.8c0.3,0.1,0.7,0.1,1,0.2
		c1.1,0.2,2.1,0.4,3.1,0.7c0.6,0.1,1.1,0.4,1.7,0.4c1,0,1.9,0.3,2.7,0.9c0.8,0.6,1.6,1.2,2.4,1.8c0.3,0.2,0.5,0.2,0.5-0.2
		c0-0.2,0-0.4-0.1-0.5c-0.4-1-0.9-1.9-1.4-2.9c-0.2-0.3-0.4-0.4-0.7-0.1c-0.2,0.2-0.4,0.4-0.5,0.6c-0.1,0.2-0.2,0.1-0.3,0
		c-0.3-0.4-0.5-0.8-0.4-1.3c0-0.4,0-0.8,0-1.3c-0.1-0.6-0.2-1.3-0.9-1.6c-0.2-0.1-0.5-0.2-0.8-0.3c0,0.2-0.1,0.5-0.1,0.7
		C109.7,55.2,109.7,55.3,109.7,55.5 M16.2,28.9c0.7-0.3,1.2-1,1-1.7c-0.3-0.8-0.2-1.7-0.1-2.5c0.2-1.4,0.3-2.8,0.6-4.3
		c0.1-0.5,0.3-0.9,0.5-1.4c0.1-0.2,0.1-0.4,0.2-0.6c-0.2,0-0.4-0.1-0.5,0c-1.1,0.2-2.2,0.4-3.3,0.8c-0.7,0.2-1.2,0.4-1.2,1.6
		c0,1,0,2.1,0,3.2c0,0.1,0,0.2,0,0.4c0.1,0.6,0.1,1.2,0.2,1.8c0,0.8,0,1.6,0,2.4c0,0.1,0.2,0.4,0.4,0.4
		C14.6,28.9,15.3,28.9,16.2,28.9 M54.3,14.2c0-0.4-0.3-0.5-0.6-0.5c-0.7,0-1.4,0.1-2.1,0.1c-0.1,0-0.3,0-0.4,0
		c-0.9,0.1-1.7,0.2-2.6,0.2c-1.2,0-2.3-0.1-3.5-0.1c-0.7,0-1.3-0.1-2-0.1c-0.5,0-0.9,0-1.4,0.1c-0.3,0-0.3,0.2-0.2,0.5
		c0.2,0.4,0.6,0.6,0.9,0.8c1.3,0.7,2.4,1.6,3.5,2.6c0.6,0.5,1.3,1,1.9,1.5c0.3,0.2,1,0.3,1.3,0c0.4-0.4,0.7-0.8,1.1-1.1
		c0.8-0.8,1.6-1.6,2.4-2.3C53.2,15.2,53.8,14.8,54.3,14.2 M6.7,52.2c-0.8,0.1-1.6,0.3-2.3,0.4c-0.6,0.1-1.3,0.4-1.2,1.3
		c0,0.4,0,0.8,0,1.2c0,1.1,0.1,2.2,0.1,3.3c0,0.4,0.3,0.5,0.6,0.5c0.7,0,1.4-0.1,2.1-0.1c0.6,0,1.3,0,1.9,0c0.4,0,0.7-0.3,0.8-0.7
		c0.2-0.8,0.4-1.6,0.5-2.4c0.1-0.4,0.2-0.9,0.2-1.3c0.1-0.7,0.1-1.4,0.1-2.1c0-0.1-0.3-0.3-0.4-0.3c-0.4,0-0.8,0-1.2,0.1
		C7.6,52,7.2,52.1,6.7,52.2 M150.9,19.8c0.2,0.2,0.4,0.5,0.6,0.7c0.2,0.1,0.4,0.1,0.6,0.1c0.1,0,0.2-0.3,0.1-0.4c-0.1-1-0.2-2-0.4-3
		c-0.3-1.2-0.9-2.3-1.7-3.2c-0.3-0.3-0.4-0.3-0.5,0.1c-0.1,0.4-0.2,0.9-0.4,1.3c-0.1,0.2-0.2,0.3-0.2,0.5c-0.1-0.1-0.1-0.3-0.2-0.4
		c-0.3-0.5-0.4-1-0.1-1.6c0.2-0.3,0.1-0.6-0.1-0.8c-0.2-0.2-0.5-0.3-0.7-0.5c-1.2-0.6-2.4-0.5-3.7-0.6c-0.7-0.1-1.4,0-2.1,0.1
		c-0.6,0-1,0.5-0.8,1c0.1,0.3,0.1,0.5,0.2,0.8c0.3,1.2,1.7,2.2,2.8,1.9c0.9-0.3,1.8-0.1,2.5,0.4c0.8,0.6,1.6,1.1,2.4,1.7
		C149.8,18.5,150.3,19.1,150.9,19.8 M4.4,68.1c1.1-0.1,2.2-0.2,3.3-0.3c0.6-0.1,1-0.5,1-1.1c-0.1-1.6,0.1-3.2,0.4-4.8
		c0.1-0.4-0.1-0.7-0.5-0.8c-0.2,0-0.4,0-0.6,0.1c-1.3,0.1-2.6,0.2-3.8,0.4C3.5,61.6,3,61.8,3,62.8c0.1,1.5,0,3,0,4.4
		C3,68,3.5,68.4,4.4,68.1 M5.5,18.1c0,0.9-0.1,1.7-0.1,2.6c0,0.4,0.2,0.5,0.5,0.4c1.6-0.6,3.2-1.2,4.9-1.7c0.5-0.2,0.6-0.5,0.6-0.9
		c0-1.1-0.1-2.2,0.3-3.3c0.3-0.6-0.1-0.9-0.7-1C10.4,14.2,9.7,14,9,14c-0.8,0-1.5-0.1-2.3-0.1c-0.5,0-0.8,0.3-0.8,0.7
		c-0.1,0.6-0.1,1.1-0.2,1.7C5.6,16.9,5.6,17.4,5.5,18.1 M16.9,33.6c0-0.9,0-1.7,0-2.6c0-0.5-0.3-0.9-0.8-0.9
		c-0.7-0.1-1.4-0.1-2.2-0.1c-0.4,0-0.7,0.3-0.7,0.7c-0.1,0.7-0.1,1.4-0.2,2.2c-0.1,1.3-0.1,2.5-0.2,3.8c0,0.5-0.1,1-0.2,1.5
		c0,0.4,0.1,0.6,0.5,0.5c0.9-0.1,1.8-0.2,2.7-0.3c0.3,0,0.6-0.3,0.7-0.5c0.1-0.3,0.1-0.7,0.1-1C16.7,35.8,16.8,34.8,16.9,33.6
		 M140,12.3c-0.3-0.3-0.7-0.3-1-0.3c-1,0.1-1.9,0.1-2.9,0.2c-0.3,0-0.7-0.1-1,0c-1.2,0.4-2.4,0.8-3.5,1.3c-0.5,0.2-1,0.5-1,1.2
		c0,0.5,0,1,0,1.4c0.1,0.6,0.2,1.2,0.4,1.8c0.1,0.3,0.3,0.7,0.7,0.6c0.7-0.2,1-0.3,0.9-1c-0.1-0.8-0.1-1.7-0.2-2.5
		c0-0.2,0.2-0.3,0.3-0.5c0.2,0.1,0.4,0.2,0.5,0.3c0.3,0.5,0.5,1,0.8,1.5c0.2,0.4,0.4,0.5,0.8,0.3c0.5-0.2,1.1-0.4,1.6-0.7
		c0.1-0.1,0.3-0.2,0.3-0.3c0.1-0.5,0.1-1,0.1-1.5c0-0.4,0-0.8,0-1.2c0-0.1,0.1-0.4,0.3-0.2c0.2,0.2,0.5,0.5,0.6,0.8
		c0.2,1,0.6,1.7,1.6,1.9c0.6,0.1,1.3-0.2,1.3-0.7C140.5,13.8,140.2,13.1,140,12.3 M15.6,51.9c0-0.1,0.1-0.2,0.1-0.3
		c0.1-0.2,0.2-0.5,0.1-0.6c-0.1-0.1-0.4-0.2-0.6-0.2c-0.8,0.1-1.7,0.2-2.5,0.4c-0.4,0.1-0.9,0.3-0.9,0.9c0,0.4,0,0.8-0.1,1.2
		c-0.1,0.9-0.1,1.8-0.2,2.6c0,0.4-0.1,0.8-0.2,1.2c-0.1,0.9,0.2,1.5,0.9,1.7c0.7,0.2,1.5,0.3,2.2,0.4c0.9,0.1,1.2-0.2,1.2-1
		c0-0.6,0-1.1,0-1.7c0-0.7-0.2-1.4-0.2-2C15.5,53.6,15.5,52.8,15.6,51.9 M55,61.7c0,0.1,0,0.2,0,0.3c0,0.1,0,0.3,0.1,0.4
		c0.2-0.1,0.4-0.1,0.5-0.2c0.4-0.3,0.8-0.6,1.2-0.9c1.3-1,2.6-1.9,4.1-2.3c0.9-0.3,1.2-0.8,0.9-1.6c-0.2-0.6-0.1-1.1,0.2-1.6
		c0.1-0.2,0.1-0.3,0.3-0.1c0.5,0.5,0.8,1,0.8,1.8c-0.1,0.6,0.3,0.9,0.8,0.8c0.3,0,0.7-0.1,1-0.2c0.8-0.2,0.8-0.4,0.7-1.1
		c-0.1-0.6-0.1-1.2,0-1.8c0.1-0.5,0-0.6-0.5-0.6c-0.5,0-1,0.1-1.5,0.2c-0.8,0.1-1.6,0.2-2.4,0.3c-0.4,0.1-0.7,0.2-0.6,0.7
		c0.1,0.3,0.1,0.6,0.1,1c0,0.6,0.3,1.2-0.1,1.7c-0.2,0.2-0.4,0.5-0.7,0.1c-0.2-0.2-0.3-0.5-0.3-0.8c-0.1-0.5-0.1-1.1-0.1-1.6
		c0-0.1-0.2-0.4-0.3-0.4c-0.6-0.1-1.5,0.1-1.8,0.9c-0.3,0.7-0.5,1.4-0.8,2.2c-0.1,0.4-0.3,0.6-0.7,0.8c-0.2,0.1-0.4,0.3-0.6,0.4
		C54.9,60.4,55,61,55,61.7 M10.9,64.3c0,0.8,0,1.7,0,2.5c0,0.5,0.4,0.8,0.8,0.6c1-0.4,2-0.5,3-0.5c0.5,0,0.8-0.3,0.8-0.7
		c0-0.7,0-1.4,0-2.2c0-0.3-0.1-0.7-0.1-1c0.1-0.7,0.2-1.5,0.3-2.2c0-0.2-0.1-0.3-0.3-0.2c-0.3,0-0.7,0.1-1,0.1
		c-0.5,0-1.1,0.1-1.6,0.1c-0.3,0-0.6,0.1-0.9,0.1c-0.6,0-1,0.6-1,1.5C11,63,10.9,63.6,10.9,64.3 M23.1,61.8c0,0,0.1,0,0.1-0.1
		c0.1-0.4,0.3-0.9,0.3-1.3c0-0.8,0-1.5,0.3-2.2c0.1-0.3,0.3-0.5,0.5-0.8c0.2,0.2,0.3,0.4,0.5,0.6c0.5,0.7,1.2,0.7,1.6-0.1
		c0.2-0.5,0.3-1.1,0.5-1.6c0.1-0.2,0.1-0.4,0.5-0.2c0.5,0.4,1.2,0.6,1.8,0.1c0.4-0.3,0.7-0.8,1-1.2c0.4-0.6,0.4-0.6,0.8-0.1
		c0.1,0.1,0.2,0.3,0.2,0.4c0.2,0.5,0.6,0.7,1.1,0.7c0.3,0,0.5-0.1,0.5-0.4c0.1-0.5,0.4-1,0.5-1.5c0.1-0.3,0.2-0.3,0.4-0.1
		c0.4,0.4,0.6,0.8,0.7,1.4c0.2,1.1,0.9,1.3,1.9,1c0.2-0.1,0.4-0.2,0.2-0.5c-0.3-0.6-0.3-1.2-0.2-1.8c0-0.4-0.2-0.8-0.6-0.8
		c-0.6-0.1-1.1-0.1-1.7-0.1c-0.6,0-1.1,0.1-1.7,0.1c-0.7,0-1.3,0.2-1.9,0.6c-0.5,0.3-1,0.5-1.5,0.7c-1.7,0.7-3.5,1.3-5.1,2.4
		c-1.2,0.8-2.1,1.7-2,3.3C22,60.9,22.5,61.7,23.1,61.8 M54.9,28.3c0.1-0.5,0.2-1.2-0.2-1.6c-0.5-0.5-0.3-1.1-0.4-1.6
		c-0.1-0.7,0-1.4,0-2.1c0-0.2-0.3-0.4-0.4-0.6c-0.1,0.1-0.3,0.2-0.3,0.4c-0.3,0.9-0.5,1.9-0.7,2.8c-0.1,0.7-0.2,1.4-0.4,2
		c-0.6,2-0.8,4-0.8,6c0,0.6,0,1.3,0.1,1.9c0.1,0.7,0.2,1.3,0.3,2c0,0.1,0.2,0.2,0.3,0.4c0.1-0.1,0.2-0.3,0.2-0.4
		c0.1-0.5,0.1-1,0.2-1.6c0.2-1.2,0.4-2.4,0.6-3.7c0.2-1,0.5-2,1.1-2.9C54.5,29,54.7,28.7,54.9,28.3 M15,7.4c0.9,0.1,1.7,0.1,2.6,0.2
		c0.3,0,0.3-0.3,0.1-0.5c-0.5-0.5-1.2-0.4-1.9-0.5c-0.4-0.1-0.9,0-1.4-0.1c-0.2,0-0.4-0.2-0.6-0.2c0.2-0.2,0.5-0.4,0.7-0.6
		c0.1,0,0.2,0,0.3,0c0.7,0,1.5,0,2.2,0c0.4,0,0.6-0.1,0.5-0.5c0-0.2,0-0.4,0-0.5c0.1-0.9,0.1-1.9,0.2-2.8c0-0.4-0.2-0.5-0.6-0.4
		c-0.2,0.1-0.4,0.2-0.6,0.2c-0.8,0.1-1.6,0.1-2.4,0.2c-0.6,0-1.1,0.6-1.1,1c0,0.2,0.1,0.5,0.1,0.7c0,1.1,0,2.2,0,3.3
		c0,0.4,0.1,0.5,0.5,0.5C14.1,7.4,14.5,7.4,15,7.4 M34,19.4c0.1-0.4,0.2-0.8,0.2-1.2c0-0.2-0.3-0.6-0.4-0.6
		c-0.9-0.1-1.9-0.1-2.7,0.3c-1.4,0.7-2.7,1.6-4,2.4c-0.2,0.1-0.5,0.3-0.6,0.5c-0.2,0.8-0.3,1.6-0.4,2.4c0,0.4,0.3,0.6,0.6,0.4
		c0.5-0.3,0.8-0.8,1.2-1.2c0.1-0.1,0.2-0.4,0.1-0.5c-0.2-0.5,0.1-0.9,0.2-1.3c0.1-0.2,0.1-0.1,0.2,0c0.2,0.4,0.6,0.7,0.5,1.2
		c0,0.2,0.1,0.4,0.4,0.4c0.8,0,1.3-0.4,1.3-1.3c0-0.7,0.2-1.3,0.6-1.9c0-0.1,0.3-0.1,0.3-0.1c0.2,0.4,0.4,0.7,0.5,1.1
		c0.1,0.4,0.1,0.9,0.2,1.3c0.1,0.4,0.5,0.5,0.9,0.4c0.2-0.1,0.4-0.3,0.5-0.5C33.7,20.7,33.8,20.1,34,19.4 M13,10.6
		c-0.2,0.7-0.3,1.4,0,2.1c0.1,0.3,0.4,0.5,0.9,0.5c0.9-0.1,1.7-0.1,2.6-0.1c0.5,0,1.1-0.4,1.1-0.7c0.1-1.1,0.2-2.2,0.3-3.3
		c0-0.4-0.3-0.6-0.8-0.5c-0.8,0.2-1.6,0.3-2.5,0.1c-0.5-0.1-1.2-0.2-1.5,0.4C13,9.5,13,10,13,10.6 M6.3,11.6
		c-0.1,0.4-0.1,0.7-0.2,1.1c0,0.2,0,0.4,0.1,0.7c0.2,0,0.4-0.1,0.7-0.1c0,0,0,0,0,0C7.5,12.7,8.3,12.8,9,13c0.5,0.1,1,0.2,1.5,0.2
		c0.4,0,0.7-0.3,0.7-0.7c0.1-0.8,0.2-1.6,0.3-2.4c0.1-0.6-0.2-1.1-0.6-1.1C9.7,9,8.6,9,7.4,9c-0.3,0-0.8,0.1-0.8,0.6
		C6.5,10.3,6.4,10.9,6.3,11.6 M92.6,26.1c0.1-0.3,0.3-0.5,0.4-0.8c0.3-0.6,0.5-1.3,0.5-2c0-0.8-0.2-1.7-0.3-2.5
		c-0.1-0.5-0.2-0.9-0.4-1.4c0-0.1-0.2-0.1-0.2-0.1c-0.2,0.2-0.5,0.3-0.6,0.5c-1.1,1.8-1.6,3.7-1.8,5.8c-0.1,1.1-0.2,2.1-0.2,3.2
		c0,0.3-0.2,0.8,0.2,0.9c0.4,0.1,0.7-0.4,0.8-0.7C91.6,28,91.9,27,92.6,26.1 M127,30.6c0.1-0.1,0.1-0.2,0.2-0.3
		c0.3-0.3,0.6-0.7,0.3-1.2c-0.1-0.1-0.1-0.4,0-0.6c0.1-0.6,0.3-1.2,0.4-1.8c0.2-1.7,0.8-3.4,1.5-4.9c0.2-0.5,0.4-1,0.4-1.5
		c0-1-0.2-2-0.3-3c0-0.2-0.2-0.3-0.4-0.1c-0.3,0.4-0.7,0.8-0.8,1.4c-0.3,1.4-0.7,2.8-1,4.2c-0.3,1.5-1,2.9-0.8,4.5
		c0.2,1,0.1,2,0.1,3C126.6,30.4,126.8,30.5,127,30.6 M92.7,57.8c0,0.9,0.1,1.9,0.1,2.8c0,0.2-0.1,0.4-0.2,0.6
		c-0.1-0.1-0.3-0.3-0.4-0.4c0,0-0.1-0.1-0.1-0.1c-0.2-0.2-0.4-0.3-0.6-0.5c0,0.3-0.1,0.5-0.1,0.8c0,1.2,0,2.4,0,3.6
		c0,0.2-0.2,0.5,0.2,0.6c0.1,0,0.2-0.4,0.3-0.6c0.2-0.6,0.3-1.3,0.6-1.7c0.7-0.8,1.5-1.6,2.3-2.3c0.3-0.3,0.6-0.8,0.5-1.1
		c-0.5-1-0.5-2-0.5-3.1c0-0.3,0-0.6-0.1-0.9c0-0.1-0.2-0.2-0.3-0.2c-0.5-0.1-1.3,0.5-1.4,1C92.7,56.8,92.7,57.3,92.7,57.8
		 M111.2,18.3c-0.2-0.4-0.3-0.8-0.5-1.1c-0.3-0.4-0.5-0.3-0.6,0.2c-0.1,0.7-0.2,1.4-0.3,2.1c0,0.7,0,1.3,0.1,2
		c0.1,0.7,0.1,1.5,0.5,2.2c0.6,1,1.4,1.7,2.2,2.5c0.1,0.1,0.4,0.1,0.6,0.1c0-0.2,0.1-0.3,0.1-0.5c0-0.1,0-0.2-0.1-0.3
		c-0.5-1.5-1.2-3-1.5-4.6C111.6,20,111.4,19.2,111.2,18.3 M16.4,14.2c-0.8,0-1.6,0-2.3,0c-0.4,0-0.8,0-1.2,0c-0.2,0-0.6,0.1-0.2,0.5
		c0.1,0.1,0.2,0.4,0.2,0.6c0.1,0.5,0.1,1,0.1,1.5c0,0.8,0.5,1.3,1.1,1.2c0.7-0.1,1.4-0.3,2.1-0.5c0.7-0.2,1.3-0.5,1.5-1.2
		c0.1-0.4,0-0.9,0-1.3c0-0.5-0.2-0.7-0.7-0.7C16.8,14.2,16.6,14.2,16.4,14.2 M75.7,57.3c-0.3-0.2-0.5-0.5-0.8-0.7
		c-0.3-0.2-0.7,0-0.7,0.2c0,0.7,0,1.4,0,2.1c0,0.5,0.1,1,0.6,1.3c0.5,0.3,1.1,0.6,1.6,0.9c1,0.6,1.9,1.3,2.5,2.4
		c0.3,0.6,0.6,1,1,1.6c0,0.1,0.1,0.1,0.2,0.1c0-0.1,0.1-0.2,0.1-0.2c-0.1-0.5,0-1-0.2-1.5c-0.4-1-0.8-2-1.3-3
		c-0.2-0.4-0.5-0.8-0.8-1.1c-0.2-0.3-0.4-0.2-0.6,0c-0.1,0.2-0.3,0.3-0.5,0.5c-0.3,0.3-0.6,0.2-0.7-0.2c-0.1-0.4-0.2-0.8-0.3-1.2
		C75.7,58.1,75.8,57.7,75.7,57.3 M19.5,19.6c0.2-0.2,0.4-0.4,0.6-0.6c0.6-0.7,1-1.5,1.7-2c0.7-0.6,1.5-1,2.2-1.5
		c0.5-0.3,0.6-0.9,0.2-1.3c-0.1-0.1-0.2-0.1-0.3-0.2c0,0.1-0.1,0.3-0.1,0.4c0.1,0.3-0.1,0.5-0.4,0.5C23,15,22.6,15,22.2,15.1
		c-0.7,0.2-1.4,0-1.9-0.4c-0.3-0.2-0.5-0.5-0.8-0.7c0,0-0.1,0-0.1,0c-0.1,1-0.2,2-0.3,3c0,0.8,0,1.6,0,2.5c0,0.1,0,0.2,0.1,0.3
		C19.2,19.8,19.3,19.7,19.5,19.6 M7.6,2.5c0,0.5,0,1,0.1,1.5c0,0.1,0.1,0.2,0.2,0.2c0.9,0.2,1.8,0.5,2.7,0.7c0.8,0.2,1.2-0.2,1-0.9
		c-0.2-0.7-0.1-1.3,0.2-1.9c0.2-0.3,0.1-0.5-0.3-0.5c-1-0.1-2-0.3-3.1-0.4c-0.1,0-0.2,0-0.2,0.1C7.7,1.5,7.6,1.9,7.6,2.5 M14.8,46.1
		c-0.6,0-1.1-0.1-1.7-0.1c-0.3,0-0.7,0.3-0.7,0.5c-0.2,0.9-0.3,1.9-0.4,2.9c0,0.4,0.3,0.6,0.7,0.5c0.7-0.2,1.4-0.3,2.1-0.5
		c0.6-0.2,0.9-0.2,0.8-0.9c0-0.5,0-1.1,0-1.6C15.7,46.2,15.7,46.1,14.8,46.1 M97,53.1c-0.2,0-0.5,0-0.7,0c-0.2,0.1-0.5,0.2-0.5,0.3
		c-0.1,0.6-0.3,1.3-0.2,1.9c0.1,0.9,0.4,1.9,0.5,2.8c0.1,0.5,0.2,0.6,0.7,0.6c0.2,0,0.4,0,0.6,0c0.6,0,1-0.5,0.9-1.1
		c-0.2-1.1-0.4-2.2-0.6-3.2C97.6,54,97.7,53.4,97,53.1 M99.5,56.5c0.1,0.4,0.1,0.8,0.3,1.2c0.1,0.2,0.4,0.4,0.6,0.4
		c0.5,0.1,1,0,1.4,0c0.3,0,0.4-0.1,0.2-0.4c-0.7-1.5-1.1-3.1-1.3-4.7c-0.1-0.4-0.2-0.7-0.6-0.7c-0.2,0-0.5,0-0.7,0
		c-0.6,0.1-0.8,0.3-0.7,0.9C98.9,54.3,99.2,55.4,99.5,56.5 M11.4,7.6c0.2-0.5,0.1-1.1-0.3-1.3C10,5.9,8.9,5.4,7.8,5
		C7.4,4.8,7.2,5,7,5.5c-0.2,0.6-0.3,1.3-0.2,2c0,0.2-0.1,0.5,0,0.6C7,8.1,7.2,8.2,7.5,8.2C8.2,8.1,9,8.1,9.7,8
		C10.3,7.9,10.8,7.8,11.4,7.6 M68.7,57.9c0-0.2,0.1-0.4,0.1-0.6c0-0.7,0-1.3,0-2c0-1.1-0.7-1.6-1.8-1.3c-0.4,0.1-0.7,0.4-0.6,0.9
		c0.2,1,0.4,2,0.6,3c0,0.2,0.3,0.4,0.5,0.4C67.9,58.2,68.3,58,68.7,57.9 M72.1,55.2c-0.3-0.2-0.7-0.4-1-0.5c-0.4-0.2-0.6,0-0.6,0.4
		c0,0.4,0,0.9,0,1.3c0,0.6,0,1.1,0,1.7c0,0.4,0.2,0.7,0.5,0.6c0.4-0.1,0.8-0.1,1.2-0.2c0.3-0.1,0.6-0.2,0.5-0.6c0-0.3,0-0.5,0-0.8
		C72.7,56.4,72.7,55.7,72.1,55.2 M23.5,25.6c-0.4,1-0.8,2-1.1,3c-0.2,0.5-0.2,1.1,0.2,1.6c0.1,0.2,0.1,0.2,0.2,0
		c0.2-0.5,0.4-1,0.6-1.5c0.2-0.8,0.3-1.7,0.9-2.4c0.8-0.9,1.1-1.9,1-3.1c0-0.2-0.1-0.4-0.2-0.6c-0.2,0.1-0.4,0.3-0.6,0.4
		c-0.1,0.1-0.1,0.2-0.2,0.4C23.9,24.1,23.7,24.8,23.5,25.6 M21.6,69.1c0.1-0.3,0.3-0.5,0.3-0.8c0.1-0.3,0.1-0.7,0.2-1.1
		c0.1-0.8,0.3-1.5,0.3-2.3c0-0.6-0.1-1.3-0.2-1.9c0-0.2-0.3-0.4-0.5-0.6c-0.1-0.1-0.3-0.1-0.3,0.1c0,0.4-0.2,0.8-0.2,1.2
		c0,1.5,0,3,0.1,4.6C21.3,68.7,21.5,68.9,21.6,69.1 M8.1,70.4c0.3,0,0.4-0.1,0.4-0.4c0-0.9,0-1-1-1c-1.1,0-2.1,0-3.2,0
		c-0.3,0-0.7,0.2-1,0.4c0,0,0,0.3,0.1,0.3c0.1,0.1,0.3,0.1,0.4,0.1c0.5,0.1,1,0.1,1.5,0.2C6.3,70.1,7.1,70.2,8.1,70.4 M39.1,20.3
		c-0.3-0.3-0.5-0.7-0.8-1c-0.1-0.1-0.2-0.2-0.3-0.1c-0.1,0-0.1,0.2-0.2,0.3c-0.1,0.7-0.1,1.5-0.2,2.2c0,0.4,0.1,0.8,0.5,1
		c0.2,0.1,0.6,0.3,0.7,0.3c0.2-0.1,0.5-0.4,0.5-0.7C39.4,21.6,39.5,20.9,39.1,20.3 M35.2,21.4c0.6,0.2,1.3-0.1,1.3-0.8
		c0-0.6-0.1-1.1-0.1-1.7c0-0.8-0.1-0.9-0.7-1.1c-0.2,0-0.4-0.1-0.5,0c-0.1,0.1-0.1,0.4-0.1,0.5c0.2,0.6,0.1,1.1,0,1.6
		C35.1,20.5,35.1,21,35.2,21.4 M38,56.7c0.2,0.4,0.4,0.6,0.8,0.7c0.1,0,0.3-0.1,0.3-0.1c0.1-0.5,0.2-1.1,0.2-1.6
		c0-0.5-0.3-1-0.8-1.3c-0.5-0.2-0.7-0.1-0.7,0.4C37.9,55.4,38,56,38,56.7 M41.4,56.3c-0.2-0.1-0.3-0.2-0.5-0.3
		c-0.1,0-0.2,0.1-0.3,0.2c-0.3,0.9,0.3,1.6,0.7,2.3c0.1,0.1,0.3,0.1,0.5,0.1c0-0.1,0.1-0.2,0.1-0.3C41.7,57.7,41.6,57,41.4,56.3
		 M6,60C5.8,60,5.7,60,5.6,60c-0.8,0-1.5,0-2.3,0.1c-0.1,0-0.2,0.3-0.3,0.5c0,0,0,0.2,0.1,0.2c0.2,0,0.4,0.1,0.7,0.1
		c0.8-0.1,1.5-0.3,2.3-0.5c0.1,0,0.2-0.1,0.2-0.2C6.2,60.1,6.1,60.1,6,60 M40.8,24c-0.1-0.3-0.2-0.5-0.4-0.8
		c-0.1-0.1-0.2-0.3-0.3,0.1c0,0.2-0.1,0.5-0.1,0.7c-0.1,0.4-0.1,0.9-0.1,1.3c0,0.1,0.2,0.3,0.4,0.4c0.1-0.1,0.2-0.2,0.3-0.3
		C40.6,25,40.7,24.5,40.8,24 M19.9,59.9c0-0.3,0.1-0.7,0.1-1c0-0.1-0.1-0.1-0.1-0.2c-0.1,0.1-0.2,0.1-0.2,0.2c0,0.3,0,0.6,0,0.9
		C19.6,59.9,19.8,59.9,19.9,59.9 M40.9,28.9c0,0.3,0.1,0.7,0.1,1c0,0.1,0,0.1,0.1,0.2c0.1-0.1,0.2-0.2,0.2-0.2
		c0-0.4-0.1-0.8-0.2-1.1c0,0-0.1-0.1-0.1-0.1C40.9,28.7,40.9,28.7,40.9,28.9z"/>
	<path class="st0" d="M46.3,68.1c0,0.2,0.1,0.3,0.1,0.4c0,0.1,0,0.2-0.1,0.2c-0.1,0-0.2,0-0.3,0c-0.1-0.1-0.1-0.2,0-0.3
		C46.1,68.2,46.2,68.1,46.3,68.1z"/>
	<path class="st0" d="M23.1,21.5c-0.2,0-0.3,0-0.4,0c0-0.1,0.1-0.3,0.1-0.4c0.1,0.1,0.1,0.2,0.2,0.2C23.1,21.3,23.1,21.4,23.1,21.5z
		"/>
	<path class="st0" d="M60.9,18.2c0.3-0.6,0.3-0.5,0.7-0.1c0.3,0.5,0.5,1,0.5,1.6c0,0.7,0.1,1.3,0.1,2c0,0.2,0,0.4-0.1,0.5
		c-0.1,0.2-0.2,0.3-0.3,0.5c-0.2-0.1-0.4-0.2-0.5-0.4c-0.2-0.4-0.3-0.8-0.4-1.3c-0.1-0.6-0.2-1.1-0.2-1.7
		C60.7,18.9,60.8,18.6,60.9,18.2z"/>
	<path class="st0" d="M58.1,21.6c0-0.4-0.1-0.7-0.1-1c0-0.3,0.2-0.5,0.4-0.7c0,0,0.1,0,0.2,0.1c0.5,0.3,0.4,0.8,0.5,1.2
		c0.1,0.9,0.2,1.8,0.3,2.7c0,0.1,0,0.2,0,0.2c-0.1,0.4-0.3,0.6-0.6,0.3c-0.4-0.3-0.6-0.7-0.6-1.2c0-0.4-0.1-0.9-0.1-1.3
		C58,21.8,58.1,21.7,58.1,21.6z"/>
	<path class="st0" d="M147.5,59.4c-0.7-0.3-0.7-1-0.8-1.6c-0.1-0.4-0.2-0.9-0.2-1.3c0-0.3,0.3-0.5,0.5-0.8c0.1,0,0.1,0.1,0.2,0.1
		c0.6,0.4,0.7,1,0.7,1.6c0,0.4,0,0.9,0,1.3C147.9,58.9,147.7,59.1,147.5,59.4z"/>
	<path class="st0" d="M144.1,54.4c0.1,0,0.3,0.1,0.4,0.2c0.5,0.8,0.8,1.7,0.5,2.7c-0.1,0.4-0.3,0.5-0.6,0.1
		C143.5,56.5,143.5,55.6,144.1,54.4z"/>
	<path class="st0" d="M144.9,14.1c0.3-0.8,0.6-0.8,1.1-0.2c0.4,0.5,0.4,1.6-0.2,2c-0.1,0-0.2,0.1-0.2,0c-0.2-0.6-0.5-1.1-0.7-1.7
		C144.8,14.2,144.9,14.1,144.9,14.1z"/>
</g>
</svg>
