<svg enable-background="new 0 0 189.1 100.8" viewBox="0 0 189.1 100.8" xmlns="http://www.w3.org/2000/svg"><path d="m66 70.8c-1.1-.3-2-.6-3-.9-.5-.1-1-.1-1.5-.2s-1-.2-1.5-.3c-.6-.2-1.2-.3-1.8-.3-.3 0-.6-.1-.9-.2-.1-.1-.2-.3-.3-.4.2-.1.3-.2.5-.2h1.2c.8-.1 1.5.3 2.3.4.4.1.9.2 1.3.2 1.1.1 2.1.4 3.2.6.4.1.7.2 1.1.3.8.1 1.6.3 2.4.4.7.1 1.4.2 2 .3.8.1 1.5.4 2.3.4 1.4.1 2.9.1 4.3 0 .8-.1 1.7-.3 2.5-.4s1.5-.1 2.3-.1h.4c.1 0 .2.1.3.2-.1.1-.2.2-.3.2-.2.1-.4.2-.5.2s-.2.1-.3.1c.1.1.2.2.4.2.8.1 1.4-.2 2-.7.8-.8 1.5-1.8 2.2-2.8 0 0 0-.1.1-.1.2-.1.2-.5.5-.3.1.1.3.6.2.8s-.1.4-.2.6v.2s.1 0 .1-.1c.7-.7 1.6-1.1 2.4-1.7.2-.2.4-.3.6-.4.1-.1.2-.2.2-.3-.1 0-.3 0-.4.1-.4.3-.8.5-1.3.8-.3.2-.5.4-.8.5-.2.1-.4.1-.5-.2-.2-.4-.1-.6.2-.9.1-.1.1-.1.2-.2s.2-.2.3-.4c-.2-.1-.4 0-.5.2-.3.3-.5.6-.9.1 0-.1-.2 0-.3 0-1 0-1.9-.2-2.9-.4-.1 0-.2 0-.3 0h-.1s.1.1.1.1c.2.1.3.3.3.5-.1.2-.3.2-.5.2-.3 0-.5 0-.6-.2-.2-.3-.5-.3-.8-.4-.4 0-.8-.1-1.2-.3-1-.4-1.9-.9-2.9-1.4-.9-.5-1.7-.9-2.5-1.5-.9-.7-1.9-1.1-3-1.4-1.3-.3-2.5-.7-3.8-.9-.7-.1-1.4-.4-2.1-.5-.4-.1-.7-.1-1.1-.2-1-.1-1.9-.2-2.9-.3-.4 0-.8.2-1.1.1-.6-.2-1.2-.1-1.8-.1-.2 0-.3 0-.5 0-1.6.1-3.1-.3-4.5-.7-.9-.3-1.7-.5-2.7-.6-1.1-.2-2.3 0-3.4-.1-.7 0-1.4-.1-2-.1-1.6 0-3.2.5-4.7 1-.3.1-.5.4-.8.6s-.7.4-1.1.6c-.2.1-.4.1-.5.2-.9.9-1.9 1.7-3 2.4 0 0-.1.1-.1.1-.2.2-.3.3-.5.5.2 0 .4-.1.6-.1.3 0 .6-.1.5.4 0 .3.1.6.1.9l.3.6c.1.1.1.2-.1.4-.3.2-.5.1-.6-.1-.3-.2-.5-.1-.8.1-.9.7-1.5 1.6-2.1 2.6-.4.7-.5 1.5-.8 2.2-.4 1 .1 1.9.2 2.8 0 0 .1.1.1.1v.3c-.1 0-.2 0-.3-.1-.5-.4-.7-.9-.8-1.5-.4-1.5 0-2.9.8-4.2.5-.8 1.1-1.4 1.2-2.4.1-.5.2-.9.2-1.4 0-.1-.2-.2-.3-.3s-.3-.2-.4-.3c-.4-.4-.4-.7.1-1 .1-.1.1-.2.2-.3-.1 0-.2 0-.3 0-.5 0-1 .1-1.6.1-.1 0-.2-.1-.3-.2-.2-.2 0-.3.1-.3.3-.1.6-.1.8-.1.1 0 .3.1.4.1.8 0 .8 0 1.2-.8.1-.3.3-.5.5-.7.1-.2.2-.3.3-.5 0-.1 0-.2 0-.2-.1 0-.1.1-.2.1-.4.3-.8.4-1.3.4-.3 0-.7 0-1 0-.8.1-1.6-.2-2.3-.3-.2 0-.4-.1-.5-.1-1.2.1-2.3-.3-3.4-.6-.4-.1-.8-.2-1.2-.4-.2-.1-.3-.1-.5-.2-.6-.3-.6-.4-1 .1-1.2 1.2-2.3 2.5-3.3 3.9-.3.4-.6.9-1.2 1.1-.1 0-.3.2-.4.3-.4 1-1 1.8-1.3 2.8-.2.7-.5 1.4-.8 2.1-.2.5-.3 1.1-.4 1.6-.1.8-.1 1.7-.1 2.5 0 .5.1.9.1 1.4.1.7.3 1.4.4 2.1.2.7.4 1.3.6 1.9.1.2.2.4.3.6.1.1.2.3.2.4 0 .9.8 1.3 1.3 1.9.1.1.2.1.2.1 1.1 0 2.2.4 3.3.5 1 0 2 .4 3 .6.4.1.8.2 1.1.2.9 0 1.6.5 2.4.7.6.2 1.3.5 1.9.5 1.1 0 2.2.2 3.4.4.5.1 1.1 0 1.6.1 2.5.5 5.1.2 7.6.3h.3s.1.1.1.1-.1.1-.1.1c-.1 0-.3 0-.4 0s-.1.1-.2.2c.1 0 .1.1.2.1h.1c1.8 0 3.6.2 5.4.1 3.8-.2 7.6 0 11.5-.1.3 0 .5.1.8.1h.4c.2 0 .5-.2.7-.1.5.1.9 0 1.4 0 .9-.1 1.9-.1 2.8-.2h.2c-.1 0-.1-.1-.2-.1-.1-.1-.3-.2-.4-.3s-.4-.3-.4-.3c.1-.2.2-.5.6-.4h.7c.7 0 1.4.2 2.1.3.9.1 1.9.1 2.8-.1.6-.1 1.2-.2 1.8-.3.9-.2 1.9-.4 2.8-.3h.1c.1 0 .2.1.3.1 0 .1.1.2-.2.3-.5.1-.9.4-1.4.6-.1 0-.1 0-.2.1.1.1.1.2.2.2s.2.1.2 0c.4-.4.8 0 1.3 0 .4 0 .7.3.9.7.2.3-.3.9-.7.9-1.4.2-2.9.1-4.4.2-1 .1-2 0-3 .3-.2 0-.3 0-.5 0-1.4 0-2.8 0-4.1 0-.1 0-.2 0-.3.1.1.1.1.2.2.2h.4c4.4.2 8.8.1 13.2.1 1.3 0 2.7 0 4-.2 1.7-.2 3.4 0 5.2-.1.2 0 .4-.1.6 0 .2 0 .3.1.5.1-.1.1-.2.3-.3.4-.6.2-1.2.4-1.8.5-1.7.3-3.4.1-5.1.1-1.4-.2-2.9-.2-4.5-.2-.8 0-1.7-.1-2.5-.3-.4-.1-.8 0-1.2 0-1.3 0-2.7 0-4-.2-.6-.1-1.3-.1-1.9-.1-1 0-2 0-2.9-.2-.7-.1-1.4 0-2.1-.1-1.7-.3-3.4 0-5.2-.2-2.5-.2-5.1-.1-7.6-.1-.9 0-1.8 0-2.7.1-1.2.1-2.4.2-3.6.3-1.1.1-2.2-.1-3.2.2-1.6.3-3.1.2-4.7.3-.2 0-.5-.1-.8.1-.1.1-.5 0-.7 0-.8-.2-1.6.2-2.4-.1-.1-.1-.3 0-.5 0-1.8 0-3.6 0-5.4 0-.7 0-1.4-.3-1.9-.7-.1-.1-.2-.2-.2-.3s.2-.2.3-.2c.7.1 1.5-.1 2.2.1.5.1 1 0 1.5 0 .2 0 .3 0 .5.1.1 0 .2.2 0 .2v.1h.4c3.5 0 7 .1 10.5 0 1.9-.1 3.8 0 5.7-.1.8-.1 1.6-.1 2.4-.1.1 0 .1-.1.2-.1 0 0-.1 0-.1-.1-.3-.1-.5-.1-.8-.1-.7 0-1.4 0-2.1 0-.8 0-1.4-.3-2-.8-.3-.3-.5-.4-1-.3-.9.3-1.9.4-2.8.3-.4 0-.8-.1-1.1.1-.5-.2-1.1-.1-1.7-.2s-1.1-.2-1.7-.3c-.9-.1-1.8-.1-2.8-.2-.5 0-.9-.2-1.4-.3-.7-.2-1.3-.4-2-.4-1.1 0-2.1-.1-3.2-.1-.6 0-1.2-.2-1.8-.3-.1 0-.2 0-.4 0-.5 0-2.4-.1-2.8-.2-.1 0-.2-.1-.3-.1-1.1-.1-2.3-.1-3.4-.1-.4 0-.7-.2-1-.5-.3-.2-.2-.5-.2-.8.1-.2.3-.2.6-.2.8 0 1.4-.3 2.2-.6.2-.1.1-.1 0-.2-.3-.4-.7-.8-1-1.2-.5-.5-.7-1.2-.9-1.9-.2-.9-.4-1.7-.7-2.6-.3-.8-.5-1.7-.5-2.6 0-.6-.1-1.1 0-1.7.1-1.2.3-2.4.8-3.5s.9-2.1 1.5-3.2c.6-1.2 1.4-2.4 2.3-3.5.4-.4.8-.9 1.2-1.3.9-.9 1.9-1.8 2.8-2.7.7-.7 1.3-1.5 2-2.3.2-.2.2-.5.3-.8.1-.2.4-.4.6-.6.5-1.1 1.2-2.1 1.4-3.3.2-.8.4-1.6.6-2.4.1-.4 0-.9-.1-1.4 0-.1-.2-.3-.4-.4-.7-.1-1.3-.3-2-.3-.5 0-1.1.2-1.6.3-.2 0-.4.1-.5 0-.5-.3-1-.1-1.5.2-.6.3-1.3.4-2 .6-1 .3-2 .5-3 .7-.6.1-1.2.2-1.8.3-.5.1-1.1.3-1.6.6-.3.6-.6.7-1.1.7-.4 0-.8 0-1.2 0s-.7-.2-.8-.6c-.1-.2.3-.7.5-.9 1.3-.8 2.5-1.6 3.8-2.4.8-.5 1.7-1 2.5-1.5 1-.6 1.9-1.4 2.9-2 .2-.1.2-.2.1-.3-.4-.3-.2-.5.1-.7.7-.6 1.3-1.2 1.8-2s1.3-1.5 1.8-2.3c.7-1 1.7-1.8 2.7-2.5 1.1-.7 2.2-1.4 3.5-1.7.7-.2 1.4-.4 2.2-.4 1.1 0 2.2.2 3.2.9.6.4 1.3.6 1.9.9s1.3.5 1.8.9c.4.4.7.9 1 1.4.7 1.1 1 2.3 1.4 3.5v.4c0 .6.1 1.2.3 1.8.1.2-.1.4-.1.7-.1.7-.1 1.4-.2 2.1 0 .2-.1.4-.1.6-.6 1.3-.7 2.6-1 3.9-.2.6-.4 1.2-.6 1.9-.2.6-.5 1.2-.7 1.7-.1.2-.2.5-.3.7-.1.1-.2.3-.2.4 0 .6 0 1.2-.2 1.7 0 0 0 .1.1.1h.2c.6-.6 1.4-.7 2.2-.6 1.3.1 2.7.1 4 .2.4 0 .8.1 1.1.4.6.4 1.2.4 1.9.2.1 0 .2-.1.2-.1.7-.1 1.5 0 2.2-.2.6-.1 1.3 0 1.9-.3.1-.1.3 0 .4 0h2.3c.9 0 1.8-.1 2.7-.1 1-.1 1.9.2 2.8.5 2.3.7 4.4 1.7 6.5 2.8.6.3 1.2.7 1.8 1 1.1.6 2.4.9 3.6 1.3.3.1.6.2.9.3.1 0 .3.1.3.2.1.4.5.5.8.6.9.3 1.7.9 2.6 1.4.5.3.9.5 1.4.8h.1c0-.1 0-.1 0-.2-.5-.5-.9-1-1.5-1.2-.8-.4-1.6-.9-2.5-1.1-.1 0-.3-.1-.3-.2-.1-.1-.4-.3-.3-.5.1-.1.3-.1.5-.1.6-.1 1.2.2 1.8.4.9.4 1.7.8 2.4 1.3.4.3.7.8 1.1 1.2s.8.8 1.3 1.1c.7.5 1.5.4 2.2.6 1.1.2 2.1.4 3.2.4.5 0 1-.2 1.5-.3.2-.1.4-.2.5-.4.3-.6.8-.7 1.4-.7s1.3-.1 1.9.3c.3.1.5.2.6.5.2.3.3.5.7.3.2-.1.6 0 .9.1.6.2.6.5.2.9-.5.4-1.1.7-1.6 1-1 .6-2 1.3-3.1 1.9-.5.3-1 .6-1.5.8-.3.2-.6.3-.7.7-.1.3-.4.5-.5.7-.6.7-.6.7.2 1.1.3.1.6.2.9.3.6.1.8.2.8.8 0 .2.1.3.3.4.6.3.9.9 1.3 1.4.2.2.1.6-.2.8-.2.1-.7.1-.7-.2-.1-.8-.8-.8-1.2-1.2-.8-.7-1.8-1.2-2.7-1.8-.2-.2-.4-.2-.7-.2-.1 0-.2 0-.3.1l.2.2c.1.1.1.3.2.4-.2.1-.3.2-.5.2-.7 0-1.4-.1-1.5-.9 0-.1-.2-.3-.4 0-.3.4-.7.8-1.2.9-.5.2-1.2 0-1.5-.5-.2-.3-.1-.5.2-.4.6.1 1.2-.2 1.8-.3.1 0 .1-.1.2-.1-.1-.1-.1-.3-.2-.3-.2 0-.5-.1-.7 0-1.3.5-2.6.7-3.9.7-.5 0-1 0-1.4 0-1.2 0-2.3-.1-3.4-.4-1.1-.2-2.2-.6-3.3-.6-.6 0-1.2-.2-1.8-.3-.6-.4-.6-.4-.8-.5m-35.9-15c-.2.1-.4.2-.6.3s-.5.1-.5.2c0 .4.4.1.5.2 1.1.5 2.4.8 3.6 1 .4.1.9.3 1.3.2.5-.1.6-.7.8-1 .1-.1.2-.2-.1-.2s-.4-.1-.4-.4c0-.7.2-1.4.7-2 .2-.2.3-.4.7-.2s.2-.4.4-.4c0-.1 0-.2-.1-.2-.6-.4-.4-1-.3-1.5.1-.3.4-.4.7-.1.2.2.2.4.2.6 0 .1.1.1.1.2.1-.1.1-.1.1-.2.1-.5.6-1-.1-1.5v-.1c-.3-.6-.3-.7-.2-.8.4-.3.6 0 .8.2.1 0 .1.1.2.1 0-.1.1-.2 0-.2-.2-.4 0-.9 0-1.3 0-.3.1-.7.4-.9.1-.1.2-.2.2-.3-.1-.5.4-.8.4-1.3s.1-.9.6-1.1v-.1c.1-.9.4-1.9.4-2.8 0-.8-.1-1.6-.1-2.4 0-.3 0-.7-.2-.9-.5-.9-.7-2-1.4-2.8-.4-.6-.8-1.1-1.5-1.4-.3-.1-.6-.2-.9-.3-.8-.4-1.5-.8-2.3-1.2-.1-.1-.3-.2-.4-.1-.7.1-1.5-.3-2.2 0-.3.1-.7.2-1 .3-.6.1-1.2.2-1.7.4-.3.2-.6.4-1 .6-.9.4-1.7 1-2.3 1.7-.6.5-1.1 1.1-1.6 1.7-.5.5-.9 1.1-1.3 1.7-.1.1-.1.3-.2.4.2-.1.4-.1.5-.3.1-.1.1-.2.2-.3.2-.3.3-.5.5-.7 0-.1.2-.1.2-.1 0 .1.1.1.1.2 0 .2-.1.4-.1.7 0 .1.1.2.1.3l.2-.2c.1-.2.2-.4.3-.6h.2c.1 0 .1.2.1.2-.2.3-.1.7-.6.8-.1 0-.2.1-.2.2v.5c.1 0 .1 0 .2-.1.2-.3.4-.7.7-.9.1-.1 0-.5.4-.4.1 0 0 .4 0 .6 0 .1-.1.3-.2.4-.3.4-.4.7-.5 1.2-.1.4 0 .8-.1 1.3 0 .1-.1.3-.2.3s-.4-.1-.4-.2c-.1-.2 0-.4 0-.6s.1-.4.1-.7c0-.1 0-.2-.1-.3-.1.1-.2.2-.2.3-.3 1-.1 1.9.5 2.8.1.1.2.2.2-.1 0-.1.1-.1.2-.2.1-.2.3-.3.5-.1.2.1.3.3.1.5-.2.3-.4.8-.8 1-.1 0-.1.1-.2.2.1 0 .2.1.3.1.2 0 .5-.1.7-.1.8-.1 1.6.2 2.4.3.5.1 1 .2 1.3.7.1.1.2.1.3.2.2.2.5.5.6.8.1.4.2.9.2 1.3 0 .7 0 1.5-.1 2.2-.2 1.1-.5 2.1-1 3.1-.3.5-.6 1-.9 1.5-.3.4-.3.4.2.6.5-.3.5-.3.6-.6 0-.1.1-.1.2-.1.6 0 1.1 0 1.6-.3.2-.1.4-.3.6-.1.1.1-.2.4-.4.6m-16.1-9.6c-.4.2-.7.4-1.1.7-.6.4-1.2.9-1.9 1.1-.1 0-.1.1-.2.2.1.1.2.2.2.2.3 0 .6 0 .9-.2.8-.4 1.7-.7 2.6-.8 1-.1 1.9-.4 2.9-.6.9-.1 1.7-.3 2.6-.5.2 0 .4-.1.6-.2.3-.2.6-.4.9-.5.5-.3 1-.6 1.5-.8.4-.2.2-.2.1-.4-.4-.5-.6-1.1-.6-1.7 0-.9.4-1.7.5-2.5 0-.1 0-.2 0-.2-.1 0-.2 0-.2 0-.5.4-1.1.7-1.6 1.2-.5.7-1.2 1.2-1.9 1.6-.6.4-1.1.9-1.7 1.3-.7.5-1.4.9-2.1 1.3-.7.2-1 .5-1.5.8m48.3 11c-.3-.1-.6-.2-.9-.3-1.2-.5-2.4-.8-3.7-1-.7-.1-1.5-.2-2.2.1-.1.1-.3 0-.5 0-.4-.1-.9-.2-1.3-.2-.8 0-1.7 0-2.5 0-.2 0-.4 0-.4.3s-.1.4-.4.6-.5.4-.9.4c-.1 0-.2.1-.3.2.1 0 .2.1.3.1h.9c.1 0 .3 0 .3-.1.2-.5.8-.6 1.1-.9.2-.2.8-.2 1 0 .2.3.6.3.9.3h2.4.4c.3.1.6.1.6.4 0 .2-.1.5-.3.7s-.5.3-.8.4c-.2.1-.4.2-.4.2 0 .4.3.1.5.2s.3.1.5.1c1 .2 2 .5 3 .7.7.1 1.3 0 1.8-.4.4-.3.8-.6 1.1-1 .2-.2.4-.2.6 0 .1.2.3.4.3.6 0 .4.3.4.6.5.4.1.6-.1.7-.4 0-.1-.2-.4-.4-.5-.6-.3-1.2-.7-2-1m-37 .7c.2 0 .5.1.7.1 1 .2 1.9.6 2.9.5.4 0 .9 0 1.4.2s1 .3 1.6.2c.4 0 1-.2 1.3 0 .4.2.7-.2 1.1-.1 0 0 .2-.2.2-.3s-.1-.2-.2-.3c-.3-.1-.5-.1-.8-.2-.5 0-1 0-1.5 0-.7-.1-1.4-.1-1.9-.4-1.1-.5-2.2-.8-3.2-1.3-.2-.1-.3-.1-.5.1-.1.1-.4.3-.5.2-.3-.2-.4 0-.6.1-.2.2-.5.4-.7.6 0 .4.3.5.7.6m13.1-1.1c0 .1.1.3 0 .4-.3.3 0 .2.1.2.3 0 .6-.2.9-.1.6.1 1.2-.1 1.8-.3.4-.2.8-.3 1-.7.1-.3.3-.4.7-.4.2 0 .4.1.7.1.6 0 1.2-.1 1.8-.1.1 0 .2-.1.3-.1-.1-.1-.2-.2-.3-.2-.4-.1-.8-.1-1.2-.1-.2 0-.3 0-.5 0-.6.2-1.2.1-1.8.1s-1.2-.2-1.8-.3c-.2 0-.4 0-.6 0 .2 0 .3.1.5.1s.3.1.5.1c.4.1.8.2 1.2.3.1 0 .2.1.2.2-.1.1-.2.1-.3.1s-.2.1-.3 0c-.8-.3-1.7-.3-2.6-.3-.2 0-.3.1-.3.3zm3.5 1.4c.4-.1.9-.3 1.3-.4.7-.2 1.4-.4 2.1-.5.9-.1 1.9-.2 2.8 0 .3.1.4 0 .3-.4 0-.4.1-.6.4-.8.1 0 .1-.1.2-.2-.1 0-.2-.1-.2-.1-.4 0-.9-.2-1.1.3 0 0-.1.1-.1.1-.6.1-1.2.3-1.8.4-.4.1-.8 0-1.2.2-.5.2-.9.2-1.3 0-.2-.1-.5-.1-.7.1-.4.4-.8.8-1.4 1.1-.1.1-.2.2-.3.3v.2s.1.1.2 0c.3 0 .5-.1.8-.3m-14.4-4.8c.2-.5.4-1 .6-1.5.2-.7.4-1.4.5-2.1.1-.5 0-.9.1-1.4 0 0-.1-.1-.1-.1s-.1.1-.1.1c-.1.3-.1.6-.2.9-.2.7-.3 1.5-.6 2.2-.4 1.1-.9 2.1-1.3 3.2-.1.1-.3.2 0 .4.1 0 .2 0 .4-.2.1-.5.4-.9.7-1.5m-6.3 29.2c-.2-.1-.5-.3-.7-.4-.1-.1-.2-.1-.3-.1s-.2 0-.3 0c.1 0 .1.1.2.1.2.1.4.2.5.4.3.3.6.4.9.4h1c.6 0 .8.1 1.2.6 0 0 .1.1.2.1.8.1 1.5.1 2.3.1.1 0 .2-.1.3-.1-.1-.1-.2-.1-.3-.2-.1 0-.1 0-.2 0-.6-.1-1.2-.1-1.7-.5-.3-.2-.7-.3-1.2-.3-.6 0-1.2 0-1.9-.1m32.5-25.5c-.5.1-1 .1-1.4.2-.1 0-.1.1-.2.2.1 0 .1.1.2.1.3 0 .5 0 .8.1.5.2.9.4 1.4 0 .3-.2.8-.3 1.2-.4.1 0 .2-.1.2-.2-.1 0-.2-.1-.3-.1-.6 0-1.2 0-1.9.1m-34.8 26.2c.1 0 .3.1.4.1s.1-.1.2-.1c-.1-.1-.1-.1-.2-.2-.3-.1-.7-.2-.9-.4-.3-.4-.6-.3-.9-.1-.3.1-.5.3-.8.4-.1 0-.1.1-.2.2.1 0 .1.1.2.1zm18.3-22.9c-.3.2-.5.4-.7.6v.2h.2c.3-.2.6-.5.9-.8 0 0 .1-.1.1-.2-.2.1-.3.2-.5.2m.8-1.7c.1-.1.3-.2.4-.3.2-.2.4-.4.6-.6-.3.1-.5.2-.8.4-.1 0-.1.2-.2.5m-14.9-12.6.2-.2c-.1 0-.2-.1-.3-.1s-.1.1-.2.1c.1 0 .2.1.3.2m42.9 13.1h.2c-.1-.1-.2-.2-.3-.2s-.1.1.1.2m-30.1-4.4v.1c0 .1.1.1.1.2 0-.1.1-.1.1-.2 0 0-.1-.1-.2-.1z"/><path d="m60.1 91.5h2.7c.5 0 1 .1 1.5.1h1.1 1.2s.8 0 1.2 0 .8-.1 1.2 0c.8.2 1.6 0 2.4.2s1.7.1 2.5.1c.9.1 1.8 0 2.8.2.5.1 1.1.3 1.4.7.1.1.1.2.1.2-.1 0-.1.1-.2.1s-.3 0-.4 0c-.9 0-1.8.2-2.7.3-.8 0-1.7.2-2.5-.1-.5-.1-1 0-1.5 0-2.5-.2-4.9 0-7.4-.2-1.3-.1-2.6 0-3.9-.1-.8-.1-1.7 0-2.5-.1s-1.6 0-2.3-.1c-1.8-.3-3.7 0-5.5-.2-1-.1-2-.2-2.8-.8-.3-.2-.7-.5-1-.7-.1-.1-.1-.2-.1-.3h.3c.2.1.3.2.5.3.7.2 1.3.4 2.1.3.7-.1 1.4 0 2.2.1.5 0 1 0 1.5-.1.3 0 .6.1.9.1.5-.1 1.1 0 1.7 0 1.6-.1 3.5 0 5.5 0z"/><path d="m61.8 96.9h10.8c.7 0 1.4 0 2.1.3.3.1.6 0 .9 0 .1 0 .2.1.3.2-.1 0-.2.1-.3.1-1.1.2-2.2.3-3.3.3s-2.3 0-3.4.2c-1.7.2-3.4 0-5.1.1-2.8.3-5.6.1-8.4.1-.8 0-1.6 0-2.4-.3-.2 0-.3 0-.5 0-1.2-.1-2.4-.2-3.7-.4-.1 0-.2-.1-.3-.1s-.1-.1-.2-.1c.1-.1.1-.1.2-.1.2 0 .4-.1.6-.1h9.8c1-.1 1.9-.2 2.9-.2z"/><path d="m87.3 77.7c-.8.2-1.6.1-2.2.7-.1.1-.3.1-.4.2-.5.2-.9.4-1.2 1-.1.3-.6.5-.9.7-.9.5-1.7 1.1-2.5 1.8-.6.5-1.4.6-2.1.7-.3 0-.6-.1-.9-.2-.1 0-.1-.1-.1-.3.2-.5.6-.5.9-.6.4-.2.9-.3 1.4-.5.1-.1.4-.1.4-.4 0-.4.4-.6.8-.7 1-.3 1.9-.7 2.8-1 0 0 .1 0 .1-.1-.1 0-.1-.1-.2-.1-.2-.1-.5-.2-.7-.3-.1-.1-.2-.3-.2-.4s.2-.2.4-.3c.7-.2 1.5-.3 2.2-.4.2 0 .4-.1.5-.2.3-.7.8-.4 1.3-.5.1 0 .1.1.2.1 0-.1 0-.2 0-.2-.1-.5-.1-.6.4-.6.2 0 .4-.1.6 0 .2.2.4.4.5.6.2.4-.3.4-.4.5-.2.2-.5.3-.7.5z"/><path d="m2.5 89.8c.3.3.4.6.7.8.7.7 1.5 1.3 2.4 1.7.1 0 .5 0 .3.3-.1.2-.3.3-.5.1-.2-.1-.4-.2-.6-.2-1.2-.5-2.2-1.3-3.1-2.4-.7-.9-1.2-1.8-1.5-2.9-.3-.9-.4-1.9-.1-2.8.2-.7.9-.8 1.3-1.1 0 0 .2.1.2.1v.2c-.4.5-.4 1-.2 1.6.1.4 0 .9.1 1.4.2.8.3 1.5.6 2.2.2.4.3.7.4 1z"/><path d="m77.4 75.2c-.5.6-1.1.8-1.8 1-.1 0-.3.1-.4.2-.5.8-1.2 1.2-2.2 1-.5-.1-1-.2-1.2-.8 0-.1-.1-.3-.1-.3.1-.1.3-.3.5-.3.4 0 .8.2 1.2.2.3 0 .6-.1.9-.2 0 0 .1-.1 0-.1 0-.1-.1-.1-.1-.1-.2-.1-.4-.2-.5-.3-.2-.2-.2-.4.1-.6.2-.1.4-.1.6-.1.8-.1 1.6-.1 2.4-.2.1 0 .1 0 .2-.1-.1-.1-.1-.1-.2-.2s-.2-.1-.3-.2c-.1-.2-.1-.3-.1-.5 0 0 .2-.1.4-.1.6 0 1.2 0 1.8-.3.1 0 .3.1.3.1.1.1.2.2 0 .4-.3.2-.5.6-.8.7-.3.4-.5.6-.7.8z"/><path d="m65 80.6c-.7.4-1.4.3-2 .5-.8-.3-1.7-.1-2.6-.2-1-.2-1.9-.5-2.8-.8-.1 0-.2-.1-.3-.1-.1-.1-.1-.2-.1-.3 0 0 .1-.1.2-.1.8-.1 1.6-.1 2.4.1.5.1 1 .1 1.5.2 1 .1 2.1.1 3.1.1.2 0 .4-.1.6-.1s.5-.1.6.2c0 .1-.2.3-.3.5-.1-.1-.2 0-.3 0z"/><path d="m49.1 67.2c-1.1 0-2 0-3 0-.3 0-.5 0-.8.1-.2.1-.5-.1-.8-.2-.2-.1 0-.2 0-.2.5-.2.9-.4 1.4-.5.8-.1 1.5-.2 2.3-.1.9 0 1.9.1 2.8.2.7.1 1.5.2 2.2.3.4.1.9.2 1.3.3.1 0 .1.2.2.3-.1.1-.2.2-.3.1-.6-.1-1.2-.2-1.8-.2-.9 0-1.7 0-2.6 0-.2.3-.5-.2-.9-.1z"/><path d="m73.6 100.5c-.2-.2-.4-.3-.5-.4-.3-.5-.2-.6.3-.5.5 0 1 .1 1.5.1 1.2 0 2.4 0 3.5-.2 1-.1 1.9-.1 2.8-.1.7 0 1.4-.1 2.1-.1h.4c.1 0 .1.1.2.1-.1.1-.1.1-.2.1-.4.1-.8.1-1.2.1-1.2.1-2.4.3-3.5.6-.8.2-1.6.2-2.3.3-.6.1-1.2.3-1.8.3-.4 0-.8-.2-1.3-.3z"/><path d="m70.1 79c-.8.7-1.7 1-2.7 1-.7 0-1.4-.1-1.9-.7-.1-.1-.3-.3-.2-.4.1-.2.3-.3.5-.4s.4-.1.6 0c1 .3 2.1.2 3.1 0 .1 0 .1-.1.2-.1 0 0-.1-.1-.1-.1-.3-.1-.4-.3-.3-.5.1-.3.4-.3.7-.2.6.1 1.1.5 1.7.2 0 0 .2.1.3.2.1.4-.3.8-.8.9-.3 0-.6 0-.9 0 0-.1-.1 0-.2.1z"/><path d="m10.1 95c.8.4 1.5.8 2.3 1 .1 0 .2.1.3.2s.2.2.2.3-.2.2-.3.3c-.3 0-.6.1-.9 0-1-.2-2-.5-2.8-1.2-.9-.8-1.5-1.8-1.9-2.9-.1-.3.2-.4.4-.5.4-.1.6-.2.8 0 0 0 .1 0 0 0-.4.7.4 1 .7 1.5.3.6.8.9 1.2 1.3z"/><path d="m34.6 77c.2.3.2.8.7.8.2 0 .3.2 0 .4-.3.3-.7.3-1 0-.4-.4-.7-.8-.6-1.4 0-.2 0-.4-.2-.6-.6-.5-.7-1.2-.3-1.9.2-.5.5-.9.8-1.3 0-.1.2-.1.2-.1.1.1.2.2.2.2-.3.6-.1 1.4-.5 2-.1.2.1.5.1.7 0 .3.1.3.3.1.1-.1.2-.1.3-.1v.3z"/><path d="m37.7 78.6c.1.3.2.5.3.7.2.3.1.5-.2.5-.5.1-.8-.1-1.1-.6-.2-.5-.4-1-.6-1.6-.1-.3.2-.4.3-.6.2-.1.4 0 .5.2.2.3.4.6.6.9.1.2.1.3.2.5z"/><path d="m40.1 80.3c-.7.1-1.3-.1-1.6-.8-.1-.2-.1-.3-.1-.5 0-.1.1-.3.2-.4.1.1.3.1.3.2.2.2.4.5.6.7.1.1.3.2.5.3.5.1.5.1.1.5z"/><path d="m86.5 78.2c.2-.1.4-.2.6-.2.1 0 .2.1.3.2 0 0 0 .1-.1.2-.4.4-.8.8-1.4.7-.1 0-.2 0-.3-.1s-.2-.3-.3-.4c.2-.1.3-.2.5-.2.2-.1.4-.1.7-.2z"/><path d="m32.6 62.9c.1.1.1.4.1.4-.5.2-.9.5-1.5.5-.1 0-.2 0-.3 0-.1-.1-.2-.2-.3-.3.1-.1.2-.1.3-.2.1 0 .1-.1.2-.1.5-.3 1-.3 1.5-.3z"/><path d="m31 64.6c-.2-.1-.4-.2-.4-.3-.1-.1-.1-.3.2-.3h1.1c.1 0 .4-.1.4.2s-.1.4-.4.4-.5 0-.9 0z"/><path d="m11.3 98.9c.1-.1.1-.1.1-.1.2 0 .4 0 .5.3 0 0-.1.1-.1.1-.3 0-.6.1-.5-.3z"/><path d="m10.1 47.3c-.2 0-.4-.1-.6-.1 0 0-.1-.1-.1-.1h.1c.3 0 .5.1.6.2z"/><path d="m12.7 50.8c-.1 0-.2 0-.2 0v-.1c.1 0 .2 0 .2.1z"/><path d="m17.4 35.5c-.1-.1-.1-.1 0 0-.1-.1 0-.1 0 0z"/><path d="m25.8 38.5c-.1 0-.2-.1-.2-.1-.4.4-.7 0-.9-.2s-.2-.4 0-.7c.8-1.2 1.9-1.8 3.2-2.1.3-.1.7.1 1.1.1.2 0 .3.1.4.1.3 0 .4.3.3.5-.2.3-.1.6 0 1 0 .2 0 .5-.2.7-.5.7-1.3 1.1-2.2 1.3-.6.1-1.1-.1-1.5-.6m1.5-.3c-.1 0-.3.1-.4.1v.1c.1.1.4.3.4-.2m.1-2.2c.2 0 .3.1.5.1 0 0 .1 0 .1-.1 0 0-.1-.1-.1-.1-.2 0-.3 0-.5.1m-2 2.2s.1 0 0 0zm.7-1.5c-.1 0-.1 0 0 0-.1 0-.1.1 0 0z"/><path d="m30.2 53.9c.2-.1.3-.1.4-.1s.3 0 .3.1v.3c-.4.4-1.6.5-1.8-.3 0-.2 0-.4 0-.6 0-.1.1-.1.1-.2 0 .1.1.1.1.2.1.5.4.7.9.6z"/><path d="m28.4 55.3c-.2-.1-.3-.2-.4-.3.1-.1.3-.2.4-.2h1.2c.1 0 .1 0 .2.1 0 .1-.1.2-.1.2-.4.3-.8.2-1.3.2z"/><path d="m33.7 36.6c-.4.1-.8.1-1.1.2-.1 0-.2-.1-.3-.1.1-.1.2-.3.2-.3.5 0 .8-.2 1.2-.3.1 0 .2 0 .3.1 0 .1 0 .2-.1.2 0 .1-.1.1-.2.2z"/><path d="m34 37.1c.3-.2.5-.2.7 0 0 0 .1.1.1.1-.1.3-.4.2-.6.2-.1 0-.5.1-.2-.3z"/><path d="m20.5 43.8c-.4.2-.7.6-1.3.6-.5-.1-.7-.3-.4-.6.4-.5.8-.8 1.5-.8.4 0 .5.1.4.5 0 0-.1.1-.2.3z"/><path d="m60.9 58.8c-.4.1-.7.3-1 .3-.1 0-.3-.1-.4-.2 0-.1.1-.3.1-.4.3-.5.9-.6 1.3-.9.1-.1.3 0 .5 0 .3 0 .4.4.2.6-.1.1-.4.3-.7.6z"/><path d="m59.1 57.9c-.3.2-.5.4-.8.6-.2.2-.5.2-.7 0s-.1-.5.1-.7c.3-.3.6-.5.9-.7.2-.1.2-.5.5-.2s.4.5.1.8c0 .1-.1.1-.1.2z"/><path d="m115.5 35.6c.2.4.3.7.5 1 .1.2.2.4.2.5.1.2.2.4.5.4.9 0 1.7.4 2.4 1 .4.3.8.7 1.2.9.6.3 1.3.3 1.9.2.1 0 .2-.1.4 0s.5.1.7 0c.5-.2 1-.1 1.5-.1.3 0 .5 0 .6.3 0 .1.2.4.4 0 0-.1.3-.2.4-.2.4 0 .8-.1 1.2-.1.6-.1 1.1.1 1.7.1.1 0 .2.1.2.1.1 0 .2-.1.3-.2-.1 0-.2 0-.3-.1-.1 0-.1-.1-.2-.1.1-.1.1-.2.2-.2.7-.2 1.3-.3 2-.5.2-.1.4-.1.6-.3.3-.3.6-.4.9-.5s.5 0 .8.2c.1.1.2.2 0 .3-.1 0-.1.2-.1.3h.3c.1 0 .2-.1.3-.1 1.1 0 2.2 0 3.3-.2s2.1.2 3.1 0c.9-.2 1.8 0 2.7-.2h.4 3.2c.9 0 1.7-.2 2.6-.3 1.1-.1 2-.6 3-.9.9-.3 1.8-.5 2.7-.8 1.4-.4 2.7-.9 4-1.4.3-.1.6-.4 1-.6.9-.6 1.9-1.2 2.9-1.7 1.7-.8 3.3-1.8 5-2.7 0 0 .1-.1.1-.1-.1-.1-.1-.1-.2-.1-.2.1-.4.2-.5.2s-.3-.1-.3-.1c0-.1 0-.3.1-.3.5-.1.8-.6 1.2-.8 1-.5 1.8-1.2 2.6-2s1.3-1.8 1.7-2.9c.3-.8.8-1.5 1.1-2.3.1-.2.3-.4.4-.7.3-.7.8-1.2 1.4-1.7s1-1 1.5-1.6c.7-.9 1.3-1.8 1.9-2.6v-.1c-.1 0-.1 0-.2 0-.3.3-.6.6-.9.9-.5.4-1 .8-1.5 1.3-.2.2-.5.1-.7-.1s-.1-.3.1-.5c.7-.8 1.4-1.7 2.1-2.5.1-.2.1-.3.2-.5-.1.1-.3.2-.4.3-.2.2-.4.5-.7.7-.1.1-.4.2-.5.1-.1 0-.1-.3-.2-.4 0-.1 0-.2 0-.3.3-.5.6-1 .9-1.4s.7-.8 1.1-1.3c.2-.2.4-.4.7-.5 0 0 0-.1 0-.2 0 0-.1-.1-.2 0-.3.2-.6.4-.8.6-.1.1-.3.2-.4.3-.3.1-.5.3-.7.6-.1.3-.4.5-.8.5-.5.1-.9.5-1.3.8-.6.4-1.1.9-1.8 1.3-.3.2-.3.3-.1.7.1.3.4.5.7.4.2-.1.4-.1.5.1-.2.1-.3.2-.5.2-.5.1-.8-.1-1-.5-.3-.5-.4-.5-.9-.3-.5.1-.9.3-1.5.1-.1-.1-.4.1-.6.2-1.1.8-2.3 1.3-3.6 1.8-.5.2-1 .2-1.5.3-.3 0-.5.1-.2.4.2.2 0 .6-.3.7-.5.2-1 .5-1.6.5-.8.1-1.6.3-2.3.5-.3.1-.6.2-1 .2-.3.1-.4.1-.4.5 0 .1-.1.3-.2.4s-.3.1-.5.1c-.3 0-.7-.1-.6.4 0 .1-.1.2-.2.2-1.6.4-3 1.2-4.6 1.7-.2.1-.5.2-.8.2-.9.1-1.8.1-2.7.1-.5 0-1-.2-1.6-.4-.2-.1-.3-.3 0-.5.1-.1.1-.1.2-.2-.1 0-.2 0-.3-.1-.2-.1-.3-.2-.5-.2s-.4-.1-.4.3c0 .2-.2.4-.3.5-.9.4-1.7.8-2.7.8-.7 0-1.3-.3-1.9-.6-.7-.3-1.3-.8-1.7-1.4-.2-.2-.3-.5-.4-.7-.1-.1 0-.4 0-.5.2-.2.4-.1.5 0 .4.3.9.6 1.2 1 .5.7 1.8 1.4 2.8 1 .3-.1.7-.3 1-.4.5-.2.6-.5.6-1 0-.1 0-.2-.1-.3 0-.2 0-.3 0-.5.2 0 .4-.1.6.1.5.4 1 .9 1.7 1.1.6.1.8.1 1.2-.4.1-.1.3-.2.4-.3s.2-.2.1-.4c-.2-.4-.2-.4-.6-.2-.1 0-.2.1-.3.1s-.2 0-.3 0c0-.1 0-.3 0-.3.5-.6.9-1.1 1.4-1.6.8-.8 1.4-1.7 1.9-2.7.2-.3.1-.6-.1-.8-.1-.2-.4-.3-.6-.4s-.4-.1-.7 0c-.4.1-.9.1-1.3.2-.7.1-1.4.3-2.1.3-.6 0-1.1 0-1.7-.1-.1 0-.2-.2-.2-.3s.1-.3.2-.4c.4-.2.8-.3 1.2-.4.6-.1 1.3-.2 1.9-.3.3 0 .7-.1 1-.1.7-.1 1.3.1 1.9.3.7.3 1.3.7 1.7 1.4.1.3.1.8 0 1.1-.5 1.1-1.2 2-2.1 2.7-.1 0-.1.1-.2.2-.2.2-.6.4-.6.7s.3.6.4.9c.1.2.2.4.6.3.4-.2.8-.1 1.1-.5.5-.6 1.1-1.1 1.8-1.4 0 0 .1-.1.1-.1s-.1-.1-.1-.1c-.3.1-.5-.1-.6-.3-.2-.2-.1-.4.1-.4 1.3-.1 2.4-.9 3.4-1.5.6-.4 1.2-.9 1.6-1.6 0-.1.1-.2.1-.3.2-.5.1-.8-.4-.9-.3-.1-.7-.2-1.1-.2-.4-.1-.8-.2-1.1-.1-.6.2-1.2-.1-1.8.2-.1 0-.3-.1-.4-.2.1-.1.1-.3.2-.3.5-.3 1.1-.5 1.7-.5 1.2-.1 2.3.2 3.4.6.1 0 .1.1.2.1.2.2.4.2.7 0 .1-.1.1-.2.2-.2.2-.1.4 0 .4.3 0 .1 0 .2.1.3.1 0 .3-.1.4-.1.9-.9 2-1.5 3.1-2.1 0 0 .1 0 .1-.1 0 0 .1-.1.1-.1-.1 0-.2-.1-.2-.1-1.1.2-2.1.1-3.2.1-.8 0-1.5-.1-2.3-.1-.4 0-.8.1-1.2.1-.1 0-.2.1-.2.1 0 .3-.3.3-.4.3-.5 0-1 .3-1.6.1-.2-.1-.5 0-.7.1-.7.3-1.4.3-2.1.4-1 .2-1.9.3-2.8.6-.5.2-.9.3-1.4.2-.1 0-.3-.1-.4-.2-.2-.2-.2-.3.1-.4.7-.4 1.5-.6 2.3-.8.6-.2 1.1-.3 1.7-.3.1 0 .1-.1.2-.1-.1 0-.1-.1-.2-.1-.6 0-1.2 0-1.7-.1-.7-.2-1.4-.1-2.2-.1s-1.6.2-2.4.4c-.7.2-1.4.2-2.1.3-.8.1-1.5.1-2.3.4-.4.2-.9.3-1.4.4-.8.2-1.4.6-2.1 1-.3.1-.6.3-.9.5-1.3.6-2.4 1.5-3.4 2.6-.2.2-.4.3-.7.4s-.5-.1-.7-.2-.1-.3-.1-.6c0-.1 0-.2 0-.3-.1 0-.2.1-.3.1-.2.2-.1.7.2.9.2.1.1.2 0 .3-.2.2-.5.5-.7.7s-.5.4-.7.3c-.4-.1-.7-.3-.8-.8s0-.9.2-1.3c.8-1.2 1.5-2.4 1.8-3.8.1-.5.3-.9.4-1.4.2-1.1.3-2.2.3-3.3 0-.2-.1-.4-.1-.5-.3-.7-.3-.7.2-1.3v-.1c-.1-.4-.3-.7-.4-1.1 0 0-.1-.1-.1-.1-.7-.2-.6-.2-.9-.6-.3-.5-.6-1.1-1.3-1.4-.5-.3-.9-.7-1.3-1-.2-.2-.5-.2-.8-.3-.1 0-.2-.1-.3-.1s-.1-.1-.1-.2c.1 0 .1-.1.2-.1.5 0 1-.1 1.4.3.1.1.3.1.4.2.5.1 1 .3 1.3.8.2.3.5.4.7.6.5.4 1 .9 1.5 1.3.1.1.1.4.2.6.2.6.2 1.2.5 1.7.2.3-.1.5 0 .8 0 1.1.1 2.2 0 3.3 0 .7-.2 1.4-.3 2.1-.1.9-.5 1.7-.9 2.4v.2c.1 0 .1 0 .2-.1.2-.1.4-.2.6-.3.1-.1.2-.2.2-.2 0-.7.6-1 1-1.3.9-.6 1.9-.9 3-1.1.2 0 .3-.1.4-.1 1-.6 2.1-.9 3.2-1.1.7-.2 1.5-.3 2.3-.4.9-.1 1.9-.3 2.8-.4s1.8-.3 2.6-.2 1.6.1 2.4.3c1.1.3 2.2.5 3.2.8.3.1.6 0 1-.1.8-.2 1.6-.4 2.4-.4.5 0 1-.1 1.5-.1.4 0 .8.1 1.2.1.2 0 .5-.1.7-.2.7-.4 1.5-.6 2.4-.6.6 0 1.2-.1 1.9.1.1.1.4-.1.5-.2.8-.5 1.6-1.1 2.4-1.7 1.3-.9 2.7-1.6 4.2-2.2.4-.1.7-.2 1.1-.2.6 0 1-.3 1.4-.6.3-.2.6-.4 1-.6.3-.2 1 0 1.2.3.1.2.1 1-.1 1.2-.2.3-.5.6-.7.8 0 .1-.1.1-.1.2h.2c.2-.1.4-.2.6-.2.5-.2 1.1-.3 1.7-.1.1 0 .2 0 .2.1.1.1.2.2.2.3-.1 0-.2 0-.3 0-.6 0-1.2.3-1.7.5-.6.2-1.1.4-1.7.6-.5.1-1 .5-1.5.7-.3.1-.6.3-.8.5 0 0-.1.1-.1.1h.1 1.3c.2 0 .2-.1.1-.3-.3-.3-.2-.4.1-.5.6-.2 1.1-.4 1.8-.5.5 0 .9-.1 1.4-.1h.3c.1 0 .1.2.2.2-.1 0-.1.1-.2.1-.9.2-1.7.5-2.6.7-.1 0-.1.1-.2.1.1.1.1.2.2.2.4 0 .8 0 1.2-.1.3 0 .6 0 .9-.1 0 0 .1.1.1.2s-.1.2-.2.2c-.3.1-.6.1-.8.1-.1 0-.2.1-.2.2.1 0 .1 0 .2.1.2.1.4.2.5.3.3.3.5.3.8 0 .5-.4.9-.6 1.5-.3.1 0 .3-.1.4-.1.2 0 .4-.1.6.1.2.3.1.5-.1.8-.1.1-.2.2-.3.3-.1.2-.3.3-.2.7s-.2.9-.5 1.2c-.1.1-.1.2-.1.3.1 0 .2 0 .3-.1.4-.1.8.2.8.6.1.5-.2.9-.3 1.3-.2.7-.6 1.3-1 1.9-.3.4-.6.9-1 1.2-.6.6-1.2 1.2-1.8 1.8-.1.1-.1.2 0 .3.3.3.5.5.7.8s.6.5 1 .6c.9.1 1.3.8 1.8 1.3v.2c-.1 0-.2 0-.2 0-.2-.1-.4-.3-.6-.4-.3-.3-.6-.6-1.1-.7s-1.1-.3-1.4-.9c-.1-.1-.2-.2-.3-.3-.2-.2-.2-.1-.4.1-1.2 1.2-1.8 2.8-2.6 4.2-.2.4-.3.9-.5 1.3-.4.9-1 1.7-1.7 2.5-.3.4-.9.6-1.4.8-.6.2-1 .7-1.4 1-1.1 1.3-2.5 2.2-4 2.9-1.2.6-2.3 1.2-3.4 1.9-.7.5-1.3.9-2.1 1.1-.7.2-1.4.4-2 .7s-1.2.5-1.8.8c-1.4.5-2.8 1-4.2 1.4-.5.2-1 .3-1.5.3-1.2.1-2.4.3-3.6.3-.2 0-.4-.1-.6-.1s-.4 0-.5 0c-.6.1-1.1.1-1.7.2-.2 0-.3 0-.5 0-.4.1-.8-.1-1.2.1-.5-.2-1.1.1-1.6-.1s-1.1 0-1.7.1c-.1 0-.1 0-.2 0-.8 0-1.6.2-2.4.1-.7-.1-1.4.1-2.1-.4-.1-.1-.3-.1-.5-.1-.1 0-.2.1-.2.1.1.4-.3.4-.5.6-.6.5-1.3.7-2 .7-.4 0-.8-.1-1.2-.1-.7-.1-1.3.2-2 .3-.1 0-.3.1-.4.1-.9-.1-1.7-.1-2.6-.4-.6-.2-1.2-.2-1.8-.1-.7 0-1.3-.1-1.9-.3-.4-.1-.7-.5-1.1-.7-.2-.1-.3-.3-.4-.4-.2-.2-.4-.3-.7-.4-.6-.1-1.2-.3-1.7-.4-.6-.1-1-.6-1.2-1-.7-1-1.1-2.1-1.5-3.3-.3-1.1-.5-2.2-.4-3.4.1-.7.2-1.4.5-2.1 0-.1.2-.2.2-.3.2-.2.3-.4.5-.7.1-.1.1-.1.2-.2 0 .1.3.1.1.3-.1.2-.2.5-.1.7.2 1.1-.2 2.1-.2 3.2 0 .8.2 1.5.5 2.2.7.4.8.9 1 1.5m52.7-26.5c-.4.2-.9.4-1.3.6-.1 0-.2.1-.1.3.2.7-.1 1.4-.7 1.8-.7.4-1.4.9-2.1 1.1s-1.4.5-2.1.7c-.3.1-.7.4-1.1.1 0 0-.2 0-.3.1.1.1.2.2.2.2.4.1.8.1 1.2.1.5 0 .8.4.6.9-.2.4-.3.9-.5 1.3v.2c.5.1.9.4 1.5.3.5-.2 1-.3 1.5-.5.6-.2 1.2-.4 1.8-.7.8-.5 1.6-1.1 2.4-1.6 0 0 .1-.1.1-.1-.1 0-.1-.1-.2-.1-.8 0-1.6 0-2.4.3-.5.1-.8.1-1-.3-.1-.2-.2-.4-.2-.6s.2-.2.4-.2c0 0 .1-.1.1-.1.7-.4 1.5-.7 2.2-1.1s1.5-.6 2.3-.9h.2c.1.2 0 1-.3 1.2-.4.3-.8.5-1.2.8-.1 0-.1.1-.2.1.1 0 .1.1.2.1.4.1.8.3 1 .7s.5.3.8.2c.1 0 .1-.1.2-.1 1.1-.6 2.2-1.2 3.3-1.8.1 0 .2-.1.2-.2.1-.1.1-.1.1-.2-.1 0-.2-.1-.3-.1-.8 0-1.6-.1-2.3.3-.1.1-.4.2-.5-.1s.1-.4.3-.5h.4c.1 0 .1-.1.2-.2-.1 0-.1 0-.2-.1-.2-.1-.4-.2-.6-.4-.1-.1-.2-.3-.1-.4s.2-.2.4-.3h.7c.2 0 .4 0 .6-.1 0 0 .1-.1.1-.1s-.1 0-.1-.1c-.5-.3-1 0-1.5-.2-.1 0-.3.2-.5.2-.2.1-.4.3-.5-.1h-.2c-.2.1-.5.3-.7.4-.1 0-.3 0-.4 0 .1-.1.1-.2.2-.3s.3-.2.4-.3c.3-.3.7-.6 1-.9v-.1c-.3-.1-.7-.2-.9-.5 0 0-.1 0-.2 0-.4.3-1.2.6-1.9 1.3m-6.6 6.3c0-.1.3-.1 0-.2-.1 0-.2 0-.4 0-.6.2-1.1.5-1.7.5-.1 0-.2.1-.3.2-.2.2-.4.4-.7.7-.5.4-1 .8-1.4 1.2 0 0-.1.1-.1.1h.2c.6-.3 1.3-.7 1.9-1 .8-.4 1.7-.7 2.2-1.5.1.1.2.1.3 0m-8.2 5.3c-.3.3-.8.5-1.2.4-.4 0-.7 0-1 .3-.1.1-.2.1-.3.1-.4 0-.7.3-1 .4 0 0-.1.1-.1.1h.1c.3 0 .6-.1.9-.1.6-.1 1.1-.2 1.7-.4.4-.1.7-.3 1.1-.4.2-.1.4.1.6-.2-.2-.1-.3-.2-.5-.3-.1.1-.1.1-.3.1m8.1-3.2c-.2 0-.4.1-.6.1 0 0-.1.1-.1.2 0 0 .1.1.1.1.3-.1.7-.2 1-.3.1 0 .1-.3.1-.4-.1.1-.2.1-.3.2-.1-.1-.1 0-.2.1m-4.4 2.5c.1 0 .2-.1.3-.1h.1v-.1c-.2 0-.5-.1-.7.2zm-27.1 19.7c.2 0 .3 0 .5-.1 0 0 0-.1.1-.2-.2.2-.5-.2-.6.3m34.9-29.4h.3c0-.1-.1-.2-.1-.2-.2 0-.5 0-.7 0h-.1s.1.1.1.1c.1.1.3.1.5.1m-4.7 4.5c.1-.1.2-.1.3-.2-.1 0-.2-.1-.3-.1s-.1.1-.2.1c.1.2-.1.4.2.2m-26.2-1c-.1 0-.1.1-.2.1v.1c.1 0 .2-.1.2-.2z"/><path d="m119.2 14.8c-.5.4-.9.7-1.4 1-.3.2-.6.5-.8.7-.4.3-.8.7-1.2 1-.2.1-.4.2-.6.2-.5.2-1 .3-1.4.5s-.7.2-1.1.4c-.2 0-.4.1-.4.2 0 .5-.3.4-.6.4-.1 0-.2 0-.3.1-.6.2-1.1-.2-1.2-.8-.1-.5.1-.9.4-1.2.5-.6 1.1-1.3 1.6-1.9.2-.2.5-.3.7-.5 1.2-.9 2.4-1.6 3.4-2.7.3-.4.6-.8.6-1.3.1-.7.3-1.4.7-1.9.2-.3.4-.7.4-1.1.1-.3.1-.6.3-.8.2-.3.1-.5 0-.7-.2-.3-.1-.6 0-.9.2-.4.3-.7.5-1.1.1-.2.1-.4.4-.2.2.1.4-.2.4-.3.2-.3.3-.6.4-.9v-.1c-.1 0-.1 0-.2 0-.2.2-.4.4-.7.5 0 0-.1.1-.2.1 0-.1-.1-.1-.1-.2s0-.3.1-.3c.3-.3.6-.6 1.1-.6.2 0 .2-.1.2-.2.1-.2.3-.4.4-.6s.3-.3.5-.2c.2 0 .4 0 .4-.3 0-.4.4-.5.6-.5s.6-.3.6.3c0 .2.3.1.4-.1.2-.2.4-.4.6-.6.1-.1.2-.2.4-.2.7-.1 1.4-.1 2.2-.1.1 0 .1 0 .2.1-.1.1-.1.2-.2.2-.3.1-.7.2-1 .3-.5.1-.9.2-1.3.5-.2.2-.4.3-.7.3-.6.1-1.1.3-1.5.7 0 0-.1 0-.2.1 0-.1 0-.2 0-.3s0-.1 0-.2c-.1 0-.1 0-.2 0s-.2.1-.3.2c-.5.5-.9 1-1.1 1.7 0 .2-.1.3-.3.5-.8.7-.9 1.7-1.1 2.6-.2.7-.3 1.5-.5 2.3-.1.4-.4.6-.5 1 0 .2-.1.4.1.5.1 0 .3 0 .4-.1.3-.2.5-.5.7-.8.4-.5.7-.9 1-1.4.1-.2.3-.2.4-.3.1.2.3.3.3.5 0 .4-.1.8-.2 1.3s-.2.9-.2 1.4c0 .2.1.4.3.4.4.1.6.4.6.8v.4c0 .1.1.2.1.3.1 0 .2-.1.2-.1.2-.4.7-.3 1-.4.1 0 .2.1.2.1 0 .1-.1.2-.2.3s-.2.1-.3.1c0 0-.1 0-.1.1 0 0 .1.1.1.1h.3c.5-.4 1.1-.2 1.6-.5 0 0 .1 0 .2-.1.2-.1.4-.2.5.1.1.2-.1.4-.4.4-.1 0-.3.1-.4.2s-.2.2 0 .3c.3.2.3.3.1.6-.2.2-.3.4-.2.7 0 .3-.1.4-.2.6-.3.3-.6.6-.7 1.1s-.5.8-.8 1.1c-.1.1-.2 0-.3 0 0-.1 0-.2 0-.3s0-.1.1-.2c-.1 0-.2 0-.2.1-.1.1-.2.3-.3.4s-.2 0-.3 0c0-.1 0-.2 0-.3.7-.7 1.1-1.5 1.3-2.5 0-.2.1-.4.1-.6s-.2-.4-.3-.4c-.6 0-1.2-.2-1.7.3-.1.1-.3.1-.4.2s-.2.1-.4.2c0-.1-.2.1-.4.3m-1.5-.3c.1 0 .2 0 .2-.1.6-.5 1-1 1.8-1.2.4-.1.4-.6.2-.9-.4-.6-.7-1.1-.5-1.9 0-.1 0-.1 0-.2-.1 0-.1.1-.2.1-.4.4-.9.8-1.5.8-.1 0-.2.2-.3.3-.2.4-.4.8-.6 1.1-.9.9-1.8 1.7-2.7 2.5-.2.2-.4.3-.6.4-.7.4-1.3.8-1.4 1.7 0 .2-.2.4-.2.7 0 .1 0 .3.2.2.6-.3 1.3-.4 1.8-1 .1-.2.4-.3.6-.3.5 0 .8-.2 1.1-.5.1-.1.2-.2.3-.2.7-.4 1.2-1 1.8-1.5m5.3.5c-.2.1-.2.3-.1.4.1-.1.2-.2.2-.3.1-.1.1-.3.1-.4 0-.2.1-.4.2-.5.2-.4.3-.4 0-.6 0 0-.1-.1-.2-.1 0 0-.1.1-.1.2 0 .4-.1.8-.1 1.3m-11.5 2.4c.1-.1.2-.1.3-.2v-.1c-.2.1-.3.2-.3.3z"/><path d="m162.4 42.7c-.7 0-1.4.1-2.1 0-.4 0-.9-.2-1.3-.2-.1 0-.1-.1-.2-.1-.2-.1-.2-.3-.1-.4s.2-.2.4-.2c.7-.1 1.4-.1 2.1-.1.8-.1 1.5-.2 2.3-.4 1.2-.2 2.4-.7 3.6-.9.8-.1 1.6-.4 2.3-.6.6-.1 1.2-.2 1.7-.3.6-.1 1.2-.3 1.7-.4 1.1-.3 2.2-.6 3.3-.9 1-.3 1.9-.5 2.9-.8.6-.1 1.1-.2 1.7-.3.4-.1.8-.2 1.2-.3h.4c.1 0 .1.1.1.1s-.1.1-.1.1c-.7.3-1.4.5-2.2.8-.4.1-.8.3-1.1.5-1 .6-2.2.8-3.4 1.2-.4.1-.8.4-1.3.4-.9.1-1.8.4-2.7.6-1.2.3-2.4.5-3.6.8-.9.2-1.8.4-2.6.7-.7.2-1.3.4-2 .4-.3.1-.6.2-1 .3z"/><path d="m174.1 53.3c1.7-.4 3.4-.7 5-1.1 1.5-.4 3-.7 4.5-1 1.1-.3 2.2-.4 3.2-.7.6-.1 1.1-.3 1.7-.5h.2c.1 0 .3 0 .4.1.1.2.1.4-.2.5-.4.3-.8.6-1.2.8-.9.3-1.7.9-2.7.9-.6 0-1.2.2-1.8.4-.8.2-1.6.4-2.4.6-.9.2-1.8.5-2.7.7-.4.1-.7.2-1.1.2-.8 0-1.5.2-2.2.3s-1.4.1-2.1.3c-.5.2-1-.1-1.3-.5-.1-.2-.1-.3 0-.4s.2-.2.3-.3.2-.1.2.1c0 0 .1.1.2.1.1-.1 1.7-.4 2-.5m1.7.6c0 .1.1.1.1.2 0 0 .1-.1.1-.1 0-.1-.1-.2-.2-.1z"/><path d="m161.2 22.7c-.3.7-.8 1.1-1.4 1.4-.3.1-.6.2-.9.3-.2.1-.4.1-.6-.1s-.2-.4 0-.6c.4-.5.8-.9 1.2-1.4 0-.1.1-.1.1-.2-.1 0-.2 0-.3 0-.7.3-1.5.5-2.2.8-.2.1-.4.1-.6.1s-.4 0-.5-.2.1-.4.2-.6c.9-.8 2-1.2 3.2-1.5.5-.1 1 0 1.5.3.4.2.5.2.6-.2.2-.5.6-.6 1-.8.2-.1.5-.2.8-.3.9-.1 1.8-.3 2.7 0 .3.1.7.5.7.9 0 .5 0 1.1-.3 1.6-.2.4-.5.7-.8 1-.5.4-1 .6-1.6.9-.1.1-.2.1-.3.1-.3 0-.3-.1-.2-.4.2-.7.8-1.3 1.2-1.9.2-.3.2-.7.5-1 .1-.1 0-.2-.2-.2-.5.1-1.1.1-1.6.3s-1.1.2-1.5.6c-.3.2-.4.5-.3.8-.3.1-.3.2-.4.3z"/><path d="m121.3 44.9c-.8-.2-1.6-.5-2.3-1-.2-.1-.2-.3-.3-.4s0-.2 0-.4c.1 0 .2.1.3.1.9.3 1.9.5 2.8.8.5.1 1.1.2 1.7.3.8.1 1.6.2 2.4.3.6.1 1.2 0 1.9.1.8.1 1.6.3 2.4.4.5.1 1 .1 1.5.1 1 .1 2.1.3 3.1.2.6 0 1.2-.1 1.9-.2.4-.1.8-.1 1.3-.1.8-.1 1.6-.1 2.4-.1.2 0 .4-.1.6-.1.1 0 .2.1.4.2-.1.1-.2.2-.3.2-1.6.2-3.1.6-4.6 1-.6.2-1.3.1-1.9.1-.9 0-1.8 0-2.8-.2-.5-.1-1.1-.1-1.6-.1-.3 0-.6-.1-.8-.1-.3 0-.5.1-.8-.1-.1-.1-.2 0-.3 0-1 0-2 0-3-.1-.8-.1-1.6-.2-2.4-.4-.6-.3-1.1-.4-1.6-.5m8.1.5s0 .1 0 0c0 .1 0 .1 0 0z"/><path d="m130.9 58.6c.5 0 1 .1 1.5 0 .8-.1 1.7-.1 2.5-.2.5-.1 1.1 0 1.6 0 1 0 2-.1 2.9-.2s1.8-.3 2.6-.4c.9-.1 1.8-.4 2.6-.5.7-.1 1.5-.2 2.2-.4s1.5-.3 2.2-.6h.2c0 .1 0 .2-.1.2-.1.1-.3.2-.4.2-1.3.4-2.6.8-4 1-.8.1-1.6.4-2.4.6-.6.1-1.1.3-1.8.4-.4 0-.9.2-1.3.2-.3.1-.6.1-1 .1-.8.1-1.7 0-2.5.3h-.1c-1.7 0-3.5.1-5.2.1-.6 0-1.2-.2-1.7-.4-.2-.1-.4-.3-.5-.6 0 0 .2-.3.3-.3.2 0 .3.1.5.1.7.3 1.2.3 1.9.4z"/><path d="m132.8 23.1c-.7 0-1.3 0-1.9-.3-.1 0-.2 0-.3 0s-.1.1-.2.1c0 0 0 .1.1.1.5.3 1 .6 1.6.6.1 0 .2.1.3.1-.1.1-.2.2-.3.3-.9.2-1.5.1-2.3-.5-.2-.2-.3-.2-.4.1s-.1.5 0 .8c0 .1 0 .1-.1.2 0 0-.1 0-.2 0-.2-.2-.6-.4-.3-.8-.1-.4.3-.8 0-1.3-.1-.2.5-.8.7-.8.8 0 1.7.1 2.5.2.9.1 1.8.1 2.8-.2.7-.2 1.4-.4 2.1-.8.4-.3.7 0 1 .1s.5.4.4.7c0 .3.1.5.3.7.1.1.2.3.1.4s-.3.2-.5.2-.4-.1-.5-.3c-.3-.3-.5-.3-1-.2-.8.1-1.5.6-2.4.4-.4.2-.8.1-1.2.1.2.2 0 .1-.3.1z"/><path d="m120.8 7.6c-.3 0-.3-.1-.2-.3.4-.5.7-.9 1.1-1.4.2-.2.4-.5.8-.6.1 0 .2-.3.3-.4.1-.2.1-.4.2-.5.3-.2.5-.5 1-.5.6 0 1.1-.3 1.6-.5.4-.7.9-.3 1.3-.1.2.1.3.1.5 0 .4-.1.8 0 1.2.1 0 0 .1.2.1.2-.2.1-.4.2-.5.1-.3-.2-.5-.1-.6.1 0 0-.1.1-.1.1-.1.1-.2.1-.3.2.1.1.3.2.4.3s.3.1.5.1c.1 0 .2.1.2.2-.1.1-.2.2-.3.1-.2 0-.5-.2-.7-.2-.1 0-.3-.1-.5-.1-.1 0-.3-.1-.3.2 0 .1 0 .3.2.2h.2c.1.1.2.1.2.2s-.1.3-.1.3c-1 .2-1.5 1.1-2.4 1.4-.4.1-.8 0-1.1-.2-.4-.2-.3-.7-.3-1 0-.2.1-.2-.1-.2s-.3.1-.5.3c-.6.7-1.1 1.3-1.8 1.9m3.3-1.2c-.1 0-.2-.1-.3-.1s-.1 0-.2.1c.1 0 .1.1.2.1s.2 0 .3-.1z"/><path d="m181.5 40.2c-.8.5-1.5 1-2.2 1.5-.6.4-1.3.7-1.9 1-.5.2-.9.5-1.4.7-.4.2-.7.3-1.1.3s-.7.1-1.1.1c-.4.1-.8-.1-1.1-.3-.2-.1-.2-.4-.2-.6.1-.2.3-.2.5-.2.6 0 1.1-.2 1.7-.4 1.6-.7 3.2-1.5 4.9-2.1.7-.3 1.5-.5 2.2-.7h.1c.2 0 .5-.1.5.2 0 .1-.2.2-.3.3-.4 0-.5.1-.6.2z"/><path d="m171.9 19.4c-.9.8-1.9 1.2-2.9 1.6-.2.1-.4 0-.5-.2-.1-.1.1-.2.2-.4.9-.8 1.7-1.7 2.5-2.5.1-.1.1-.2.2-.3-.1 0-.2.1-.3.1-.3 0-.6.1-1 .1-.6.1-1.3.2-1.9.4-.5.1-.9.3-1.4.2-.3 0-.5.1-.7.3-.1.1-.2.3-.3.3-.2-.1-.3-.3-.2-.5.2-.5.6-.8 1.1-1 1.1-.3 2.1-.6 3.2-.8.7-.1 1.3-.1 2 .1 1 .4.9 1.2.4 2 0 .3-.2.4-.4.6m-1.7-2.1c-.1 0-.1 0 0 0z"/><path d="m125.7 50.2c-1 .1-1.9-.3-2.8-.5-.1 0-.2-.1-.3-.2-.3-.2-.2-.4.1-.6.1-.1.3-.1.4-.1 1.2.3 2.5.3 3.7.2.8 0 1.6-.2 2.4-.2.7-.1 1.3-.2 2-.3s1.4-.3 2.1-.5h.2c.1 0 .2.1.3.1-.1.1-.1.2-.2.2-.5.4-1.2.5-1.8.8-.4.2-.7.4-1.1.5-.7.2-1.3.2-2 .4-.8.2-1.5.3-2.3.2-.2.2-.4.1-.7 0m2-.4c.1 0 .1 0 0 0z"/><path d="m116.4 22.3c.4-.5.6-1 1-1.4.6-.6 1.1-1.3 1.9-1.6.3-.2.4-.5.6-.8s.3-.8.7-1c.2-.1.3 0 .4.1s.3.2.1.4c-.1.1-.2.3-.3.4v.2h.2c.4-.4.9-.7 1.3-1.1.1-.1.2-.3.4-.4.3-.2.4-.1.5.2.1.7-.4.9-.8 1.2s-.9.4-1.4.5c-.1 0-.3.1-.4.1-.9.8-2 1.4-2.6 2.5-.7 1-1.4 2-2 3-.3.5-.5 1-.7 1.5-.1.2-.3.4-.5.6 0 .1-.2.1-.2 0-.1 0-.2-.2-.1-.2.2-.8.4-1.7.9-2.5.1-.6.5-1.1 1-1.7z"/><path d="m183.7 40.9c.4-.2.8-.4 1.2-.6.2-.1.5-.1.6-.1.2.2 0 .5-.2.6-.6.7-1.3 1.2-2 1.7-.4.3-.8.6-1.3.8-.6.2-1.1.5-1.7.5-.2 0-.5.1-.7.1-.3 0-.6-.1-.7-.4-.1-.1 0-.3 0-.4 0-.2.1-.3.3-.2.4.1.8-.1 1.1-.3 1.1-.4 2-1.1 3-1.7.2.1.3.1.4 0z"/><path d="m182.3 33.1c.5.3.5.3.1.6-.7.6-1.5 1.1-2.5 1.3-.9.2-1.8.5-2.8.4-.6-.1-1.3-.1-1.8-.5-.1-.1-.2-.2-.3-.3.1-.1.2-.2.4-.2.1 0 .2-.1.4-.1.9-.1 1.7-.1 2.6-.3s1.8-.4 2.8-.7c.2 0 .3-.1.5-.1.1 0 .3 0 .6-.1z"/><path d="m155.6 26.3c-.7 0-1.3.1-2 .1-.4 0-.8-.1-1-.4s-.1-.5.2-.6c.7-.2 1.4-.1 2.2-.1.5 0 1 .1 1.4.4.4.2.5.5.3 1-.3.7-.9.9-1.5 1-.5.1-1 .1-1.5.2-.1 0-.2 0-.2 0-.1-.1-.1-.2-.2-.2.1 0 .1-.1.2-.1.7-.1 1.4-.5 2-.9.1-.2.1-.3.1-.4z"/><path d="m169.3 22.6c-.2-.2-.4-.3-.1-.5.6-.4 1.8-.5 2.3.2.2.3.3.5.1.7s-.4.4-.6.5c-.4.2-.9.3-1.4.4-.1 0-.3-.1-.4-.2.1-.1.1-.3.2-.3.3-.2.5-.4.8-.6.1 0 .1-.1.1-.2-.1 0-.2-.1-.2-.1-.2.2-.5.3-.8.1z"/><path d="m135 28.6c-.4.1-.7.2-1 .1-.6 0-.9-.6-.6-1.2.2-.3.3-.6.5-.9.3-.4 1.4-.3 1.6.2 0 .1 0 .3-.1.4-.2.2-.5.5-.8.7 0 0-.1.1-.1.2.1 0 .1-.1.2-.1h.2c.2 0 .4 0 .5.2 0 .2-.2.3-.4.4z"/><path d="m136.7 48.2c.6-.1 1.1-.1 1.6-.3h.3c.1 0 .1.1.1.1s-.1.1-.1.1c-.8.5-1.6.8-2.5 1.1-.5.2-1.1 0-1.7-.2-.3-.1-.4-.3-.4-.5s.4-.4.7-.3c.7.4 1.3.3 2 0z"/><path d="m138.4 49.7c-.1-.3.1-.5.4-.5.8 0 1.5-.2 2.3-.4.6-.1 1.1-.2 1.7-.4h.1c.2 0 .4 0 .5.2-.1.1-.3.2-.4.2-.6.2-1.2.5-1.8.7-.7.2-1.4.5-2.2.5-.3 0-.4-.1-.6-.3z"/><path d="m139.4 25.9c.3-.3.1-.6.1-.9 0 0-.1-.1-.2-.1-.3 0-.6 0-.9 0-.1 0-.2 0-.4 0-.1 0-.2-.1-.3-.1.1-.1.1-.2.2-.2.7-.5 1.7-.7 2.3.1.3.4.4 1 0 1.4-.1.1-.3.2-.4.3-.2.1-.4 0-.5-.2 0-.2 0-.2.1-.3z"/><path d="m143 25.9c.1.8-.4 1.2-.9 1.5-.4.2-.7 0-.7-.5 0-.2 0-.4.1-.6.2-.3.3-.5-.1-.7v-.2c.2-.1.5-.3.6-.3.5.1.9.2 1 .8z"/><path d="m145.7 25.8c.3.2.4.5.2.8-.3.3-.5.7-1.1.7-.3 0-.5-.2-.3-.5 0 0 .1-.1.1-.1.1-.2.2-.3.3-.5-.2-.1-.3-.1-.5-.2-.1-.1-.1-.2-.2-.2.1-.1.1-.1.2-.1.5-.3.9-.1 1.3.1z"/><path d="m130.6 20.7c0-.3-.3-.5 0-.7.2-.1.5-.2.7-.4.1.2.2.4.2.6.1.1.1.3.1.5 0 .3.1.4.4.4h.2c.1 0 .2.1.3.2-.1.1-.2.2-.3.3-.8.2-1.3-.1-1.6-.9z"/><path d="m133.8 25.5c.5-.5 1-.7 1.6-.4.1.1.3.2.4.3s.2.3.2.4c-.1.2-.3 0-.4 0-.4 0-.9-.2-1.1.4 0 0-.1.1-.1.1-.2 0-.4 0-.4-.1-.2-.2-.5-.4-.2-.7z"/><path d="m125.3 1.5c-.2 0-.4.1-.4-.2 0-.2 0-.4.2-.5s.3-.1.5-.1c.5 0 1 0 1.4-.2.1 0 .3.1.4.1.1.2.1.4 0 .5 0 0-.2.1-.3.1-.4-.1-.7.1-1 .1-.3.1-.5.2-.8.2z"/><path d="m124 22.6c.6.4 1.2.7 1.9.8.1 0 .2.1.2.2-.1.1-.1.2-.2.2-.2.1-.4.1-.6.1-.6 0-1.1-.3-1.5-.7-.3-.3-.2-.4.2-.6z"/><path d="m153.1 24.6c-.3.1-.5.2-.7.2-.4.1-.7 0-.9-.3s-.1-.5.3-.5.9-.2 1.3 0c.1 0 .1.1.2.1.3 0 .2.3.3.4-.2 0-.3.1-.5.1z"/><path d="m124 26.3h.4c.1 0 .1.2.1.2-.1.1-.3.3-.4.3-.5.1-1 0-1.4-.3-.1-.1-.1-.2-.2-.3-.1-.2 0-.5.2-.4s.5.1.6.3c.2.2.4.2.7.2z"/><path d="m164.1 25.7c.1-.1.1-.2.2-.2s.2 0 .3-.1c0 .1 0 .2-.1.3-.3.4-.7.8-1 1.2-.2.2-.4-.1-.6-.2-.1-.1-.1-.2-.2-.3.1 0 .2 0 .3-.1.5-.2.8-.4 1.1-.6z"/><path d="m123.9 24.4c.5-.1.7.3 1 .6 0 0 0 .2-.1.2-.2 0-.5 0-.6 0-.2-.1-.3-.3-.5-.5 0-.1.1-.2.2-.3z"/><path d="m123.4 11.9c-.2.1-.4.2-.5.2s-.2-.1-.3-.1c.1-.1.1-.3.2-.3.3-.1.5-.2.8-.3.1 0 .2 0 .3.1 0 .1.1.3-.2.3-.2 0-.2.1-.3.1z"/><path d="m118.3 11.9c.2.1.3.2.5.3v.3c-.2.2-.5.4-.7.6-.1.1-.4.1-.5 0s-.1-.3-.1-.5c.1-.5.3-.7.8-.7z"/></svg>