<?xml version="1.0" encoding="utf-8"?>
<!-- Generator: Adobe Illustrator 26.2.1, SVG Export Plug-In . SVG Version: 6.00 Build 0)  -->
<svg version="1.1" id="Layer_1" xmlns="http://www.w3.org/2000/svg" xmlns:xlink="http://www.w3.org/1999/xlink" x="0px" y="0px"
	 viewBox="0 0 189.1 100.8" style="enable-background:new 0 0 189.1 100.8;" xml:space="preserve">
<style type="text/css">
	.st0{fill:#000;}
</style>
<g>
	<g>
		<path class="st0" d="M66,70.8c-1.1-0.3-2-0.6-3-0.9c-0.5-0.1-1-0.1-1.5-0.2c-0.5-0.1-1-0.2-1.5-0.3c-0.6-0.2-1.2-0.3-1.8-0.3
			c-0.3,0-0.6-0.1-0.9-0.2c-0.1-0.1-0.2-0.3-0.3-0.4c0.2-0.1,0.3-0.2,0.5-0.2c0.4,0,0.8,0,1.2,0c0.8-0.1,1.5,0.3,2.3,0.4
			c0.4,0.1,0.9,0.2,1.3,0.2c1.1,0.1,2.1,0.4,3.2,0.6c0.4,0.1,0.7,0.2,1.1,0.3c0.8,0.1,1.6,0.3,2.4,0.4c0.7,0.1,1.4,0.2,2,0.3
			c0.8,0.1,1.5,0.4,2.3,0.4c1.4,0.1,2.9,0.1,4.3,0c0.8-0.1,1.7-0.3,2.5-0.4c0.8-0.1,1.5-0.1,2.3-0.1c0.1,0,0.3,0,0.4,0
			c0.1,0,0.2,0.1,0.3,0.2c-0.1,0.1-0.2,0.2-0.3,0.2c-0.2,0.1-0.4,0.2-0.5,0.2c-0.1,0-0.2,0.1-0.3,0.1c0.1,0.1,0.2,0.2,0.4,0.2
			c0.8,0.1,1.4-0.2,2-0.7c0.8-0.8,1.5-1.8,2.2-2.8c0,0,0-0.1,0.1-0.1c0.2-0.1,0.2-0.5,0.5-0.3c0.1,0.1,0.3,0.6,0.2,0.8
			c-0.1,0.2-0.1,0.4-0.2,0.6c0,0.1,0,0.1,0,0.2c0,0,0.1,0,0.1-0.1c0.7-0.7,1.6-1.1,2.4-1.7c0.2-0.2,0.4-0.3,0.6-0.4
			c0.1-0.1,0.2-0.2,0.2-0.3c-0.1,0-0.3,0-0.4,0.1c-0.4,0.3-0.8,0.5-1.3,0.8c-0.3,0.2-0.5,0.4-0.8,0.5c-0.2,0.1-0.4,0.1-0.5-0.2
			c-0.2-0.4-0.1-0.6,0.2-0.9c0.1-0.1,0.1-0.1,0.2-0.2c0.1-0.1,0.2-0.2,0.3-0.4c-0.2-0.1-0.4,0-0.5,0.2c-0.3,0.3-0.5,0.6-0.9,0.1
			c0-0.1-0.2,0-0.3,0c-1,0-1.9-0.2-2.9-0.4c-0.1,0-0.2,0-0.3,0c0,0-0.1,0-0.1,0c0,0,0.1,0.1,0.1,0.1c0.2,0.1,0.3,0.3,0.3,0.5
			c-0.1,0.2-0.3,0.2-0.5,0.2c-0.3,0-0.5,0-0.6-0.2c-0.2-0.3-0.5-0.3-0.8-0.4c-0.4,0-0.8-0.1-1.2-0.3c-1-0.4-1.9-0.9-2.9-1.4
			c-0.9-0.5-1.7-0.9-2.5-1.5c-0.9-0.7-1.9-1.1-3-1.4c-1.3-0.3-2.5-0.7-3.8-0.9c-0.7-0.1-1.4-0.4-2.1-0.5c-0.4-0.1-0.7-0.1-1.1-0.2
			c-1-0.1-1.9-0.2-2.9-0.3c-0.4,0-0.8,0.2-1.1,0.1c-0.6-0.2-1.2-0.1-1.8-0.1c-0.2,0-0.3,0-0.5,0c-1.6,0.1-3.1-0.3-4.5-0.7
			c-0.9-0.3-1.7-0.5-2.7-0.6c-1.1-0.2-2.3,0-3.4-0.1c-0.7,0-1.4-0.1-2-0.1c-1.6,0-3.2,0.5-4.7,1c-0.3,0.1-0.5,0.4-0.8,0.6
			c-0.3,0.2-0.7,0.4-1.1,0.6c-0.2,0.1-0.4,0.1-0.5,0.2c-0.9,0.9-1.9,1.7-3,2.4c0,0-0.1,0.1-0.1,0.1c-0.2,0.2-0.3,0.3-0.5,0.5
			c0.2,0,0.4-0.1,0.6-0.1c0.3,0,0.6-0.1,0.5,0.4c0,0.3,0.1,0.6,0.1,0.9c0.1,0.2,0.2,0.4,0.3,0.6c0.1,0.1,0.1,0.2-0.1,0.4
			c-0.3,0.2-0.5,0.1-0.6-0.1c-0.3-0.2-0.5-0.1-0.8,0.1c-0.9,0.7-1.5,1.6-2.1,2.6c-0.4,0.7-0.5,1.5-0.8,2.2c-0.4,1,0.1,1.9,0.2,2.8
			c0,0,0.1,0.1,0.1,0.1c0,0.1,0,0.2,0,0.3c-0.1,0-0.2,0-0.3-0.1c-0.5-0.4-0.7-0.9-0.8-1.5c-0.4-1.5,0-2.9,0.8-4.2
			c0.5-0.8,1.1-1.4,1.2-2.4c0.1-0.5,0.2-0.9,0.2-1.4c0-0.1-0.2-0.2-0.3-0.3c-0.1-0.1-0.3-0.2-0.4-0.3c-0.4-0.4-0.4-0.7,0.1-1
			c0.1-0.1,0.1-0.2,0.2-0.3c-0.1,0-0.2,0-0.3,0c-0.5,0-1,0.1-1.6,0.1c-0.1,0-0.2-0.1-0.3-0.2c-0.2-0.2,0-0.3,0.1-0.3
			c0.3-0.1,0.6-0.1,0.8-0.1c0.1,0,0.3,0.1,0.4,0.1c0.8,0,0.8,0,1.2-0.8c0.1-0.3,0.3-0.5,0.5-0.7c0.1-0.2,0.2-0.3,0.3-0.5
			c0-0.1,0-0.2,0-0.2c-0.1,0-0.1,0.1-0.2,0.1c-0.4,0.3-0.8,0.4-1.3,0.4c-0.3,0-0.7,0-1,0c-0.8,0.1-1.6-0.2-2.3-0.3
			c-0.2,0-0.4-0.1-0.5-0.1c-1.2,0.1-2.3-0.3-3.4-0.6c-0.4-0.1-0.8-0.2-1.2-0.4c-0.2-0.1-0.3-0.1-0.5-0.2c-0.6-0.3-0.6-0.4-1,0.1
			c-1.2,1.2-2.3,2.5-3.3,3.9c-0.3,0.4-0.6,0.9-1.2,1.1c-0.1,0-0.3,0.2-0.4,0.3c-0.4,1-1,1.8-1.3,2.8c-0.2,0.7-0.5,1.4-0.8,2.1
			c-0.2,0.5-0.3,1.1-0.4,1.6c-0.1,0.8-0.1,1.7-0.1,2.5c0,0.5,0.1,0.9,0.1,1.4c0.1,0.7,0.3,1.4,0.4,2.1c0.2,0.7,0.4,1.3,0.6,1.9
			c0.1,0.2,0.2,0.4,0.3,0.6c0.1,0.1,0.2,0.3,0.2,0.4c0,0.9,0.8,1.3,1.3,1.9c0.1,0.1,0.2,0.1,0.2,0.1c1.1,0,2.2,0.4,3.3,0.5
			c1,0,2,0.4,3,0.6c0.4,0.1,0.8,0.2,1.1,0.2c0.9,0,1.6,0.5,2.4,0.7c0.6,0.2,1.3,0.5,1.9,0.5c1.1,0,2.2,0.2,3.4,0.4
			c0.5,0.1,1.1,0,1.6,0.1c2.5,0.5,5.1,0.2,7.6,0.3c0.1,0,0.2,0,0.3,0c0,0,0.1,0.1,0.1,0.1c0,0-0.1,0.1-0.1,0.1c-0.1,0-0.3,0-0.4,0
			c-0.1,0-0.1,0.1-0.2,0.2c0.1,0,0.1,0.1,0.2,0.1c0,0,0,0,0.1,0c1.8,0,3.6,0.2,5.4,0.1c3.8-0.2,7.6,0,11.5-0.1
			c0.3,0,0.5,0.1,0.8,0.1c0.1,0,0.3,0,0.4,0c0.2,0,0.5-0.2,0.7-0.1c0.5,0.1,0.9,0,1.4,0c0.9-0.1,1.9-0.1,2.8-0.2c0.1,0,0.1,0,0.2,0
			c-0.1,0-0.1-0.1-0.2-0.1c-0.1-0.1-0.3-0.2-0.4-0.3c-0.1-0.1-0.4-0.3-0.4-0.3c0.1-0.2,0.2-0.5,0.6-0.4c0.2,0,0.5,0,0.7,0
			c0.7,0,1.4,0.2,2.1,0.3c0.9,0.1,1.9,0.1,2.8-0.1c0.6-0.1,1.2-0.2,1.8-0.3c0.9-0.2,1.9-0.4,2.8-0.3c0,0,0.1,0,0.1,0
			c0.1,0,0.2,0.1,0.3,0.1c0,0.1,0.1,0.2-0.2,0.3c-0.5,0.1-0.9,0.4-1.4,0.6c-0.1,0-0.1,0-0.2,0.1c0.1,0.1,0.1,0.2,0.2,0.2
			c0.1,0,0.2,0.1,0.2,0c0.4-0.4,0.8,0,1.3,0c0.4,0,0.7,0.3,0.9,0.7c0.2,0.3-0.3,0.9-0.7,0.9c-1.4,0.2-2.9,0.1-4.4,0.2
			c-1,0.1-2,0-3,0.3c-0.2,0-0.3,0-0.5,0c-1.4,0-2.8,0-4.1,0c-0.1,0-0.2,0-0.3,0.1c0.1,0.1,0.1,0.2,0.2,0.2c0.1,0,0.2,0,0.4,0
			c4.4,0.2,8.8,0.1,13.2,0.1c1.3,0,2.7,0,4-0.2c1.7-0.2,3.4,0,5.2-0.1c0.2,0,0.4-0.1,0.6,0c0.2,0,0.3,0.1,0.5,0.1
			c-0.1,0.1-0.2,0.3-0.3,0.4c-0.6,0.2-1.2,0.4-1.8,0.5c-1.7,0.3-3.4,0.1-5.1,0.1C79.9,88,78.4,88,76.8,88c-0.8,0-1.7-0.1-2.5-0.3
			c-0.4-0.1-0.8,0-1.2,0c-1.3,0-2.7,0-4-0.2c-0.6-0.1-1.3-0.1-1.9-0.1c-1,0-2,0-2.9-0.2c-0.7-0.1-1.4,0-2.1-0.1
			c-1.7-0.3-3.4,0-5.2-0.2c-2.5-0.2-5.1-0.1-7.6-0.1c-0.9,0-1.8,0-2.7,0.1c-1.2,0.1-2.4,0.2-3.6,0.3c-1.1,0.1-2.2-0.1-3.2,0.2
			c-1.6,0.3-3.1,0.2-4.7,0.3c-0.2,0-0.5-0.1-0.8,0.1c-0.1,0.1-0.5,0-0.7,0c-0.8-0.2-1.6,0.2-2.4-0.1c-0.1-0.1-0.3,0-0.5,0
			c-1.8,0-3.6,0-5.4,0c-0.7,0-1.4-0.3-1.9-0.7c-0.1-0.1-0.2-0.2-0.2-0.3c0-0.1,0.2-0.2,0.3-0.2c0.7,0.1,1.5-0.1,2.2,0.1
			c0.5,0.1,1,0,1.5,0c0.2,0,0.3,0,0.5,0.1c0.1,0,0.2,0.2,0,0.2c0,0,0,0.1,0,0.1c0.1,0,0.2,0,0.4,0c3.5,0,7,0.1,10.5,0
			c1.9-0.1,3.8,0,5.7-0.1c0.8-0.1,1.6-0.1,2.4-0.1c0.1,0,0.1-0.1,0.2-0.1c0,0-0.1,0-0.1-0.1c-0.3-0.1-0.5-0.1-0.8-0.1
			c-0.7,0-1.4,0-2.1,0c-0.8,0-1.4-0.3-2-0.8c-0.3-0.3-0.5-0.4-1-0.3c-0.9,0.3-1.9,0.4-2.8,0.3c-0.4,0-0.8-0.1-1.1,0.1
			c-0.5-0.2-1.1-0.1-1.7-0.2c-0.6-0.1-1.1-0.2-1.7-0.3c-0.9-0.1-1.8-0.1-2.8-0.2c-0.5,0-0.9-0.2-1.4-0.3c-0.7-0.2-1.3-0.4-2-0.4
			c-1.1,0-2.1-0.1-3.2-0.1c-0.6,0-1.2-0.2-1.8-0.3c-0.1,0-0.2,0-0.4,0c-0.5,0-2.4-0.1-2.8-0.2c-0.1,0-0.2-0.1-0.3-0.1
			c-1.1-0.1-2.3-0.1-3.4-0.1c-0.4,0-0.7-0.2-1-0.5c-0.3-0.2-0.2-0.5-0.2-0.8c0.1-0.2,0.3-0.2,0.6-0.2c0.8,0,1.4-0.3,2.2-0.6
			c0.2-0.1,0.1-0.1,0-0.2c-0.3-0.4-0.7-0.8-1-1.2c-0.5-0.5-0.7-1.2-0.9-1.9c-0.2-0.9-0.4-1.7-0.7-2.6c-0.3-0.8-0.5-1.7-0.5-2.6
			c0-0.6-0.1-1.1,0-1.7c0.1-1.2,0.3-2.4,0.8-3.5c0.5-1.1,0.9-2.1,1.5-3.2c0.6-1.2,1.4-2.4,2.3-3.5c0.4-0.4,0.8-0.9,1.2-1.3
			c0.9-0.9,1.9-1.8,2.8-2.7c0.7-0.7,1.3-1.5,2-2.3c0.2-0.2,0.2-0.5,0.3-0.8c0.1-0.2,0.4-0.4,0.6-0.6c0.5-1.1,1.2-2.1,1.4-3.3
			c0.2-0.8,0.4-1.6,0.6-2.4c0.1-0.4,0-0.9-0.1-1.4c0-0.1-0.2-0.3-0.4-0.4c-0.7-0.1-1.3-0.3-2-0.3c-0.5,0-1.1,0.2-1.6,0.3
			c-0.2,0-0.4,0.1-0.5,0c-0.5-0.3-1-0.1-1.5,0.2c-0.6,0.3-1.3,0.4-2,0.6c-1,0.3-2,0.5-3,0.7c-0.6,0.1-1.2,0.2-1.8,0.3
			c-0.5,0.1-1.1,0.3-1.6,0.6C12.8,48.9,12.5,49,12,49c-0.4,0-0.8,0-1.2,0c-0.4,0-0.7-0.2-0.8-0.6c-0.1-0.2,0.3-0.7,0.5-0.9
			c1.3-0.8,2.5-1.6,3.8-2.4c0.8-0.5,1.7-1,2.5-1.5c1-0.6,1.9-1.4,2.9-2c0.2-0.1,0.2-0.2,0.1-0.3c-0.4-0.3-0.2-0.5,0.1-0.7
			c0.7-0.6,1.3-1.2,1.8-2c0.5-0.8,1.3-1.5,1.8-2.3c0.7-1,1.7-1.8,2.7-2.5c1.1-0.7,2.2-1.4,3.5-1.7c0.7-0.2,1.4-0.4,2.2-0.4
			c1.1,0,2.2,0.2,3.2,0.9c0.6,0.4,1.3,0.6,1.9,0.9c0.6,0.3,1.3,0.5,1.8,0.9c0.4,0.4,0.7,0.9,1,1.4c0.7,1.1,1,2.3,1.4,3.5
			c0,0.1,0,0.2,0,0.4c0,0.6,0.1,1.2,0.3,1.8c0.1,0.2-0.1,0.4-0.1,0.7c-0.1,0.7-0.1,1.4-0.2,2.1c0,0.2-0.1,0.4-0.1,0.6
			c-0.6,1.3-0.7,2.6-1,3.9c-0.2,0.6-0.4,1.2-0.6,1.9c-0.2,0.6-0.5,1.2-0.7,1.7c-0.1,0.2-0.2,0.5-0.3,0.7c-0.1,0.1-0.2,0.3-0.2,0.4
			c0,0.6,0,1.2-0.2,1.7c0,0,0,0.1,0.1,0.1c0.1,0,0.2,0,0.2,0c0.6-0.6,1.4-0.7,2.2-0.6c1.3,0.1,2.7,0.1,4,0.2c0.4,0,0.8,0.1,1.1,0.4
			c0.6,0.4,1.2,0.4,1.9,0.2c0.1,0,0.2-0.1,0.2-0.1c0.7-0.1,1.5,0,2.2-0.2c0.6-0.1,1.3,0,1.9-0.3c0.1-0.1,0.3,0,0.4,0
			c0.8,0,1.5,0,2.3,0c0.9,0,1.8-0.1,2.7-0.1c1-0.1,1.9,0.2,2.8,0.5c2.3,0.7,4.4,1.7,6.5,2.8c0.6,0.3,1.2,0.7,1.8,1
			c1.1,0.6,2.4,0.9,3.6,1.3c0.3,0.1,0.6,0.2,0.9,0.3c0.1,0,0.3,0.1,0.3,0.2c0.1,0.4,0.5,0.5,0.8,0.6c0.9,0.3,1.7,0.9,2.6,1.4
			c0.5,0.3,0.9,0.5,1.4,0.8c0,0,0.1,0,0.1,0c0-0.1,0-0.1,0-0.2c-0.5-0.5-0.9-1-1.5-1.2c-0.8-0.4-1.6-0.9-2.5-1.1
			c-0.1,0-0.3-0.1-0.3-0.2c-0.1-0.1-0.4-0.3-0.3-0.5c0.1-0.1,0.3-0.1,0.5-0.1c0.6-0.1,1.2,0.2,1.8,0.4c0.9,0.4,1.7,0.8,2.4,1.3
			c0.4,0.3,0.7,0.8,1.1,1.2c0.4,0.4,0.8,0.8,1.3,1.1c0.7,0.5,1.5,0.4,2.2,0.6c1.1,0.2,2.1,0.4,3.2,0.4c0.5,0,1-0.2,1.5-0.3
			c0.2-0.1,0.4-0.2,0.5-0.4c0.3-0.6,0.8-0.7,1.4-0.7c0.6,0,1.3-0.1,1.9,0.3c0.3,0.1,0.5,0.2,0.6,0.5c0.2,0.3,0.3,0.5,0.7,0.3
			c0.2-0.1,0.6,0,0.9,0.1c0.6,0.2,0.6,0.5,0.2,0.9c-0.5,0.4-1.1,0.7-1.6,1c-1,0.6-2,1.3-3.1,1.9c-0.5,0.3-1,0.6-1.5,0.8
			c-0.3,0.2-0.6,0.3-0.7,0.7c-0.1,0.3-0.4,0.5-0.5,0.7c-0.6,0.7-0.6,0.7,0.2,1.1c0.3,0.1,0.6,0.2,0.9,0.3c0.6,0.1,0.8,0.2,0.8,0.8
			c0,0.2,0.1,0.3,0.3,0.4c0.6,0.3,0.9,0.9,1.3,1.4c0.2,0.2,0.1,0.6-0.2,0.8c-0.2,0.1-0.7,0.1-0.7-0.2c-0.1-0.8-0.8-0.8-1.2-1.2
			c-0.8-0.7-1.8-1.2-2.7-1.8c-0.2-0.2-0.4-0.2-0.7-0.2c-0.1,0-0.2,0-0.3,0.1c0.1,0.1,0.1,0.1,0.2,0.2c0.1,0.1,0.1,0.3,0.2,0.4
			c-0.2,0.1-0.3,0.2-0.5,0.2c-0.7,0-1.4-0.1-1.5-0.9c0-0.1-0.2-0.3-0.4,0c-0.3,0.4-0.7,0.8-1.2,0.9c-0.5,0.2-1.2,0-1.5-0.5
			c-0.2-0.3-0.1-0.5,0.2-0.4c0.6,0.1,1.2-0.2,1.8-0.3c0.1,0,0.1-0.1,0.2-0.1c-0.1-0.1-0.1-0.3-0.2-0.3c-0.2,0-0.5-0.1-0.7,0
			c-1.3,0.5-2.6,0.7-3.9,0.7c-0.5,0-1,0-1.4,0c-1.2,0-2.3-0.1-3.4-0.4c-1.1-0.2-2.2-0.6-3.3-0.6c-0.6,0-1.2-0.2-1.8-0.3
			C66.2,70.9,66.2,70.9,66,70.8 M30.1,55.8c-0.2,0.1-0.4,0.2-0.6,0.3c-0.2,0.1-0.5,0.1-0.5,0.2c0,0.4,0.4,0.1,0.5,0.2
			c1.1,0.5,2.4,0.8,3.6,1c0.4,0.1,0.9,0.3,1.3,0.2c0.5-0.1,0.6-0.7,0.8-1c0.1-0.1,0.2-0.2-0.1-0.2c-0.3,0-0.4-0.1-0.4-0.4
			c0-0.7,0.2-1.4,0.7-2c0.2-0.2,0.3-0.4,0.7-0.2c0.4,0.2,0.2-0.4,0.4-0.4c0-0.1,0-0.2-0.1-0.2c-0.6-0.4-0.4-1-0.3-1.5
			c0.1-0.3,0.4-0.4,0.7-0.1c0.2,0.2,0.2,0.4,0.2,0.6c0,0.1,0.1,0.1,0.1,0.2c0.1-0.1,0.1-0.1,0.1-0.2c0.1-0.5,0.6-1-0.1-1.5
			c0,0,0-0.1,0-0.1c-0.3-0.6-0.3-0.7-0.2-0.8c0.4-0.3,0.6,0,0.8,0.2c0.1,0,0.1,0.1,0.2,0.1c0-0.1,0.1-0.2,0-0.2
			c-0.2-0.4,0-0.9,0-1.3c0-0.3,0.1-0.7,0.4-0.9c0.1-0.1,0.2-0.2,0.2-0.3c-0.1-0.5,0.4-0.8,0.4-1.3c0-0.5,0.1-0.9,0.6-1.1
			c0,0,0-0.1,0-0.1c0.1-0.9,0.4-1.9,0.4-2.8c0-0.8-0.1-1.6-0.1-2.4c0-0.3,0-0.7-0.2-0.9c-0.5-0.9-0.7-2-1.4-2.8
			c-0.4-0.6-0.8-1.1-1.5-1.4c-0.3-0.1-0.6-0.2-0.9-0.3c-0.8-0.4-1.5-0.8-2.3-1.2c-0.1-0.1-0.3-0.2-0.4-0.1c-0.7,0.1-1.5-0.3-2.2,0
			c-0.3,0.1-0.7,0.2-1,0.3c-0.6,0.1-1.2,0.2-1.7,0.4c-0.3,0.2-0.6,0.4-1,0.6c-0.9,0.4-1.7,1-2.3,1.7c-0.6,0.5-1.1,1.1-1.6,1.7
			c-0.5,0.5-0.9,1.1-1.3,1.7c-0.1,0.1-0.1,0.3-0.2,0.4c0.2-0.1,0.4-0.1,0.5-0.3c0.1-0.1,0.1-0.2,0.2-0.3c0.2-0.3,0.3-0.5,0.5-0.7
			c0-0.1,0.2-0.1,0.2-0.1c0,0.1,0.1,0.1,0.1,0.2c0,0.2-0.1,0.4-0.1,0.7c0,0.1,0.1,0.2,0.1,0.3c0.1-0.1,0.1-0.1,0.2-0.2
			c0.1-0.2,0.2-0.4,0.3-0.6c0,0,0.2,0,0.2,0c0.1,0,0.1,0.2,0.1,0.2c-0.2,0.3-0.1,0.7-0.6,0.8c-0.1,0-0.2,0.1-0.2,0.2
			c0,0.2,0,0.3,0,0.5c0.1,0,0.1,0,0.2-0.1c0.2-0.3,0.4-0.7,0.7-0.9c0.1-0.1,0-0.5,0.4-0.4c0.1,0,0,0.4,0,0.6c0,0.1-0.1,0.3-0.2,0.4
			c-0.3,0.4-0.4,0.7-0.5,1.2c-0.1,0.4,0,0.8-0.1,1.3c0,0.1-0.1,0.3-0.2,0.3c-0.1,0-0.4-0.1-0.4-0.2c-0.1-0.2,0-0.4,0-0.6
			c0-0.2,0.1-0.4,0.1-0.7c0-0.1,0-0.2-0.1-0.3c-0.1,0.1-0.2,0.2-0.2,0.3c-0.3,1-0.1,1.9,0.5,2.8c0.1,0.1,0.2,0.2,0.2-0.1
			c0-0.1,0.1-0.1,0.2-0.2c0.1-0.2,0.3-0.3,0.5-0.1c0.2,0.1,0.3,0.3,0.1,0.5c-0.2,0.3-0.4,0.8-0.8,1c-0.1,0-0.1,0.1-0.2,0.2
			c0.1,0,0.2,0.1,0.3,0.1c0.2,0,0.5-0.1,0.7-0.1c0.8-0.1,1.6,0.2,2.4,0.3c0.5,0.1,1,0.2,1.3,0.7c0.1,0.1,0.2,0.1,0.3,0.2
			c0.2,0.2,0.5,0.5,0.6,0.8c0.1,0.4,0.2,0.9,0.2,1.3c0,0.7,0,1.5-0.1,2.2c-0.2,1.1-0.5,2.1-1,3.1c-0.3,0.5-0.6,1-0.9,1.5
			c-0.3,0.4-0.3,0.4,0.2,0.6C28,56,28,56,28.1,55.7c0-0.1,0.1-0.1,0.2-0.1c0.6,0,1.1,0,1.6-0.3c0.2-0.1,0.4-0.3,0.6-0.1
			C30.6,55.3,30.3,55.6,30.1,55.8 M14,46.2c-0.4,0.2-0.7,0.4-1.1,0.7c-0.6,0.4-1.2,0.9-1.9,1.1c-0.1,0-0.1,0.1-0.2,0.2
			c0.1,0.1,0.2,0.2,0.2,0.2c0.3,0,0.6,0,0.9-0.2c0.8-0.4,1.7-0.7,2.6-0.8c1-0.1,1.9-0.4,2.9-0.6c0.9-0.1,1.7-0.3,2.6-0.5
			c0.2,0,0.4-0.1,0.6-0.2c0.3-0.2,0.6-0.4,0.9-0.5c0.5-0.3,1-0.6,1.5-0.8c0.4-0.2,0.2-0.2,0.1-0.4c-0.4-0.5-0.6-1.1-0.6-1.7
			c0-0.9,0.4-1.7,0.5-2.5c0-0.1,0-0.2,0-0.2c-0.1,0-0.2,0-0.2,0c-0.5,0.4-1.1,0.7-1.6,1.2c-0.5,0.7-1.2,1.2-1.9,1.6
			c-0.6,0.4-1.1,0.9-1.7,1.3c-0.7,0.5-1.4,0.9-2.1,1.3C14.8,45.6,14.5,45.9,14,46.2 M62.3,57.2c-0.3-0.1-0.6-0.2-0.9-0.3
			c-1.2-0.5-2.4-0.8-3.7-1c-0.7-0.1-1.5-0.2-2.2,0.1c-0.1,0.1-0.3,0-0.5,0c-0.4-0.1-0.9-0.2-1.3-0.2c-0.8,0-1.7,0-2.5,0
			c-0.2,0-0.4,0-0.4,0.3c0,0.3-0.1,0.4-0.4,0.6c-0.3,0.2-0.5,0.4-0.9,0.4c-0.1,0-0.2,0.1-0.3,0.2c0.1,0,0.2,0.1,0.3,0.1
			c0.3,0,0.6,0,0.9,0c0.1,0,0.3,0,0.3-0.1c0.2-0.5,0.8-0.6,1.1-0.9c0.2-0.2,0.8-0.2,1,0c0.2,0.3,0.6,0.3,0.9,0.3c0.8,0,1.6,0,2.4,0
			c0.1,0,0.2,0,0.4,0c0.3,0.1,0.6,0.1,0.6,0.4c0,0.2-0.1,0.5-0.3,0.7c-0.2,0.2-0.5,0.3-0.8,0.4c-0.2,0.1-0.4,0.2-0.4,0.2
			c0,0.4,0.3,0.1,0.5,0.2c0.2,0.1,0.3,0.1,0.5,0.1c1,0.2,2,0.5,3,0.7c0.7,0.1,1.3,0,1.8-0.4c0.4-0.3,0.8-0.6,1.1-1
			c0.2-0.2,0.4-0.2,0.6,0c0.1,0.2,0.3,0.4,0.3,0.6c0,0.4,0.3,0.4,0.6,0.5c0.4,0.1,0.6-0.1,0.7-0.4c0-0.1-0.2-0.4-0.4-0.5
			C63.7,57.9,63.1,57.5,62.3,57.2 M25.3,57.9c0.2,0,0.5,0.1,0.7,0.1c1,0.2,1.9,0.6,2.9,0.5c0.4,0,0.9,0,1.4,0.2
			c0.5,0.2,1,0.3,1.6,0.2c0.4,0,1-0.2,1.3,0c0.4,0.2,0.7-0.2,1.1-0.1c0,0,0.2-0.2,0.2-0.3c0-0.1-0.1-0.2-0.2-0.3
			c-0.3-0.1-0.5-0.1-0.8-0.2c-0.5,0-1,0-1.5,0c-0.7-0.1-1.4-0.1-1.9-0.4c-1.1-0.5-2.2-0.8-3.2-1.3c-0.2-0.1-0.3-0.1-0.5,0.1
			c-0.1,0.1-0.4,0.3-0.5,0.2c-0.3-0.2-0.4,0-0.6,0.1c-0.2,0.2-0.5,0.4-0.7,0.6C24.6,57.7,24.9,57.8,25.3,57.9 M38.4,56.8
			c0,0.1,0.1,0.3,0,0.4c-0.3,0.3,0,0.2,0.1,0.2c0.3,0,0.6-0.2,0.9-0.1c0.6,0.1,1.2-0.1,1.8-0.3c0.4-0.2,0.8-0.3,1-0.7
			c0.1-0.3,0.3-0.4,0.7-0.4c0.2,0,0.4,0.1,0.7,0.1c0.6,0,1.2-0.1,1.8-0.1c0.1,0,0.2-0.1,0.3-0.1c-0.1-0.1-0.2-0.2-0.3-0.2
			c-0.4-0.1-0.8-0.1-1.2-0.1c-0.2,0-0.3,0-0.5,0c-0.6,0.2-1.2,0.1-1.8,0.1c-0.6,0-1.2-0.2-1.8-0.3c-0.2,0-0.4,0-0.6,0
			c0.2,0,0.3,0.1,0.5,0.1c0.2,0,0.3,0.1,0.5,0.1c0.4,0.1,0.8,0.2,1.2,0.3c0.1,0,0.2,0.1,0.2,0.2c-0.1,0.1-0.2,0.1-0.3,0.1
			c-0.1,0-0.2,0.1-0.3,0c-0.8-0.3-1.7-0.3-2.6-0.3c-0.2,0-0.3,0.1-0.3,0.3C38.4,56.5,38.4,56.6,38.4,56.8 M41.9,58.2
			c0.4-0.1,0.9-0.3,1.3-0.4c0.7-0.2,1.4-0.4,2.1-0.5c0.9-0.1,1.9-0.2,2.8,0c0.3,0.1,0.4,0,0.3-0.4c0-0.4,0.1-0.6,0.4-0.8
			c0.1,0,0.1-0.1,0.2-0.2c-0.1,0-0.2-0.1-0.2-0.1c-0.4,0-0.9-0.2-1.1,0.3c0,0-0.1,0.1-0.1,0.1c-0.6,0.1-1.2,0.3-1.8,0.4
			c-0.4,0.1-0.8,0-1.2,0.2c-0.5,0.2-0.9,0.2-1.3,0c-0.2-0.1-0.5-0.1-0.7,0.1c-0.4,0.4-0.8,0.8-1.4,1.1c-0.1,0.1-0.2,0.2-0.3,0.3
			c0,0,0,0.1,0,0.2c0,0,0.1,0.1,0.2,0C41.4,58.5,41.6,58.4,41.9,58.2 M27.5,53.4c0.2-0.5,0.4-1,0.6-1.5c0.2-0.7,0.4-1.4,0.5-2.1
			c0.1-0.5,0-0.9,0.1-1.4c0,0-0.1-0.1-0.1-0.1c0,0-0.1,0.1-0.1,0.1c-0.1,0.3-0.1,0.6-0.2,0.9c-0.2,0.7-0.3,1.5-0.6,2.2
			c-0.4,1.1-0.9,2.1-1.3,3.2c-0.1,0.1-0.3,0.2,0,0.4c0.1,0,0.2,0,0.4-0.2C26.9,54.4,27.2,54,27.5,53.4 M21.2,82.6
			c-0.2-0.1-0.5-0.3-0.7-0.4c-0.1-0.1-0.2-0.1-0.3-0.1c-0.1,0-0.2,0-0.3,0c0.1,0,0.1,0.1,0.2,0.1c0.2,0.1,0.4,0.2,0.5,0.4
			c0.3,0.3,0.6,0.4,0.9,0.4c0.3,0,0.7,0,1,0c0.6,0,0.8,0.1,1.2,0.6c0,0,0.1,0.1,0.2,0.1c0.8,0.1,1.5,0.1,2.3,0.1
			c0.1,0,0.2-0.1,0.3-0.1c-0.1-0.1-0.2-0.1-0.3-0.2c-0.1,0-0.1,0-0.2,0c-0.6-0.1-1.2-0.1-1.7-0.5c-0.3-0.2-0.7-0.3-1.2-0.3
			C22.5,82.7,21.9,82.7,21.2,82.6 M53.7,57.1c-0.5,0.1-1,0.1-1.4,0.2c-0.1,0-0.1,0.1-0.2,0.2c0.1,0,0.1,0.1,0.2,0.1
			c0.3,0,0.5,0,0.8,0.1c0.5,0.2,0.9,0.4,1.4,0c0.3-0.2,0.8-0.3,1.2-0.4c0.1,0,0.2-0.1,0.2-0.2c-0.1,0-0.2-0.1-0.3-0.1
			C55,57,54.4,57,53.7,57.1 M18.9,83.3c0.1,0,0.3,0.1,0.4,0.1c0.1,0,0.1-0.1,0.2-0.1c-0.1-0.1-0.1-0.1-0.2-0.2
			c-0.3-0.1-0.7-0.2-0.9-0.4c-0.3-0.4-0.6-0.3-0.9-0.1c-0.3,0.1-0.5,0.3-0.8,0.4c-0.1,0-0.1,0.1-0.2,0.2c0.1,0,0.1,0.1,0.2,0.1
			C17.5,83.3,18.1,83.3,18.9,83.3 M37.2,60.4c-0.3,0.2-0.5,0.4-0.7,0.6c0,0,0,0.2,0,0.2c0.1,0,0.1,0,0.2,0c0.3-0.2,0.6-0.5,0.9-0.8
			c0,0,0.1-0.1,0.1-0.2C37.5,60.3,37.4,60.4,37.2,60.4 M38,58.7c0.1-0.1,0.3-0.2,0.4-0.3c0.2-0.2,0.4-0.4,0.6-0.6
			c-0.3,0.1-0.5,0.2-0.8,0.4C38.1,58.2,38.1,58.4,38,58.7 M23.1,46.1c0.1-0.1,0.1-0.1,0.2-0.2c-0.1,0-0.2-0.1-0.3-0.1
			c-0.1,0-0.1,0.1-0.2,0.1C22.9,45.9,23,46,23.1,46.1 M66,59.2c0.1,0,0.1,0,0.2,0c-0.1-0.1-0.2-0.2-0.3-0.2
			C65.8,59,65.8,59.1,66,59.2 M35.9,54.8c0,0,0,0.1,0,0.1c0,0.1,0.1,0.1,0.1,0.2c0-0.1,0.1-0.1,0.1-0.2C36.1,54.9,36,54.8,35.9,54.8
			z"/>
		<path class="st0" d="M60.1,91.5c0.9,0,1.8,0,2.7,0c0.5,0,1,0.1,1.5,0.1c0.4,0,0.7,0,1.1,0c0.4,0,0.8,0,1.2,0s0.8,0,1.2,0
			c0.4,0,0.8-0.1,1.2,0c0.8,0.2,1.6,0,2.4,0.2c0.8,0.2,1.7,0.1,2.5,0.1c0.9,0.1,1.8,0,2.8,0.2c0.5,0.1,1.1,0.3,1.4,0.7
			c0.1,0.1,0.1,0.2,0.1,0.2c-0.1,0-0.1,0.1-0.2,0.1c-0.1,0-0.3,0-0.4,0c-0.9,0-1.8,0.2-2.7,0.3c-0.8,0-1.7,0.2-2.5-0.1
			c-0.5-0.1-1,0-1.5,0c-2.5-0.2-4.9,0-7.4-0.2c-1.3-0.1-2.6,0-3.9-0.1c-0.8-0.1-1.7,0-2.5-0.1c-0.8-0.1-1.6,0-2.3-0.1
			c-1.8-0.3-3.7,0-5.5-0.2c-1-0.1-2-0.2-2.8-0.8c-0.3-0.2-0.7-0.5-1-0.7c-0.1-0.1-0.1-0.2-0.1-0.3c0.1,0,0.2,0,0.3,0
			c0.2,0.1,0.3,0.2,0.5,0.3c0.7,0.2,1.3,0.4,2.1,0.3c0.7-0.1,1.4,0,2.2,0.1c0.5,0,1,0,1.5-0.1c0.3,0,0.6,0.1,0.9,0.1
			c0.5-0.1,1.1,0,1.7,0C56.2,91.4,58.1,91.5,60.1,91.5z"/>
		<path class="st0" d="M61.8,96.9c3.6,0,7.2,0,10.8,0c0.7,0,1.4,0,2.1,0.3c0.3,0.1,0.6,0,0.9,0c0.1,0,0.2,0.1,0.3,0.2
			c-0.1,0-0.2,0.1-0.3,0.1c-1.1,0.2-2.2,0.3-3.3,0.3c-1.1,0-2.3,0-3.4,0.2c-1.7,0.2-3.4,0-5.1,0.1c-2.8,0.3-5.6,0.1-8.4,0.1
			c-0.8,0-1.6,0-2.4-0.3c-0.2,0-0.3,0-0.5,0c-1.2-0.1-2.4-0.2-3.7-0.4c-0.1,0-0.2-0.1-0.3-0.1c-0.1,0-0.1-0.1-0.2-0.1
			c0.1-0.1,0.1-0.1,0.2-0.1c0.2,0,0.4-0.1,0.6-0.1c3.3,0,6.5,0,9.8,0C59.9,97,60.8,96.9,61.8,96.9z"/>
		<path class="st0" d="M87.3,77.7c-0.8,0.2-1.6,0.1-2.2,0.7c-0.1,0.1-0.3,0.1-0.4,0.2c-0.5,0.2-0.9,0.4-1.2,1
			c-0.1,0.3-0.6,0.5-0.9,0.7c-0.9,0.5-1.7,1.1-2.5,1.8c-0.6,0.5-1.4,0.6-2.1,0.7c-0.3,0-0.6-0.1-0.9-0.2c-0.1,0-0.1-0.1-0.1-0.3
			c0.2-0.5,0.6-0.5,0.9-0.6c0.4-0.2,0.9-0.3,1.4-0.5c0.1-0.1,0.4-0.1,0.4-0.4c0-0.4,0.4-0.6,0.8-0.7c1-0.3,1.9-0.7,2.8-1
			c0,0,0.1,0,0.1-0.1c-0.1,0-0.1-0.1-0.2-0.1c-0.2-0.1-0.5-0.2-0.7-0.3c-0.1-0.1-0.2-0.3-0.2-0.4c0-0.1,0.2-0.2,0.4-0.3
			c0.7-0.2,1.5-0.3,2.2-0.4c0.2,0,0.4-0.1,0.5-0.2c0.3-0.7,0.8-0.4,1.3-0.5c0.1,0,0.1,0.1,0.2,0.1c0-0.1,0-0.2,0-0.2
			c-0.1-0.5-0.1-0.6,0.4-0.6c0.2,0,0.4-0.1,0.6,0c0.2,0.2,0.4,0.4,0.5,0.6c0.2,0.4-0.3,0.4-0.4,0.5C87.8,77.4,87.5,77.5,87.3,77.7z"
			/>
		<path class="st0" d="M2.5,89.8c0.3,0.3,0.4,0.6,0.7,0.8c0.7,0.7,1.5,1.3,2.4,1.7c0.1,0,0.5,0,0.3,0.3c-0.1,0.2-0.3,0.3-0.5,0.1
			c-0.2-0.1-0.4-0.2-0.6-0.2c-1.2-0.5-2.2-1.3-3.1-2.4c-0.7-0.9-1.2-1.8-1.5-2.9c-0.3-0.9-0.4-1.9-0.1-2.8c0.2-0.7,0.9-0.8,1.3-1.1
			c0,0,0.2,0.1,0.2,0.1c0,0.1,0,0.2,0,0.2c-0.4,0.5-0.4,1-0.2,1.6c0.1,0.4,0,0.9,0.1,1.4c0.2,0.8,0.3,1.5,0.6,2.2
			C2.3,89.2,2.4,89.5,2.5,89.8z"/>
		<path class="st0" d="M77.4,75.2c-0.5,0.6-1.1,0.8-1.8,1c-0.1,0-0.3,0.1-0.4,0.2c-0.5,0.8-1.2,1.2-2.2,1c-0.5-0.1-1-0.2-1.2-0.8
			c0-0.1-0.1-0.3-0.1-0.3c0.1-0.1,0.3-0.3,0.5-0.3c0.4,0,0.8,0.2,1.2,0.2c0.3,0,0.6-0.1,0.9-0.2c0,0,0.1-0.1,0-0.1
			c0-0.1-0.1-0.1-0.1-0.1c-0.2-0.1-0.4-0.2-0.5-0.3c-0.2-0.2-0.2-0.4,0.1-0.6c0.2-0.1,0.4-0.1,0.6-0.1c0.8-0.1,1.6-0.1,2.4-0.2
			c0.1,0,0.1,0,0.2-0.1c-0.1-0.1-0.1-0.1-0.2-0.2c-0.1-0.1-0.2-0.1-0.3-0.2c-0.1-0.2-0.1-0.3-0.1-0.5c0,0,0.2-0.1,0.4-0.1
			c0.6,0,1.2,0,1.8-0.3c0.1,0,0.3,0.1,0.3,0.1c0.1,0.1,0.2,0.2,0,0.4c-0.3,0.2-0.5,0.6-0.8,0.7C77.8,74.8,77.6,75,77.4,75.2z"/>
		<path class="st0" d="M65,80.6c-0.7,0.4-1.4,0.3-2,0.5c-0.8-0.3-1.7-0.1-2.6-0.2c-1-0.2-1.9-0.5-2.8-0.8c-0.1,0-0.2-0.1-0.3-0.1
			c-0.1-0.1-0.1-0.2-0.1-0.3c0,0,0.1-0.1,0.2-0.1c0.8-0.1,1.6-0.1,2.4,0.1c0.5,0.1,1,0.1,1.5,0.2c1,0.1,2.1,0.1,3.1,0.1
			c0.2,0,0.4-0.1,0.6-0.1c0.2,0,0.5-0.1,0.6,0.2c0,0.1-0.2,0.3-0.3,0.5C65.2,80.5,65.1,80.6,65,80.6z"/>
		<path class="st0" d="M49.1,67.2c-1.1,0-2,0-3,0c-0.3,0-0.5,0-0.8,0.1c-0.2,0.1-0.5-0.1-0.8-0.2c-0.2-0.1,0-0.2,0-0.2
			c0.5-0.2,0.9-0.4,1.4-0.5c0.8-0.1,1.5-0.2,2.3-0.1c0.9,0,1.9,0.1,2.8,0.2c0.7,0.1,1.5,0.2,2.2,0.3c0.4,0.1,0.9,0.2,1.3,0.3
			c0.1,0,0.1,0.2,0.2,0.3c-0.1,0.1-0.2,0.2-0.3,0.1c-0.6-0.1-1.2-0.2-1.8-0.2c-0.9,0-1.7,0-2.6,0C49.8,67.6,49.5,67.1,49.1,67.2z"/>
		<path class="st0" d="M73.6,100.5c-0.2-0.2-0.4-0.3-0.5-0.4c-0.3-0.5-0.2-0.6,0.3-0.5c0.5,0,1,0.1,1.5,0.1c1.2,0,2.4,0,3.5-0.2
			c1-0.1,1.9-0.1,2.8-0.1c0.7,0,1.4-0.1,2.1-0.1c0.1,0,0.2,0,0.4,0c0.1,0,0.1,0.1,0.2,0.1c-0.1,0.1-0.1,0.1-0.2,0.1
			c-0.4,0.1-0.8,0.1-1.2,0.1c-1.2,0.1-2.4,0.3-3.5,0.6c-0.8,0.2-1.6,0.2-2.3,0.3c-0.6,0.1-1.2,0.3-1.8,0.3
			C74.5,100.8,74.1,100.6,73.6,100.5z"/>
		<path class="st0" d="M70.1,79c-0.8,0.7-1.7,1-2.7,1c-0.7,0-1.4-0.1-1.9-0.7c-0.1-0.1-0.3-0.3-0.2-0.4c0.1-0.2,0.3-0.3,0.5-0.4
			c0.2-0.1,0.4-0.1,0.6,0c1,0.3,2.1,0.2,3.1,0c0.1,0,0.1-0.1,0.2-0.1c0,0-0.1-0.1-0.1-0.1c-0.3-0.1-0.4-0.3-0.3-0.5
			c0.1-0.3,0.4-0.3,0.7-0.2c0.6,0.1,1.1,0.5,1.7,0.2c0,0,0.2,0.1,0.3,0.2c0.1,0.4-0.3,0.8-0.8,0.9c-0.3,0-0.6,0-0.9,0
			C70.3,78.8,70.2,78.9,70.1,79z"/>
		<path class="st0" d="M10.1,95c0.8,0.4,1.5,0.8,2.3,1c0.1,0,0.2,0.1,0.3,0.2c0.1,0.1,0.2,0.2,0.2,0.3c0,0.1-0.2,0.2-0.3,0.3
			c-0.3,0-0.6,0.1-0.9,0c-1-0.2-2-0.5-2.8-1.2c-0.9-0.8-1.5-1.8-1.9-2.9c-0.1-0.3,0.2-0.4,0.4-0.5C7.8,92.1,8,92,8.2,92.2
			c0,0,0.1,0,0,0c-0.4,0.7,0.4,1,0.7,1.5C9.2,94.3,9.7,94.6,10.1,95z"/>
		<path class="st0" d="M34.6,77c0.2,0.3,0.2,0.8,0.7,0.8c0.2,0,0.3,0.2,0,0.4c-0.3,0.3-0.7,0.3-1,0c-0.4-0.4-0.7-0.8-0.6-1.4
			c0-0.2,0-0.4-0.2-0.6c-0.6-0.5-0.7-1.2-0.3-1.9c0.2-0.5,0.5-0.9,0.8-1.3c0-0.1,0.2-0.1,0.2-0.1c0.1,0.1,0.2,0.2,0.2,0.2
			c-0.3,0.6-0.1,1.4-0.5,2c-0.1,0.2,0.1,0.5,0.1,0.7c0,0.3,0.1,0.3,0.3,0.1c0.1-0.1,0.2-0.1,0.3-0.1c0,0.1,0,0.2,0,0.3
			C34.6,76.4,34.6,76.7,34.6,77z"/>
		<path class="st0" d="M37.7,78.6c0.1,0.3,0.2,0.5,0.3,0.7c0.2,0.3,0.1,0.5-0.2,0.5c-0.5,0.1-0.8-0.1-1.1-0.6
			c-0.2-0.5-0.4-1-0.6-1.6c-0.1-0.3,0.2-0.4,0.3-0.6c0.2-0.1,0.4,0,0.5,0.2c0.2,0.3,0.4,0.6,0.6,0.9C37.6,78.3,37.6,78.4,37.7,78.6z
			"/>
		<path class="st0" d="M40.1,80.3c-0.7,0.1-1.3-0.1-1.6-0.8c-0.1-0.2-0.1-0.3-0.1-0.5c0-0.1,0.1-0.3,0.2-0.4
			c0.1,0.1,0.3,0.1,0.3,0.2c0.2,0.2,0.4,0.5,0.6,0.7c0.1,0.1,0.3,0.2,0.5,0.3C40.5,79.9,40.5,79.9,40.1,80.3
			C40.2,80.3,40.1,80.3,40.1,80.3z"/>
		<path class="st0" d="M86.5,78.2c0.2-0.1,0.4-0.2,0.6-0.2c0.1,0,0.2,0.1,0.3,0.2c0,0,0,0.1-0.1,0.2c-0.4,0.4-0.8,0.8-1.4,0.7
			c-0.1,0-0.2,0-0.3-0.1c-0.1-0.1-0.2-0.3-0.3-0.4c0.2-0.1,0.3-0.2,0.5-0.2C86,78.3,86.2,78.3,86.5,78.2z"/>
		<path class="st0" d="M32.6,62.9c0.1,0.1,0.1,0.4,0.1,0.4c-0.5,0.2-0.9,0.5-1.5,0.5c-0.1,0-0.2,0-0.3,0c-0.1-0.1-0.2-0.2-0.3-0.3
			c0.1-0.1,0.2-0.1,0.3-0.2c0.1,0,0.1-0.1,0.2-0.1C31.6,62.9,32.1,62.9,32.6,62.9z"/>
		<path class="st0" d="M31,64.6c-0.2-0.1-0.4-0.2-0.4-0.3c-0.1-0.1-0.1-0.3,0.2-0.3c0.4,0,0.8,0,1.1,0c0.1,0,0.4-0.1,0.4,0.2
			c0,0.3-0.1,0.4-0.4,0.4C31.6,64.6,31.4,64.6,31,64.6z"/>
		<path class="st0" d="M11.3,98.9c0.1-0.1,0.1-0.1,0.1-0.1c0.2,0,0.4,0,0.5,0.3c0,0-0.1,0.1-0.1,0.1C11.5,99.2,11.2,99.3,11.3,98.9z
			"/>
		<path class="st0" d="M10.1,47.3c-0.2,0-0.4-0.1-0.6-0.1c0,0-0.1-0.1-0.1-0.1c0,0,0.1,0,0.1,0C9.8,47.1,10,47.2,10.1,47.3z"/>
		<path class="st0" d="M12.7,50.8c-0.1,0-0.2,0-0.2,0c0,0,0-0.1,0-0.1C12.6,50.7,12.7,50.7,12.7,50.8z"/>
		<path class="st0" d="M17.4,35.5C17.3,35.4,17.3,35.4,17.4,35.5C17.3,35.4,17.4,35.4,17.4,35.5z"/>
		<path class="st0" d="M25.8,38.5c-0.1,0-0.2-0.1-0.2-0.1c-0.4,0.4-0.7,0-0.9-0.2c-0.2-0.2-0.2-0.4,0-0.7c0.8-1.2,1.9-1.8,3.2-2.1
			c0.3-0.1,0.7,0.1,1.1,0.1c0.2,0,0.3,0.1,0.4,0.1c0.3,0,0.4,0.3,0.3,0.5c-0.2,0.3-0.1,0.6,0,1c0,0.2,0,0.5-0.2,0.7
			c-0.5,0.7-1.3,1.1-2.2,1.3C26.7,39.2,26.2,39,25.8,38.5 M27.3,38.2c-0.1,0-0.3,0.1-0.4,0.1c0,0,0,0.1,0,0.1
			C27,38.5,27.3,38.7,27.3,38.2 M27.4,36c0.2,0,0.3,0.1,0.5,0.1c0,0,0.1,0,0.1-0.1c0,0-0.1-0.1-0.1-0.1C27.7,35.9,27.6,35.9,27.4,36
			 M25.4,38.2C25.4,38.2,25.5,38.2,25.4,38.2C25.4,38.2,25.4,38.2,25.4,38.2 M26.1,36.7C26,36.7,26,36.7,26.1,36.7
			C26,36.7,26,36.8,26.1,36.7z"/>
		<path class="st0" d="M30.2,53.9c0.2-0.1,0.3-0.1,0.4-0.1c0.1,0,0.3,0,0.3,0.1c0,0,0,0.2,0,0.3c-0.4,0.4-1.6,0.5-1.8-0.3
			c0-0.2,0-0.4,0-0.6c0-0.1,0.1-0.1,0.1-0.2c0,0.1,0.1,0.1,0.1,0.2C29.4,53.8,29.7,54,30.2,53.9z"/>
		<path class="st0" d="M28.4,55.3c-0.2-0.1-0.3-0.2-0.4-0.3c0.1-0.1,0.3-0.2,0.4-0.2c0.4,0,0.8,0,1.2,0c0.1,0,0.1,0,0.2,0.1
			c0,0.1-0.1,0.2-0.1,0.2C29.3,55.4,28.9,55.3,28.4,55.3z"/>
		<path class="st0" d="M33.7,36.6c-0.4,0.1-0.8,0.1-1.1,0.2c-0.1,0-0.2-0.1-0.3-0.1c0.1-0.1,0.2-0.3,0.2-0.3c0.5,0,0.8-0.2,1.2-0.3
			c0.1,0,0.2,0,0.3,0.1c0,0.1,0,0.2-0.1,0.2C33.9,36.5,33.8,36.5,33.7,36.6z"/>
		<path class="st0" d="M34,37.1c0.3-0.2,0.5-0.2,0.7,0c0,0,0.1,0.1,0.1,0.1c-0.1,0.3-0.4,0.2-0.6,0.2C34.1,37.4,33.7,37.5,34,37.1z"
			/>
		<path class="st0" d="M20.5,43.8c-0.4,0.2-0.7,0.6-1.3,0.6c-0.5-0.1-0.7-0.3-0.4-0.6c0.4-0.5,0.8-0.8,1.5-0.8
			c0.4,0,0.5,0.1,0.4,0.5C20.7,43.5,20.6,43.6,20.5,43.8z"/>
		<path class="st0" d="M60.9,58.8c-0.4,0.1-0.7,0.3-1,0.3c-0.1,0-0.3-0.1-0.4-0.2c0-0.1,0.1-0.3,0.1-0.4c0.3-0.5,0.9-0.6,1.3-0.9
			c0.1-0.1,0.3,0,0.5,0c0.3,0,0.4,0.4,0.2,0.6C61.5,58.3,61.2,58.5,60.9,58.8z"/>
		<path class="st0" d="M59.1,57.9c-0.3,0.2-0.5,0.4-0.8,0.6c-0.2,0.2-0.5,0.2-0.7,0c-0.2-0.2-0.1-0.5,0.1-0.7
			c0.3-0.3,0.6-0.5,0.9-0.7c0.2-0.1,0.2-0.5,0.5-0.2c0.3,0.3,0.4,0.5,0.1,0.8C59.2,57.8,59.1,57.8,59.1,57.9z"/>
	</g>
	<g>
		<path class="st0" d="M115.5,35.6c0.2,0.4,0.3,0.7,0.5,1c0.1,0.2,0.2,0.4,0.2,0.5c0.1,0.2,0.2,0.4,0.5,0.4c0.9,0,1.7,0.4,2.4,1
			c0.4,0.3,0.8,0.7,1.2,0.9c0.6,0.3,1.3,0.3,1.9,0.2c0.1,0,0.2-0.1,0.4,0c0.2,0.1,0.5,0.1,0.7,0c0.5-0.2,1-0.1,1.5-0.1
			c0.3,0,0.5,0,0.6,0.3c0,0.1,0.2,0.4,0.4,0c0-0.1,0.3-0.2,0.4-0.2c0.4,0,0.8-0.1,1.2-0.1c0.6-0.1,1.1,0.1,1.7,0.1
			c0.1,0,0.2,0.1,0.2,0.1c0.1,0,0.2-0.1,0.3-0.2c-0.1,0-0.2,0-0.3-0.1c-0.1,0-0.1-0.1-0.2-0.1c0.1-0.1,0.1-0.2,0.2-0.2
			c0.7-0.2,1.3-0.3,2-0.5c0.2-0.1,0.4-0.1,0.6-0.3c0.3-0.3,0.6-0.4,0.9-0.5c0.3-0.1,0.5,0,0.8,0.2c0.1,0.1,0.2,0.2,0,0.3
			c-0.1,0-0.1,0.2-0.1,0.3c0.1,0,0.2,0,0.3,0c0.1,0,0.2-0.1,0.3-0.1c1.1,0,2.2,0,3.3-0.2c1.1-0.2,2.1,0.2,3.1,0
			c0.9-0.2,1.8,0,2.7-0.2c0.1,0,0.3,0,0.4,0c1.1,0,2.1,0,3.2,0c0.9,0,1.7-0.2,2.6-0.3c1.1-0.1,2-0.6,3-0.9c0.9-0.3,1.8-0.5,2.7-0.8
			c1.4-0.4,2.7-0.9,4-1.4c0.3-0.1,0.6-0.4,1-0.6c0.9-0.6,1.9-1.2,2.9-1.7c1.7-0.8,3.3-1.8,5-2.7c0,0,0.1-0.1,0.1-0.1
			c-0.1-0.1-0.1-0.1-0.2-0.1c-0.2,0.1-0.4,0.2-0.5,0.2c-0.1,0-0.3-0.1-0.3-0.1c0-0.1,0-0.3,0.1-0.3c0.5-0.1,0.8-0.6,1.2-0.8
			c1-0.5,1.8-1.2,2.6-2c0.8-0.8,1.3-1.8,1.7-2.9c0.3-0.8,0.8-1.5,1.1-2.3c0.1-0.2,0.3-0.4,0.4-0.7c0.3-0.7,0.8-1.2,1.4-1.7
			c0.6-0.5,1-1,1.5-1.6c0.7-0.9,1.3-1.8,1.9-2.6c0,0,0-0.1,0-0.1c-0.1,0-0.1,0-0.2,0c-0.3,0.3-0.6,0.6-0.9,0.9
			c-0.5,0.4-1,0.8-1.5,1.3c-0.2,0.2-0.5,0.1-0.7-0.1c-0.2-0.2-0.1-0.3,0.1-0.5c0.7-0.8,1.4-1.7,2.1-2.5c0,0,0,0,0,0
			c0.1-0.2,0.1-0.3,0.2-0.5c-0.1,0.1-0.3,0.2-0.4,0.3c-0.2,0.2-0.4,0.5-0.7,0.7c-0.1,0.1-0.4,0.2-0.5,0.1c-0.1,0-0.1-0.3-0.2-0.4
			c0-0.1,0-0.2,0-0.3c0.3-0.5,0.6-1,0.9-1.4c0.3-0.4,0.7-0.8,1.1-1.3c0.2-0.2,0.4-0.4,0.7-0.5c0,0,0-0.1,0-0.2c0,0-0.1-0.1-0.2,0
			c-0.3,0.2-0.6,0.4-0.8,0.6c-0.1,0.1-0.3,0.2-0.4,0.3c-0.3,0.1-0.5,0.3-0.7,0.6c-0.1,0.3-0.4,0.5-0.8,0.5c-0.5,0.1-0.9,0.5-1.3,0.8
			c-0.6,0.4-1.1,0.9-1.8,1.3c-0.3,0.2-0.3,0.3-0.1,0.7c0.1,0.3,0.4,0.5,0.7,0.4c0.2-0.1,0.4-0.1,0.5,0.1c-0.2,0.1-0.3,0.2-0.5,0.2
			c-0.5,0.1-0.8-0.1-1-0.5c-0.3-0.5-0.4-0.5-0.9-0.3c-0.5,0.1-0.9,0.3-1.5,0.1c-0.1-0.1-0.4,0.1-0.6,0.2c-1.1,0.8-2.3,1.3-3.6,1.8
			c-0.5,0.2-1,0.2-1.5,0.3c-0.3,0-0.5,0.1-0.2,0.4c0.2,0.2,0,0.6-0.3,0.7c-0.5,0.2-1,0.5-1.6,0.5c-0.8,0.1-1.6,0.3-2.3,0.5
			c-0.3,0.1-0.6,0.2-1,0.2c-0.3,0.1-0.4,0.1-0.4,0.5c0,0.1-0.1,0.3-0.2,0.4c-0.1,0.1-0.3,0.1-0.5,0.1c-0.3,0-0.7-0.1-0.6,0.4
			c0,0.1-0.1,0.2-0.2,0.2c-1.6,0.4-3,1.2-4.6,1.7c-0.2,0.1-0.5,0.2-0.8,0.2c-0.9,0.1-1.8,0.1-2.7,0.1c-0.5,0-1-0.2-1.6-0.4
			c-0.2-0.1-0.3-0.3,0-0.5c0.1-0.1,0.1-0.1,0.2-0.2c-0.1,0-0.2,0-0.3-0.1c-0.2-0.1-0.3-0.2-0.5-0.2c-0.2,0-0.4-0.1-0.4,0.3
			c0,0.2-0.2,0.4-0.3,0.5c-0.9,0.4-1.7,0.8-2.7,0.8c-0.7,0-1.3-0.3-1.9-0.6c-0.7-0.3-1.3-0.8-1.7-1.4c-0.2-0.2-0.3-0.5-0.4-0.7
			c-0.1-0.1,0-0.4,0-0.5c0.2-0.2,0.4-0.1,0.5,0c0.4,0.3,0.9,0.6,1.2,1c0.5,0.7,1.8,1.4,2.8,1c0.3-0.1,0.7-0.3,1-0.4
			c0.5-0.2,0.6-0.5,0.6-1c0-0.1,0-0.2-0.1-0.3c0-0.2,0-0.3,0-0.5c0.2,0,0.4-0.1,0.6,0.1c0.5,0.4,1,0.9,1.7,1.1
			c0.6,0.1,0.8,0.1,1.2-0.4c0.1-0.1,0.3-0.2,0.4-0.3c0.1-0.1,0.2-0.2,0.1-0.4c-0.2-0.4-0.2-0.4-0.6-0.2c-0.1,0-0.2,0.1-0.3,0.1
			c-0.1,0-0.2,0-0.3,0c0-0.1,0-0.3,0-0.3c0.5-0.6,0.9-1.1,1.4-1.6c0.8-0.8,1.4-1.7,1.9-2.7c0.2-0.3,0.1-0.6-0.1-0.8
			c-0.1-0.2-0.4-0.3-0.6-0.4c-0.2-0.1-0.4-0.1-0.7,0c-0.4,0.1-0.9,0.1-1.3,0.2c-0.7,0.1-1.4,0.3-2.1,0.3c-0.6,0-1.1,0-1.7-0.1
			c-0.1,0-0.2-0.2-0.2-0.3c0-0.1,0.1-0.3,0.2-0.4c0.4-0.2,0.8-0.3,1.2-0.4c0.6-0.1,1.3-0.2,1.9-0.3c0.3,0,0.7-0.1,1-0.1
			c0.7-0.1,1.3,0.1,1.9,0.3c0.7,0.3,1.3,0.7,1.7,1.4c0.1,0.3,0.1,0.8,0,1.1c-0.5,1.1-1.2,2-2.1,2.7c-0.1,0-0.1,0.1-0.2,0.2
			c-0.2,0.2-0.6,0.4-0.6,0.7c0,0.3,0.3,0.6,0.4,0.9c0.1,0.2,0.2,0.4,0.6,0.3c0.4-0.2,0.8-0.1,1.1-0.5c0.5-0.6,1.1-1.1,1.8-1.4
			c0,0,0.1-0.1,0.1-0.1c0,0-0.1-0.1-0.1-0.1c-0.3,0.1-0.5-0.1-0.6-0.3c-0.2-0.2-0.1-0.4,0.1-0.4c1.3-0.1,2.4-0.9,3.4-1.5
			c0.6-0.4,1.2-0.9,1.6-1.6c0-0.1,0.1-0.2,0.1-0.3c0.2-0.5,0.1-0.8-0.4-0.9c-0.3-0.1-0.7-0.2-1.1-0.2c-0.4-0.1-0.8-0.2-1.1-0.1
			c-0.6,0.2-1.2-0.1-1.8,0.2c-0.1,0-0.3-0.1-0.4-0.2c0.1-0.1,0.1-0.3,0.2-0.3c0.5-0.3,1.1-0.5,1.7-0.5c1.2-0.1,2.3,0.2,3.4,0.6
			c0.1,0,0.1,0.1,0.2,0.1c0.2,0.2,0.4,0.2,0.7,0c0.1-0.1,0.1-0.2,0.2-0.2c0.2-0.1,0.4,0,0.4,0.3c0,0.1,0,0.2,0.1,0.3
			c0.1,0,0.3-0.1,0.4-0.1c0.9-0.9,2-1.5,3.1-2.1c0,0,0.1,0,0.1-0.1c0,0,0.1-0.1,0.1-0.1c-0.1,0-0.2-0.1-0.2-0.1
			c-1.1,0.2-2.1,0.1-3.2,0.1c-0.8,0-1.5-0.1-2.3-0.1c-0.4,0-0.8,0.1-1.2,0.1c-0.1,0-0.2,0.1-0.2,0.1c0,0.3-0.3,0.3-0.4,0.3
			c-0.5,0-1,0.3-1.6,0.1c-0.2-0.1-0.5,0-0.7,0.1c-0.7,0.3-1.4,0.3-2.1,0.4c-1,0.2-1.9,0.3-2.8,0.6c-0.5,0.2-0.9,0.3-1.4,0.2
			c-0.1,0-0.3-0.1-0.4-0.2c-0.2-0.2-0.2-0.3,0.1-0.4c0.7-0.4,1.5-0.6,2.3-0.8c0.6-0.2,1.1-0.3,1.7-0.3c0.1,0,0.1-0.1,0.2-0.1
			c-0.1,0-0.1-0.1-0.2-0.1c-0.6,0-1.2,0-1.7-0.1c-0.7-0.2-1.4-0.1-2.2-0.1c-0.8,0-1.6,0.2-2.4,0.4c-0.7,0.2-1.4,0.2-2.1,0.3
			c-0.8,0.1-1.5,0.1-2.3,0.4c-0.4,0.2-0.9,0.3-1.4,0.4c-0.8,0.2-1.4,0.6-2.1,1c-0.3,0.1-0.6,0.3-0.9,0.5c-1.3,0.6-2.4,1.5-3.4,2.6
			c-0.2,0.2-0.4,0.3-0.7,0.4c-0.3,0.1-0.5-0.1-0.7-0.2c-0.2-0.1-0.1-0.3-0.1-0.6c0-0.1,0-0.2,0-0.3c-0.1,0-0.2,0.1-0.3,0.1
			c-0.2,0.2-0.1,0.7,0.2,0.9c0.2,0.1,0.1,0.2,0,0.3c-0.2,0.2-0.5,0.5-0.7,0.7c-0.2,0.2-0.5,0.4-0.7,0.3c-0.4-0.1-0.7-0.3-0.8-0.8
			c-0.1-0.5,0-0.9,0.2-1.3c0.8-1.2,1.5-2.4,1.8-3.8c0.1-0.5,0.3-0.9,0.4-1.4c0.2-1.1,0.3-2.2,0.3-3.3c0-0.2-0.1-0.4-0.1-0.5
			c-0.3-0.7-0.3-0.7,0.2-1.3c0,0,0-0.1,0-0.1c-0.1-0.4-0.3-0.7-0.4-1.1c0,0-0.1-0.1-0.1-0.1c-0.7-0.2-0.6-0.2-0.9-0.6
			c-0.3-0.5-0.6-1.1-1.3-1.4c-0.5-0.3-0.9-0.7-1.3-1c-0.2-0.2-0.5-0.2-0.8-0.3c-0.1,0-0.2-0.1-0.3-0.1c-0.1,0-0.1-0.1-0.1-0.2
			c0.1,0,0.1-0.1,0.2-0.1c0.5,0,1-0.1,1.4,0.3c0.1,0.1,0.3,0.1,0.4,0.2c0.5,0.1,1,0.3,1.3,0.8c0.2,0.3,0.5,0.4,0.7,0.6
			c0.5,0.4,1,0.9,1.5,1.3c0.1,0.1,0.1,0.4,0.2,0.6c0.2,0.6,0.2,1.2,0.5,1.7c0.2,0.3-0.1,0.5,0,0.8c0,1.1,0.1,2.2,0,3.3
			c0,0.7-0.2,1.4-0.3,2.1c-0.1,0.9-0.5,1.7-0.9,2.4c0,0,0,0.1,0,0.2c0.1,0,0.1,0,0.2-0.1c0.2-0.1,0.4-0.2,0.6-0.3
			c0.1-0.1,0.2-0.2,0.2-0.2c0-0.7,0.6-1,1-1.3c0.9-0.6,1.9-0.9,3-1.1c0.2,0,0.3-0.1,0.4-0.1c1-0.6,2.1-0.9,3.2-1.1
			c0.7-0.2,1.5-0.3,2.3-0.4c0.9-0.1,1.9-0.3,2.8-0.4c0.9-0.1,1.8-0.3,2.6-0.2c0.8,0.1,1.6,0.1,2.4,0.3c1.1,0.3,2.2,0.5,3.2,0.8
			c0.3,0.1,0.6,0,1-0.1c0.8-0.2,1.6-0.4,2.4-0.4c0.5,0,1-0.1,1.5-0.1c0.4,0,0.8,0.1,1.2,0.1c0.2,0,0.5-0.1,0.7-0.2
			c0.7-0.4,1.5-0.6,2.4-0.6c0.6,0,1.2-0.1,1.9,0.1c0.1,0.1,0.4-0.1,0.5-0.2c0.8-0.5,1.6-1.1,2.4-1.7c1.3-0.9,2.7-1.6,4.2-2.2
			c0.4-0.1,0.7-0.2,1.1-0.2c0.6,0,1-0.3,1.4-0.6c0.3-0.2,0.6-0.4,1-0.6c0.3-0.2,1,0,1.2,0.3c0.1,0.2,0.1,1-0.1,1.2
			c-0.2,0.3-0.5,0.6-0.7,0.8c0,0.1-0.1,0.1-0.1,0.2c0.1,0,0.2,0,0.2,0c0.2-0.1,0.4-0.2,0.6-0.2c0.5-0.2,1.1-0.3,1.7-0.1
			c0.1,0,0.2,0,0.2,0.1c0.1,0.1,0.2,0.2,0.2,0.3c-0.1,0-0.2,0-0.3,0c-0.6,0-1.2,0.3-1.7,0.5c-0.6,0.2-1.1,0.4-1.7,0.6
			c-0.5,0.1-1,0.5-1.5,0.7c-0.3,0.1-0.6,0.3-0.8,0.5c0,0-0.1,0.1-0.1,0.1c0,0,0.1,0,0.1,0c0.4,0,0.9,0,1.3,0c0.2,0,0.2-0.1,0.1-0.3
			c-0.3-0.3-0.2-0.4,0.1-0.5c0.6-0.2,1.1-0.4,1.8-0.5c0.5,0,0.9-0.1,1.4-0.1c0.1,0,0.2,0,0.3,0c0.1,0,0.1,0.2,0.2,0.2
			c-0.1,0-0.1,0.1-0.2,0.1c-0.9,0.2-1.7,0.5-2.6,0.7c-0.1,0-0.1,0.1-0.2,0.1c0.1,0.1,0.1,0.2,0.2,0.2c0.4,0,0.8,0,1.2-0.1
			c0.3,0,0.6,0,0.9-0.1c0,0,0.1,0.1,0.1,0.2c0,0.1-0.1,0.2-0.2,0.2c-0.3,0.1-0.6,0.1-0.8,0.1c-0.1,0-0.2,0.1-0.2,0.2
			c0.1,0,0.1,0,0.2,0.1c0.2,0.1,0.4,0.2,0.5,0.3c0.3,0.3,0.5,0.3,0.8,0c0.5-0.4,0.9-0.6,1.5-0.3c0.1,0,0.3-0.1,0.4-0.1
			c0.2,0,0.4-0.1,0.6,0.1c0.2,0.3,0.1,0.5-0.1,0.8c-0.1,0.1-0.2,0.2-0.3,0.3c-0.1,0.2-0.3,0.3-0.2,0.7c0.1,0.4-0.2,0.9-0.5,1.2
			c-0.1,0.1-0.1,0.2-0.1,0.3c0.1,0,0.2,0,0.3-0.1c0.4-0.1,0.8,0.2,0.8,0.6c0.1,0.5-0.2,0.9-0.3,1.3c-0.2,0.7-0.6,1.3-1,1.9
			c-0.3,0.4-0.6,0.9-1,1.2c-0.6,0.6-1.2,1.2-1.8,1.8c-0.1,0.1-0.1,0.2,0,0.3c0.3,0.3,0.5,0.5,0.7,0.8c0.2,0.3,0.6,0.5,1,0.6
			c0.9,0.1,1.3,0.8,1.8,1.3c0,0,0,0.1,0,0.2c-0.1,0-0.2,0-0.2,0c-0.2-0.1-0.4-0.3-0.6-0.4c-0.3-0.3-0.6-0.6-1.1-0.7
			c-0.5-0.1-1.1-0.3-1.4-0.9c-0.1-0.1-0.2-0.2-0.3-0.3c-0.2-0.2-0.2-0.1-0.4,0.1c-1.2,1.2-1.8,2.8-2.6,4.2c-0.2,0.4-0.3,0.9-0.5,1.3
			c-0.4,0.9-1,1.7-1.7,2.5c-0.3,0.4-0.9,0.6-1.4,0.8c-0.6,0.2-1,0.7-1.4,1c0,0,0,0,0,0c-1.1,1.3-2.5,2.2-4,2.9
			c-1.2,0.6-2.3,1.2-3.4,1.9c-0.7,0.5-1.3,0.9-2.1,1.1c-0.7,0.2-1.4,0.4-2,0.7c-0.6,0.3-1.2,0.5-1.8,0.8c-1.4,0.5-2.8,1-4.2,1.4
			c-0.5,0.2-1,0.3-1.5,0.3c-1.2,0.1-2.4,0.3-3.6,0.3c-0.2,0-0.4-0.1-0.6-0.1c-0.2,0-0.4,0-0.5,0c-0.6,0.1-1.1,0.1-1.7,0.2
			c-0.2,0-0.3,0-0.5,0c-0.4,0.1-0.8-0.1-1.2,0.1c-0.5-0.2-1.1,0.1-1.6-0.1c-0.5-0.2-1.1,0-1.7,0.1c-0.1,0-0.1,0-0.2,0
			c-0.8,0-1.6,0.2-2.4,0.1c-0.7-0.1-1.4,0.1-2.1-0.4c-0.1-0.1-0.3-0.1-0.5-0.1c-0.1,0-0.2,0.1-0.2,0.1c0.1,0.4-0.3,0.4-0.5,0.6
			c-0.6,0.5-1.3,0.7-2,0.7c-0.4,0-0.8-0.1-1.2-0.1c-0.7-0.1-1.3,0.2-2,0.3c-0.1,0-0.3,0.1-0.4,0.1c-0.9-0.1-1.7-0.1-2.6-0.4
			c-0.6-0.2-1.2-0.2-1.8-0.1c-0.7,0-1.3-0.1-1.9-0.3c-0.4-0.1-0.7-0.5-1.1-0.7c-0.2-0.1-0.3-0.3-0.4-0.4c-0.2-0.2-0.4-0.3-0.7-0.4
			c-0.6-0.1-1.2-0.3-1.7-0.4c-0.6-0.1-1-0.6-1.2-1c-0.7-1-1.1-2.1-1.5-3.3c-0.3-1.1-0.5-2.2-0.4-3.4c0.1-0.7,0.2-1.4,0.5-2.1
			c0-0.1,0.2-0.2,0.2-0.3c0.2-0.2,0.3-0.4,0.5-0.7c0.1-0.1,0.1-0.1,0.2-0.2c0,0.1,0.3,0.1,0.1,0.3c-0.1,0.2-0.2,0.5-0.1,0.7
			c0.2,1.1-0.2,2.1-0.2,3.2c0,0.8,0.2,1.5,0.5,2.2C115.2,34.5,115.3,35,115.5,35.6 M168.2,9.1c-0.4,0.2-0.9,0.4-1.3,0.6
			c-0.1,0-0.2,0.1-0.1,0.3c0.2,0.7-0.1,1.4-0.7,1.8c-0.7,0.4-1.4,0.9-2.1,1.1c-0.7,0.2-1.4,0.5-2.1,0.7c-0.3,0.1-0.7,0.4-1.1,0.1
			c0,0-0.2,0-0.3,0.1c0.1,0.1,0.2,0.2,0.2,0.2c0.4,0.1,0.8,0.1,1.2,0.1c0.5,0,0.8,0.4,0.6,0.9c-0.2,0.4-0.3,0.9-0.5,1.3
			c0,0,0,0.2,0,0.2c0.5,0.1,0.9,0.4,1.5,0.3c0.5-0.2,1-0.3,1.5-0.5c0.6-0.2,1.2-0.4,1.8-0.7c0.8-0.5,1.6-1.1,2.4-1.6
			c0,0,0.1-0.1,0.1-0.1c-0.1,0-0.1-0.1-0.2-0.1c-0.8,0-1.6,0-2.4,0.3c-0.5,0.1-0.8,0.1-1-0.3c-0.1-0.2-0.2-0.4-0.2-0.6
			c0-0.2,0.2-0.2,0.4-0.2c0,0,0.1-0.1,0.1-0.1c0.7-0.4,1.5-0.7,2.2-1.1c0.7-0.4,1.5-0.6,2.3-0.9c0.1,0,0.2,0,0.2,0
			c0.1,0.2,0,1-0.3,1.2c-0.4,0.3-0.8,0.5-1.2,0.8c-0.1,0-0.1,0.1-0.2,0.1c0.1,0,0.1,0.1,0.2,0.1c0.4,0.1,0.8,0.3,1,0.7
			c0.2,0.4,0.5,0.3,0.8,0.2c0.1,0,0.1-0.1,0.2-0.1c1.1-0.6,2.2-1.2,3.3-1.8c0.1,0,0.2-0.1,0.2-0.2c0.1-0.1,0.1-0.1,0.1-0.2
			c-0.1,0-0.2-0.1-0.3-0.1c-0.8,0-1.6-0.1-2.3,0.3c-0.1,0.1-0.4,0.2-0.5-0.1c-0.1-0.3,0.1-0.4,0.3-0.5c0.1,0,0.3,0,0.4,0
			c0.1,0,0.1-0.1,0.2-0.2c-0.1,0-0.1,0-0.2-0.1c-0.2-0.1-0.4-0.2-0.6-0.4c-0.1-0.1-0.2-0.3-0.1-0.4c0.1-0.1,0.2-0.2,0.4-0.3
			c0.2,0,0.5,0,0.7,0c0.2,0,0.4,0,0.6-0.1c0,0,0.1-0.1,0.1-0.1c0,0-0.1,0-0.1-0.1c-0.5-0.3-1,0-1.5-0.2c-0.1,0-0.3,0.2-0.5,0.2
			c-0.2,0.1-0.4,0.3-0.5-0.1c0,0-0.2,0-0.2,0c-0.2,0.1-0.5,0.3-0.7,0.4c-0.1,0-0.3,0-0.4,0c0.1-0.1,0.1-0.2,0.2-0.3
			c0.1-0.1,0.3-0.2,0.4-0.3c0.3-0.3,0.7-0.6,1-0.9c0,0,0-0.1,0-0.1c-0.3-0.1-0.7-0.2-0.9-0.5c0,0-0.1,0-0.2,0
			C169.7,8.1,168.9,8.4,168.2,9.1 M161.6,15.4c0-0.1,0.3-0.1,0-0.2c-0.1,0-0.2,0-0.4,0c-0.6,0.2-1.1,0.5-1.7,0.5
			c-0.1,0-0.2,0.1-0.3,0.2c-0.2,0.2-0.4,0.4-0.7,0.7c-0.5,0.4-1,0.8-1.4,1.2c0,0-0.1,0.1-0.1,0.1c0.1,0,0.2,0,0.2,0
			c0.6-0.3,1.3-0.7,1.9-1c0.8-0.4,1.7-0.7,2.2-1.5C161.4,15.5,161.5,15.5,161.6,15.4 M153.4,20.7c-0.3,0.3-0.8,0.5-1.2,0.4
			c-0.4,0-0.7,0-1,0.3c-0.1,0.1-0.2,0.1-0.3,0.1c-0.4,0-0.7,0.3-1,0.4c0,0-0.1,0.1-0.1,0.1c0,0,0.1,0,0.1,0c0.3,0,0.6-0.1,0.9-0.1
			c0.6-0.1,1.1-0.2,1.7-0.4c0.4-0.1,0.7-0.3,1.1-0.4c0.2-0.1,0.4,0.1,0.6-0.2c-0.2-0.1-0.3-0.2-0.5-0.3
			C153.6,20.7,153.6,20.7,153.4,20.7 M161.5,17.5c-0.2,0-0.4,0.1-0.6,0.1c0,0-0.1,0.1-0.1,0.2c0,0,0.1,0.1,0.1,0.1
			c0.3-0.1,0.7-0.2,1-0.3c0.1,0,0.1-0.3,0.1-0.4c-0.1,0.1-0.2,0.1-0.3,0.2C161.6,17.3,161.6,17.4,161.5,17.5 M157.1,20
			c0.1,0,0.2-0.1,0.3-0.1c0,0,0.1,0,0.1,0c0,0,0-0.1,0-0.1c-0.2,0-0.5-0.1-0.7,0.2C156.8,20,156.9,20,157.1,20 M130,39.7
			c0.2,0,0.3,0,0.5-0.1c0,0,0-0.1,0.1-0.2C130.4,39.6,130.1,39.2,130,39.7 M164.9,10.3c0.1,0,0.2,0,0.3,0c0-0.1-0.1-0.2-0.1-0.2
			c-0.2,0-0.5,0-0.7,0c0,0-0.1,0-0.1,0c0,0,0.1,0.1,0.1,0.1C164.5,10.3,164.7,10.3,164.9,10.3 M160.2,14.8c0.1-0.1,0.2-0.1,0.3-0.2
			c-0.1,0-0.2-0.1-0.3-0.1c-0.1,0-0.1,0.1-0.2,0.1C160.1,14.8,159.9,15,160.2,14.8 M134,13.8c-0.1,0-0.1,0.1-0.2,0.1
			c0,0,0,0.1,0,0.1C133.9,14,134,13.9,134,13.8z"/>
		<path class="st0" d="M119.2,14.8c-0.5,0.4-0.9,0.7-1.4,1c-0.3,0.2-0.6,0.5-0.8,0.7c-0.4,0.3-0.8,0.7-1.2,1
			c-0.2,0.1-0.4,0.2-0.6,0.2c-0.5,0.2-1,0.3-1.4,0.5c-0.4,0.2-0.7,0.2-1.1,0.4c-0.2,0-0.4,0.1-0.4,0.2c0,0.5-0.3,0.4-0.6,0.4
			c-0.1,0-0.2,0-0.3,0.1c-0.6,0.2-1.1-0.2-1.2-0.8c-0.1-0.5,0.1-0.9,0.4-1.2c0.5-0.6,1.1-1.3,1.6-1.9c0.2-0.2,0.5-0.3,0.7-0.5
			c1.2-0.9,2.4-1.6,3.4-2.7c0.3-0.4,0.6-0.8,0.6-1.3c0.1-0.7,0.3-1.4,0.7-1.9c0.2-0.3,0.4-0.7,0.4-1.1c0.1-0.3,0.1-0.6,0.3-0.8
			c0.2-0.3,0.1-0.5,0-0.7c-0.2-0.3-0.1-0.6,0-0.9c0.2-0.4,0.3-0.7,0.5-1.1c0.1-0.2,0.1-0.4,0.4-0.2c0.2,0.1,0.4-0.2,0.4-0.3
			c0.2-0.3,0.3-0.6,0.4-0.9c0,0,0-0.1,0-0.1c-0.1,0-0.1,0-0.2,0c-0.2,0.2-0.4,0.4-0.7,0.5c0,0-0.1,0.1-0.2,0.1
			c0-0.1-0.1-0.1-0.1-0.2c0-0.1,0-0.3,0.1-0.3c0.3-0.3,0.6-0.6,1.1-0.6c0.2,0,0.2-0.1,0.2-0.2c0.1-0.2,0.3-0.4,0.4-0.6
			c0.1-0.2,0.3-0.3,0.5-0.2c0.2,0,0.4,0,0.4-0.3c0-0.4,0.4-0.5,0.6-0.5c0.2,0,0.6-0.3,0.6,0.3c0,0.2,0.3,0.1,0.4-0.1
			c0.2-0.2,0.4-0.4,0.6-0.6c0.1-0.1,0.2-0.2,0.4-0.2c0.7-0.1,1.4-0.1,2.2-0.1c0.1,0,0.1,0,0.2,0.1c-0.1,0.1-0.1,0.2-0.2,0.2
			c-0.3,0.1-0.7,0.2-1,0.3c-0.5,0.1-0.9,0.2-1.3,0.5c-0.2,0.2-0.4,0.3-0.7,0.3c-0.6,0.1-1.1,0.3-1.5,0.7c0,0-0.1,0-0.2,0.1
			c0-0.1,0-0.2,0-0.3c0-0.1,0-0.1,0-0.2c-0.1,0-0.1,0-0.2,0c-0.1,0-0.2,0.1-0.3,0.2c-0.5,0.5-0.9,1-1.1,1.7c0,0.2-0.1,0.3-0.3,0.5
			c-0.8,0.7-0.9,1.7-1.1,2.6c-0.2,0.7-0.3,1.5-0.5,2.3c-0.1,0.4-0.4,0.6-0.5,1c0,0.2-0.1,0.4,0.1,0.5c0.1,0,0.3,0,0.4-0.1
			c0.3-0.2,0.5-0.5,0.7-0.8c0.4-0.5,0.7-0.9,1-1.4c0.1-0.2,0.3-0.2,0.4-0.3c0.1,0.2,0.3,0.3,0.3,0.5c0,0.4-0.1,0.8-0.2,1.3
			c-0.1,0.5-0.2,0.9-0.2,1.4c0,0.2,0.1,0.4,0.3,0.4c0.4,0.1,0.6,0.4,0.6,0.8c0,0.1,0,0.3,0,0.4c0,0.1,0.1,0.2,0.1,0.3
			c0.1,0,0.2-0.1,0.2-0.1c0.2-0.4,0.7-0.3,1-0.4c0.1,0,0.2,0.1,0.2,0.1c0,0.1-0.1,0.2-0.2,0.3c-0.1,0.1-0.2,0.1-0.3,0.1
			c0,0-0.1,0-0.1,0.1c0,0,0.1,0.1,0.1,0.1c0.1,0,0.2,0,0.3,0c0.5-0.4,1.1-0.2,1.6-0.5c0,0,0.1,0,0.2-0.1c0.2-0.1,0.4-0.2,0.5,0.1
			c0.1,0.2-0.1,0.4-0.4,0.4c-0.1,0-0.3,0.1-0.4,0.2c-0.1,0.1-0.2,0.2,0,0.3c0.3,0.2,0.3,0.3,0.1,0.6c-0.2,0.2-0.3,0.4-0.2,0.7
			c0,0.3-0.1,0.4-0.2,0.6c-0.3,0.3-0.6,0.6-0.7,1.1c-0.1,0.5-0.5,0.8-0.8,1.1c-0.1,0.1-0.2,0-0.3,0c0-0.1,0-0.2,0-0.3
			c0-0.1,0-0.1,0.1-0.2c-0.1,0-0.2,0-0.2,0.1c-0.1,0.1-0.2,0.3-0.3,0.4c-0.1,0.1-0.2,0-0.3,0c0-0.1,0-0.2,0-0.3
			c0.7-0.7,1.1-1.5,1.3-2.5c0-0.2,0.1-0.4,0.1-0.6c0-0.2-0.2-0.4-0.3-0.4c-0.6,0-1.2-0.2-1.7,0.3c-0.1,0.1-0.3,0.1-0.4,0.2
			c-0.1,0.1-0.2,0.1-0.4,0.2C119.6,14.4,119.4,14.6,119.2,14.8 M117.7,14.5c0.1,0,0.2,0,0.2-0.1c0.6-0.5,1-1,1.8-1.2
			c0.4-0.1,0.4-0.6,0.2-0.9c-0.4-0.6-0.7-1.1-0.5-1.9c0-0.1,0-0.1,0-0.2c-0.1,0-0.1,0.1-0.2,0.1c-0.4,0.4-0.9,0.8-1.5,0.8
			c-0.1,0-0.2,0.2-0.3,0.3c-0.2,0.4-0.4,0.8-0.6,1.1c-0.9,0.9-1.8,1.7-2.7,2.5c-0.2,0.2-0.4,0.3-0.6,0.4c-0.7,0.4-1.3,0.8-1.4,1.7
			c0,0.2-0.2,0.4-0.2,0.7c0,0.1,0,0.3,0.2,0.2c0.6-0.3,1.3-0.4,1.8-1c0.1-0.2,0.4-0.3,0.6-0.3c0.5,0,0.8-0.2,1.1-0.5
			c0.1-0.1,0.2-0.2,0.3-0.2C116.6,15.6,117.1,15,117.7,14.5 M123,15c-0.2,0.1-0.2,0.3-0.1,0.4c0.1-0.1,0.2-0.2,0.2-0.3
			c0.1-0.1,0.1-0.3,0.1-0.4c0-0.2,0.1-0.4,0.2-0.5c0.2-0.4,0.3-0.4,0-0.6c0,0-0.1-0.1-0.2-0.1c0,0-0.1,0.1-0.1,0.2
			C123.1,14.1,123,14.5,123,15 M111.5,17.4c0.1-0.1,0.2-0.1,0.3-0.2c0,0,0-0.1,0-0.1C111.6,17.2,111.5,17.3,111.5,17.4z"/>
		<path class="st0" d="M162.4,42.7c-0.7,0-1.4,0.1-2.1,0c-0.4,0-0.9-0.2-1.3-0.2c-0.1,0-0.1-0.1-0.2-0.1c-0.2-0.1-0.2-0.3-0.1-0.4
			c0.1-0.1,0.2-0.2,0.4-0.2c0.7-0.1,1.4-0.1,2.1-0.1c0.8-0.1,1.5-0.2,2.3-0.4c1.2-0.2,2.4-0.7,3.6-0.9c0.8-0.1,1.6-0.4,2.3-0.6
			c0.6-0.1,1.2-0.2,1.7-0.3c0.6-0.1,1.2-0.3,1.7-0.4c1.1-0.3,2.2-0.6,3.3-0.9c1-0.3,1.9-0.5,2.9-0.8c0.6-0.1,1.1-0.2,1.7-0.3
			c0.4-0.1,0.8-0.2,1.2-0.3c0.1,0,0.3,0,0.4,0c0.1,0,0.1,0.1,0.1,0.1c0,0-0.1,0.1-0.1,0.1c-0.7,0.3-1.4,0.5-2.2,0.8
			c-0.4,0.1-0.8,0.3-1.1,0.5c-1,0.6-2.2,0.8-3.4,1.2c-0.4,0.1-0.8,0.4-1.3,0.4c-0.9,0.1-1.8,0.4-2.7,0.6c-1.2,0.3-2.4,0.5-3.6,0.8
			c-0.9,0.2-1.8,0.4-2.6,0.7c-0.7,0.2-1.3,0.4-2,0.4C163.1,42.5,162.8,42.6,162.4,42.7z"/>
		<path class="st0" d="M174.1,53.3c1.7-0.4,3.4-0.7,5-1.1c1.5-0.4,3-0.7,4.5-1c1.1-0.3,2.2-0.4,3.2-0.7c0.6-0.1,1.1-0.3,1.7-0.5
			c0.1,0,0.1,0,0.2,0c0.1,0,0.3,0,0.4,0.1c0.1,0.2,0.1,0.4-0.2,0.5c-0.4,0.3-0.8,0.6-1.2,0.8c-0.9,0.3-1.7,0.9-2.7,0.9
			c-0.6,0-1.2,0.2-1.8,0.4c-0.8,0.2-1.6,0.4-2.4,0.6c-0.9,0.2-1.8,0.5-2.7,0.7c-0.4,0.1-0.7,0.2-1.1,0.2c-0.8,0-1.5,0.2-2.2,0.3
			c-0.7,0.1-1.4,0.1-2.1,0.3c-0.5,0.2-1-0.1-1.3-0.5c-0.1-0.2-0.1-0.3,0-0.4c0.1-0.1,0.2-0.2,0.3-0.3c0.1-0.1,0.2-0.1,0.2,0.1
			c0,0,0.1,0.1,0.2,0.1C172.2,53.7,173.8,53.4,174.1,53.3 M175.8,53.9c0,0.1,0.1,0.1,0.1,0.2c0,0,0.1-0.1,0.1-0.1
			C176,53.9,175.9,53.8,175.8,53.9z"/>
		<path class="st0" d="M161.2,22.7c-0.3,0.7-0.8,1.1-1.4,1.4c-0.3,0.1-0.6,0.2-0.9,0.3c-0.2,0.1-0.4,0.1-0.6-0.1
			c-0.2-0.2-0.2-0.4,0-0.6c0.4-0.5,0.8-0.9,1.2-1.4c0-0.1,0.1-0.1,0.1-0.2c-0.1,0-0.2,0-0.3,0c-0.7,0.3-1.5,0.5-2.2,0.8
			c-0.2,0.1-0.4,0.1-0.6,0.1c-0.2,0-0.4,0-0.5-0.2c-0.1-0.2,0.1-0.4,0.2-0.6c0.9-0.8,2-1.2,3.2-1.5c0.5-0.1,1,0,1.5,0.3
			c0.4,0.2,0.5,0.2,0.6-0.2c0.2-0.5,0.6-0.6,1-0.8c0.2-0.1,0.5-0.2,0.8-0.3c0.9-0.1,1.8-0.3,2.7,0c0.3,0.1,0.7,0.5,0.7,0.9
			c0,0.5,0,1.1-0.3,1.6c-0.2,0.4-0.5,0.7-0.8,1c-0.5,0.4-1,0.6-1.6,0.9c-0.1,0.1-0.2,0.1-0.3,0.1c-0.3,0-0.3-0.1-0.2-0.4
			c0.2-0.7,0.8-1.3,1.2-1.9c0.2-0.3,0.2-0.7,0.5-1c0.1-0.1,0-0.2-0.2-0.2c-0.5,0.1-1.1,0.1-1.6,0.3c-0.5,0.2-1.1,0.2-1.5,0.6
			c-0.3,0.2-0.4,0.5-0.3,0.8C161.3,22.5,161.3,22.6,161.2,22.7z"/>
		<path class="st0" d="M121.3,44.9c-0.8-0.2-1.6-0.5-2.3-1c-0.2-0.1-0.2-0.3-0.3-0.4c-0.1-0.1,0-0.2,0-0.4c0.1,0,0.2,0.1,0.3,0.1
			c0.9,0.3,1.9,0.5,2.8,0.8c0.5,0.1,1.1,0.2,1.7,0.3c0.8,0.1,1.6,0.2,2.4,0.3c0.6,0.1,1.2,0,1.9,0.1c0.8,0.1,1.6,0.3,2.4,0.4
			c0.5,0.1,1,0.1,1.5,0.1c1,0.1,2.1,0.3,3.1,0.2c0.6,0,1.2-0.1,1.9-0.2c0.4-0.1,0.8-0.1,1.3-0.1c0.8-0.1,1.6-0.1,2.4-0.1
			c0.2,0,0.4-0.1,0.6-0.1c0.1,0,0.2,0.1,0.4,0.2c-0.1,0.1-0.2,0.2-0.3,0.2c-1.6,0.2-3.1,0.6-4.6,1c-0.6,0.2-1.3,0.1-1.9,0.1
			c-0.9,0-1.8,0-2.8-0.2c-0.5-0.1-1.1-0.1-1.6-0.1c-0.3,0-0.6-0.1-0.8-0.1c-0.3,0-0.5,0.1-0.8-0.1c-0.1-0.1-0.2,0-0.3,0
			c-1,0-2,0-3-0.1c-0.8-0.1-1.6-0.2-2.4-0.4C122.3,45.1,121.8,45,121.3,44.9 M129.4,45.4C129.4,45.4,129.4,45.5,129.4,45.4
			C129.4,45.5,129.4,45.5,129.4,45.4z"/>
		<path class="st0" d="M130.9,58.6c0.5,0,1,0.1,1.5,0c0.8-0.1,1.7-0.1,2.5-0.2c0.5-0.1,1.1,0,1.6,0c1,0,2-0.1,2.9-0.2
			c0.9-0.1,1.8-0.3,2.6-0.4c0.9-0.1,1.8-0.4,2.6-0.5c0.7-0.1,1.5-0.2,2.2-0.4c0.7-0.2,1.5-0.3,2.2-0.6c0.1,0,0.1,0,0.2,0
			c0,0.1,0,0.2-0.1,0.2c-0.1,0.1-0.3,0.2-0.4,0.2c-1.3,0.4-2.6,0.8-4,1c-0.8,0.1-1.6,0.4-2.4,0.6c-0.6,0.1-1.1,0.3-1.8,0.4
			c-0.4,0-0.9,0.2-1.3,0.2c-0.3,0.1-0.6,0.1-1,0.1c-0.8,0.1-1.7,0-2.5,0.3c0,0-0.1,0-0.1,0c-1.7,0-3.5,0.1-5.2,0.1
			c-0.6,0-1.2-0.2-1.7-0.4c-0.2-0.1-0.4-0.3-0.5-0.6c0,0,0.2-0.3,0.3-0.3c0.2,0,0.3,0.1,0.5,0.1C129.7,58.5,130.2,58.5,130.9,58.6z"
			/>
		<path class="st0" d="M132.8,23.1c-0.7,0-1.3,0-1.9-0.3c-0.1,0-0.2,0-0.3,0c-0.1,0-0.1,0.1-0.2,0.1c0,0,0,0.1,0.1,0.1
			c0.5,0.3,1,0.6,1.6,0.6c0.1,0,0.2,0.1,0.3,0.1c-0.1,0.1-0.2,0.2-0.3,0.3c-0.9,0.2-1.5,0.1-2.3-0.5c-0.2-0.2-0.3-0.2-0.4,0.1
			c-0.1,0.3-0.1,0.5,0,0.8c0,0.1,0,0.1-0.1,0.2c0,0-0.1,0-0.2,0c-0.2-0.2-0.6-0.4-0.3-0.8c-0.1-0.4,0.3-0.8,0-1.3
			c-0.1-0.2,0.5-0.8,0.7-0.8c0.8,0,1.7,0.1,2.5,0.2c0.9,0.1,1.8,0.1,2.8-0.2c0.7-0.2,1.4-0.4,2.1-0.8c0.4-0.3,0.7,0,1,0.1
			c0.3,0.1,0.5,0.4,0.4,0.7c0,0.3,0.1,0.5,0.3,0.7c0.1,0.1,0.2,0.3,0.1,0.4c-0.1,0.1-0.3,0.2-0.5,0.2c-0.2,0-0.4-0.1-0.5-0.3
			c-0.3-0.3-0.5-0.3-1-0.2c-0.8,0.1-1.5,0.6-2.4,0.4c-0.4,0.2-0.8,0.1-1.2,0.1C133.3,23.2,133.1,23.1,132.8,23.1z"/>
		<path class="st0" d="M120.8,7.6c-0.3,0-0.3-0.1-0.2-0.3c0.4-0.5,0.7-0.9,1.1-1.4c0.2-0.2,0.4-0.5,0.8-0.6c0.1,0,0.2-0.3,0.3-0.4
			c0.1-0.2,0.1-0.4,0.2-0.5c0.3-0.2,0.5-0.5,1-0.5c0.6,0,1.1-0.3,1.6-0.5c0.4-0.7,0.9-0.3,1.3-0.1c0.2,0.1,0.3,0.1,0.5,0
			c0.4-0.1,0.8,0,1.2,0.1c0,0,0.1,0.2,0.1,0.2c-0.2,0.1-0.4,0.2-0.5,0.1c-0.3-0.2-0.5-0.1-0.6,0.1c0,0-0.1,0.1-0.1,0.1
			c-0.1,0.1-0.2,0.1-0.3,0.2c0.1,0.1,0.3,0.2,0.4,0.3c0.1,0.1,0.3,0.1,0.5,0.1c0.1,0,0.2,0.1,0.2,0.2c-0.1,0.1-0.2,0.2-0.3,0.1
			c-0.2,0-0.5-0.2-0.7-0.2c-0.1,0-0.3-0.1-0.5-0.1c-0.1,0-0.3-0.1-0.3,0.2c0,0.1,0,0.3,0.2,0.2c0.1,0,0.1,0,0.2,0
			c0.1,0.1,0.2,0.1,0.2,0.2c0,0.1-0.1,0.3-0.1,0.3c-1,0.2-1.5,1.1-2.4,1.4c-0.4,0.1-0.8,0-1.1-0.2c-0.4-0.2-0.3-0.7-0.3-1
			c0-0.2,0.1-0.2-0.1-0.2c-0.2,0-0.3,0.1-0.5,0.3C122,6.4,121.5,7,120.8,7.6 M124.1,6.4c-0.1,0-0.2-0.1-0.3-0.1
			c-0.1,0-0.1,0-0.2,0.1c0.1,0,0.1,0.1,0.2,0.1C123.9,6.5,124,6.5,124.1,6.4z"/>
		<path class="st0" d="M181.5,40.2c-0.8,0.5-1.5,1-2.2,1.5c-0.6,0.4-1.3,0.7-1.9,1c-0.5,0.2-0.9,0.5-1.4,0.7
			c-0.4,0.2-0.7,0.3-1.1,0.3c-0.4,0-0.7,0.1-1.1,0.1c-0.4,0.1-0.8-0.1-1.1-0.3c-0.2-0.1-0.2-0.4-0.2-0.6c0.1-0.2,0.3-0.2,0.5-0.2
			c0.6,0,1.1-0.2,1.7-0.4c1.6-0.7,3.2-1.5,4.9-2.1c0.7-0.3,1.5-0.5,2.2-0.7c0,0,0.1,0,0.1,0c0.2,0,0.5-0.1,0.5,0.2
			c0,0.1-0.2,0.2-0.3,0.3C181.7,40,181.6,40.1,181.5,40.2z"/>
		<path class="st0" d="M171.9,19.4c-0.9,0.8-1.9,1.2-2.9,1.6c-0.2,0.1-0.4,0-0.5-0.2c-0.1-0.1,0.1-0.2,0.2-0.4
			c0.9-0.8,1.7-1.7,2.5-2.5c0.1-0.1,0.1-0.2,0.2-0.3c-0.1,0-0.2,0.1-0.3,0.1c-0.3,0-0.6,0.1-1,0.1c-0.6,0.1-1.3,0.2-1.9,0.4
			c-0.5,0.1-0.9,0.3-1.4,0.2c-0.3,0-0.5,0.1-0.7,0.3c-0.1,0.1-0.2,0.3-0.3,0.3c-0.2-0.1-0.3-0.3-0.2-0.5c0.2-0.5,0.6-0.8,1.1-1
			c1.1-0.3,2.1-0.6,3.2-0.8c0.7-0.1,1.3-0.1,2,0.1c1,0.4,0.9,1.2,0.4,2C172.3,19.1,172.1,19.2,171.9,19.4 M170.2,17.3
			C170.2,17.3,170.1,17.3,170.2,17.3C170.1,17.3,170.1,17.3,170.2,17.3z"/>
		<path class="st0" d="M125.7,50.2c-1,0.1-1.9-0.3-2.8-0.5c-0.1,0-0.2-0.1-0.3-0.2c-0.3-0.2-0.2-0.4,0.1-0.6
			c0.1-0.1,0.3-0.1,0.4-0.1c1.2,0.3,2.5,0.3,3.7,0.2c0.8,0,1.6-0.2,2.4-0.2c0.7-0.1,1.3-0.2,2-0.3c0.7-0.1,1.4-0.3,2.1-0.5
			c0.1,0,0.1,0,0.2,0c0.1,0,0.2,0.1,0.3,0.1c-0.1,0.1-0.1,0.2-0.2,0.2c-0.5,0.4-1.2,0.5-1.8,0.8c-0.4,0.2-0.7,0.4-1.1,0.5
			c-0.7,0.2-1.3,0.2-2,0.4c-0.8,0.2-1.5,0.3-2.3,0.2C126.2,50.4,126,50.3,125.7,50.2 M127.7,49.8C127.7,49.8,127.7,49.8,127.7,49.8
			C127.8,49.8,127.8,49.8,127.7,49.8z"/>
		<path class="st0" d="M116.4,22.3c0.4-0.5,0.6-1,1-1.4c0.6-0.6,1.1-1.3,1.9-1.6c0.3-0.2,0.4-0.5,0.6-0.8c0.2-0.3,0.3-0.8,0.7-1
			c0.2-0.1,0.3,0,0.4,0.1c0.1,0.1,0.3,0.2,0.1,0.4c-0.1,0.1-0.2,0.3-0.3,0.4c0,0.1,0,0.1,0,0.2c0.1,0,0.2,0,0.2,0
			c0.4-0.4,0.9-0.7,1.3-1.1c0.1-0.1,0.2-0.3,0.4-0.4c0.3-0.2,0.4-0.1,0.5,0.2c0.1,0.7-0.4,0.9-0.8,1.2c-0.4,0.3-0.9,0.4-1.4,0.5
			c-0.1,0-0.3,0.1-0.4,0.1c-0.9,0.8-2,1.4-2.6,2.5c-0.7,1-1.4,2-2,3c-0.3,0.5-0.5,1-0.7,1.5c-0.1,0.2-0.3,0.4-0.5,0.6
			c0,0.1-0.2,0.1-0.2,0c-0.1,0-0.2-0.2-0.1-0.2c0.2-0.8,0.4-1.7,0.9-2.5C115.5,23.4,115.9,22.9,116.4,22.3z"/>
		<path class="st0" d="M183.7,40.9c0.4-0.2,0.8-0.4,1.2-0.6c0.2-0.1,0.5-0.1,0.6-0.1c0.2,0.2,0,0.5-0.2,0.6c-0.6,0.7-1.3,1.2-2,1.7
			c-0.4,0.3-0.8,0.6-1.3,0.8c-0.6,0.2-1.1,0.5-1.7,0.5c-0.2,0-0.5,0.1-0.7,0.1c-0.3,0-0.6-0.1-0.7-0.4c-0.1-0.1,0-0.3,0-0.4
			c0-0.2,0.1-0.3,0.3-0.2c0.4,0.1,0.8-0.1,1.1-0.3c1.1-0.4,2-1.1,3-1.7C183.5,41,183.6,41,183.7,40.9z"/>
		<path class="st0" d="M182.3,33.1c0.5,0.3,0.5,0.3,0.1,0.6c-0.7,0.6-1.5,1.1-2.5,1.3c-0.9,0.2-1.8,0.5-2.8,0.4
			c-0.6-0.1-1.3-0.1-1.8-0.5c-0.1-0.1-0.2-0.2-0.3-0.3c0.1-0.1,0.2-0.2,0.4-0.2c0.1,0,0.2-0.1,0.4-0.1c0.9-0.1,1.7-0.1,2.6-0.3
			c0.9-0.2,1.8-0.4,2.8-0.7c0.2,0,0.3-0.1,0.5-0.1C181.8,33.2,182,33.2,182.3,33.1z"/>
		<path class="st0" d="M155.6,26.3c-0.7,0-1.3,0.1-2,0.1c-0.4,0-0.8-0.1-1-0.4c-0.2-0.3-0.1-0.5,0.2-0.6c0.7-0.2,1.4-0.1,2.2-0.1
			c0.5,0,1,0.1,1.4,0.4c0.4,0.2,0.5,0.5,0.3,1c-0.3,0.7-0.9,0.9-1.5,1c-0.5,0.1-1,0.1-1.5,0.2c-0.1,0-0.2,0-0.2,0
			c-0.1-0.1-0.1-0.2-0.2-0.2c0.1,0,0.1-0.1,0.2-0.1c0.7-0.1,1.4-0.5,2-0.9C155.6,26.5,155.6,26.4,155.6,26.3z"/>
		<path class="st0" d="M169.3,22.6c-0.2-0.2-0.4-0.3-0.1-0.5c0.6-0.4,1.8-0.5,2.3,0.2c0.2,0.3,0.3,0.5,0.1,0.7
			c-0.2,0.2-0.4,0.4-0.6,0.5c-0.4,0.2-0.9,0.3-1.4,0.4c-0.1,0-0.3-0.1-0.4-0.2c0.1-0.1,0.1-0.3,0.2-0.3c0.3-0.2,0.5-0.4,0.8-0.6
			c0.1,0,0.1-0.1,0.1-0.2c-0.1,0-0.2-0.1-0.2-0.1C169.9,22.7,169.6,22.8,169.3,22.6z"/>
		<path class="st0" d="M135,28.6c-0.4,0.1-0.7,0.2-1,0.1c-0.6,0-0.9-0.6-0.6-1.2c0.2-0.3,0.3-0.6,0.5-0.9c0.3-0.4,1.4-0.3,1.6,0.2
			c0,0.1,0,0.3-0.1,0.4c-0.2,0.2-0.5,0.5-0.8,0.7c0,0-0.1,0.1-0.1,0.2c0.1,0,0.1-0.1,0.2-0.1c0.1,0,0.1,0,0.2,0c0.2,0,0.4,0,0.5,0.2
			C135.4,28.4,135.2,28.5,135,28.6z"/>
		<path class="st0" d="M136.7,48.2c0.6-0.1,1.1-0.1,1.6-0.3c0.2,0,0.2,0,0.3,0c0.1,0,0.1,0.1,0.1,0.1c0,0-0.1,0.1-0.1,0.1
			c-0.8,0.5-1.6,0.8-2.5,1.1c-0.5,0.2-1.1,0-1.7-0.2c-0.3-0.1-0.4-0.3-0.4-0.5c0-0.2,0.4-0.4,0.7-0.3
			C135.4,48.6,136,48.5,136.7,48.2z"/>
		<path class="st0" d="M138.4,49.7c-0.1-0.3,0.1-0.5,0.4-0.5c0.8,0,1.5-0.2,2.3-0.4c0.6-0.1,1.1-0.2,1.7-0.4c0,0,0.1,0,0.1,0
			c0.2,0,0.4,0,0.5,0.2c-0.1,0.1-0.3,0.2-0.4,0.2c-0.6,0.2-1.2,0.5-1.8,0.7c-0.7,0.2-1.4,0.5-2.2,0.5
			C138.7,50,138.6,49.9,138.4,49.7z"/>
		<path class="st0" d="M139.4,25.9c0.3-0.3,0.1-0.6,0.1-0.9c0,0-0.1-0.1-0.2-0.1c-0.3,0-0.6,0-0.9,0c-0.1,0-0.2,0-0.4,0
			c-0.1,0-0.2-0.1-0.3-0.1c0.1-0.1,0.1-0.2,0.2-0.2c0.7-0.5,1.7-0.7,2.3,0.1c0.3,0.4,0.4,1,0,1.4c-0.1,0.1-0.3,0.2-0.4,0.3
			c-0.2,0.1-0.4,0-0.5-0.2C139.3,26,139.3,26,139.4,25.9z"/>
		<path class="st0" d="M143,25.9c0.1,0.8-0.4,1.2-0.9,1.5c-0.4,0.2-0.7,0-0.7-0.5c0-0.2,0-0.4,0.1-0.6c0.2-0.3,0.3-0.5-0.1-0.7
			c0,0,0-0.2,0-0.2c0.2-0.1,0.5-0.3,0.6-0.3C142.5,25.2,142.9,25.3,143,25.9z"/>
		<path class="st0" d="M145.7,25.8c0.3,0.2,0.4,0.5,0.2,0.8c-0.3,0.3-0.5,0.7-1.1,0.7c-0.3,0-0.5-0.2-0.3-0.5c0,0,0.1-0.1,0.1-0.1
			c0.1-0.2,0.2-0.3,0.3-0.5c-0.2-0.1-0.3-0.1-0.5-0.2c-0.1-0.1-0.1-0.2-0.2-0.2c0.1-0.1,0.1-0.1,0.2-0.1
			C144.9,25.4,145.3,25.6,145.7,25.8z"/>
		<path class="st0" d="M130.6,20.7c0-0.3-0.3-0.5,0-0.7c0.2-0.1,0.5-0.2,0.7-0.4c0.1,0.2,0.2,0.4,0.2,0.6c0.1,0.1,0.1,0.3,0.1,0.5
			c0,0.3,0.1,0.4,0.4,0.4c0.1,0,0.2,0,0.2,0c0.1,0,0.2,0.1,0.3,0.2c-0.1,0.1-0.2,0.2-0.3,0.3C131.4,21.8,130.9,21.5,130.6,20.7z"/>
		<path class="st0" d="M133.8,25.5c0.5-0.5,1-0.7,1.6-0.4c0.1,0.1,0.3,0.2,0.4,0.3c0.1,0.1,0.2,0.3,0.2,0.4c-0.1,0.2-0.3,0-0.4,0
			c-0.4,0-0.9-0.2-1.1,0.4c0,0-0.1,0.1-0.1,0.1c-0.2,0-0.4,0-0.4-0.1C133.8,26,133.5,25.8,133.8,25.5z"/>
		<path class="st0" d="M125.3,1.5c-0.2,0-0.4,0.1-0.4-0.2c0-0.2,0-0.4,0.2-0.5c0.2-0.1,0.3-0.1,0.5-0.1c0.5,0,1,0,1.4-0.2
			c0.1,0,0.3,0.1,0.4,0.1c0.1,0.2,0.1,0.4,0,0.5c0,0-0.2,0.1-0.3,0.1c-0.4-0.1-0.7,0.1-1,0.1C125.8,1.4,125.6,1.5,125.3,1.5z"/>
		<path class="st0" d="M124,22.6c0.6,0.4,1.2,0.7,1.9,0.8c0.1,0,0.2,0.1,0.2,0.2c-0.1,0.1-0.1,0.2-0.2,0.2c-0.2,0.1-0.4,0.1-0.6,0.1
			c-0.6,0-1.1-0.3-1.5-0.7C123.5,22.9,123.6,22.8,124,22.6z"/>
		<path class="st0" d="M153.1,24.6c-0.3,0.1-0.5,0.2-0.7,0.2c-0.4,0.1-0.7,0-0.9-0.3c-0.2-0.3-0.1-0.5,0.3-0.5c0.4,0,0.9-0.2,1.3,0
			c0.1,0,0.1,0.1,0.2,0.1c0.3,0,0.2,0.3,0.3,0.4C153.4,24.5,153.3,24.6,153.1,24.6z"/>
		<path class="st0" d="M124,26.3c0.2,0,0.3,0,0.4,0c0.1,0,0.1,0.2,0.1,0.2c-0.1,0.1-0.3,0.3-0.4,0.3c-0.5,0.1-1,0-1.4-0.3
			c-0.1-0.1-0.1-0.2-0.2-0.3c-0.1-0.2,0-0.5,0.2-0.4c0.2,0.1,0.5,0.1,0.6,0.3C123.5,26.3,123.7,26.3,124,26.3z"/>
		<path class="st0" d="M164.1,25.7c0.1-0.1,0.1-0.2,0.2-0.2c0.1,0,0.2,0,0.3-0.1c0,0.1,0,0.2-0.1,0.3c-0.3,0.4-0.7,0.8-1,1.2
			c-0.2,0.2-0.4-0.1-0.6-0.2c-0.1-0.1-0.1-0.2-0.2-0.3c0.1,0,0.2,0,0.3-0.1C163.5,26.1,163.8,25.9,164.1,25.7z"/>
		<path class="st0" d="M123.9,24.4c0.5-0.1,0.7,0.3,1,0.6c0,0,0,0.2-0.1,0.2c-0.2,0-0.5,0-0.6,0c-0.2-0.1-0.3-0.3-0.5-0.5
			C123.7,24.6,123.8,24.5,123.9,24.4z"/>
		<path class="st0" d="M123.4,11.9c-0.2,0.1-0.4,0.2-0.5,0.2c-0.1,0-0.2-0.1-0.3-0.1c0.1-0.1,0.1-0.3,0.2-0.3
			c0.3-0.1,0.5-0.2,0.8-0.3c0.1,0,0.2,0,0.3,0.1c0,0.1,0.1,0.3-0.2,0.3C123.5,11.8,123.5,11.9,123.4,11.9z"/>
		<path class="st0" d="M118.3,11.9c0.2,0.1,0.3,0.2,0.5,0.3c0,0,0,0.2,0,0.3c-0.2,0.2-0.5,0.4-0.7,0.6c-0.1,0.1-0.4,0.1-0.5,0
			c-0.1-0.1-0.1-0.3-0.1-0.5C117.6,12.1,117.8,11.9,118.3,11.9z"/>
	</g>
</g>
</svg>
