<svg enable-background="new 0 0 160 72.1" viewBox="0 0 160 72.1" xmlns="http://www.w3.org/2000/svg"><path d="m40.6 70c-.3 0-.7 0-1 0-1.7 0-3.5 0-5.2 0-.8 0-1.7.1-2.5.1-.9 0-1.8 0-2.7 0-.6 0-1.2.1-1.8.1s-1.2.1-1.8.1c-.5 0-1.1 0-1.6 0-.7 0-1.4 0-2.1.1-.3.1-.7.3-1 .5-.4.3-.6.7-1.1.8-.4.1-.7 0-.9-.2-.6-.6-1.3-.6-2.1-.5-.7.1-1.5.2-2.2.3-1 .1-1.9.4-2.9.4-.9.1-1.7 0-2.6 0-.7 0-1.4-.1-2-.2-2-.2-4-.4-5.9-1.2-.2-.1-.5-.1-.7-.3s-.2-.6-.2-.9c0-.2.1-.4.2-.6.7-.8.7-1.8.5-2.7s0-1.6.2-2.4c0-.1.1-.3.2-.4.1-.5-.1-.7-.6-.7-.3 0-.5-.1-.8-.1-.1 0-.1-.1-.1-.2 0-.5-.1-1 .5-1.2.5-.1.6-.4.6-.8.1-1.1.2-2.2.4-3.3v-.1c0-1 0-2 .1-3 .1-1.3.2-2.6.4-4 .1-.7.1-1.5.2-2.2.1-.9.3-1.8.4-2.7.1-1.1.2-2.2.3-3.4 0-.2 0-.3-.1-.5-.5-.8-.1-1.6 0-2.4.1-.7.2-1.3.3-2 .2-1.4.3-2.7.5-4.1.1-.7-.2-1.3-1-1.8-.2-.1-.4-.4-.6-.5.1 0 .3-.2.5-.3.7-.3 1-.9.9-1.8-.1-.6 0-1.2.1-1.8 0-.1 0-.2 0-.4.1-1 .1-2.1.2-3.1 0-.8.1-1.5.1-2.3s.1-1.6.2-2.5c0-.6 0-1.2.1-1.8.2-1.4.4-2.8.6-4.1.3-.9.5-2 .7-3 .2-1.3.4-2.6.7-3.9.2-1.2.4-2.4.7-3.5 0-.8 1-1.5 1.7-1.5.6.1 1.1.1 1.6.1.2 0 .4-.1.7-.1 1-.1 2 .3 3 .5.6.1 1.3.1 1.9 0 .8-.1 1.7-.3 2.5-.4.7-.1 1 .3 1.2 1.1.1.2 0 .5 0 .8v2.4c0 .9.1 1.8.1 2.6 0 .9 0 1.8.1 2.7.1 1.1 0 2.2-.2 3.4-.1.4.2.5.5.5 1.2-.1 2.5-.3 3.7-.4.5-.1.9.1 1.3.5.8.7 1.7.6 2.7.3 1.7-.5 3.3-1 5-1.4h.4 9.4c1.4 0 2.9.1 4.3.1.4 0 .8.1 1.2 0 .2 0 .4-.3.5-.5.2-.7.3-1.4.4-2 .1-.3.2-.7.6-.7.3 0 .6.5.6.9 0 .6-.1 1.3-.1 1.9 0 .8.2.8.7.8 1-.1 2.1-.1 3.1-.1.6 0 1.3 0 1.9-.2s1.3-.7 1.8-1.1c.9-.8 2-1.1 3.2-1.3.7-.1 1.4-.2 2-.4.8-.2 1.6-.1 2.4 0 .7.1 1.4.2 2.1.3 1.1.2 2.2.4 3.3.6 1.4.3 2.7.5 4.1 0h.3c1 0 1.9.1 2.9.1 1.3 0 2.7-.1 4-.2.6 0 1.2-.2 1.8-.3.5-.1.8-.4.8-1s0-1.1 0-1.7c0-.8.3-1.4.7-2 .1-.2.3-.2.4 0 .5.5 1 1 1.1 1.7 0 .1.1.2.2.3.5.6.5 1.2.3 1.8-.1.5-.1.6.4.6.7-.1 1.5-.2 2.2-.3.6-.1 1.3-.3 1.9-.4 1-.2 2-.3 2.9-.5.9-.1 1.8-.3 2.8-.4 1.2-.1 2.4-.1 3.5-.2 1-.1 2.1-.2 3.1-.4 1.2-.2 2.4-.5 3.7-.7 1-.2 1.9-.3 2.9-.4 1.3-.1 2.5-.3 3.8-.4.5 0 .9-.1 1.4-.1 1.1-.1 2.1-.1 3.2-.2.8-.1 1.7-.1 2.5-.2 1.1-.1 2.3-.2 3.4-.3.7-.1 1.4-.2 2.1-.3.3 0 .5-.2.5-.6.1-.8.1-1.6.2-2.4.1-.4.4-.8.6-1.1.2-.2.7.2.8.6.1.3.1.6.1.9v2.5c0 .4.2.5.5.5 1 0 2 .1 3 .1h3.7c1.8-.1 3.5-.3 5.2-.8.8-.2 1.6-.3 2.3-.4 1.2-.2 2.3-.3 3.5-.5.6-.1 1.2-.1 1.8-.1s1.3-.1 1.9-.1c.9 0 1.8 0 2.7.1 1.1.2 1.6-.3 1.9-1.3.2-.8.4-1.5.7-2.3.1-.3.6-.4.8-.1.3.3.3.8.3 1.2 0 .6 0 1.3.1 1.9.1.8-.7 1.6-1.5 1.5s-1.7 0-2.5.1c-.1 0-.2 0-.3 0-.9 0-1.8 0-2.7 0-1.4 0-2.9.1-4.3.2-1.2.1-2.5.3-3.7.5-.2 0-.3.2-.5.2.1.1.1.3.2.3.5.1 1.1.3 1.6.4.9.2 1.9.3 2.8.5.8.2 1.6.7 2.2 1.3.7.7 1.3 1.5 2 2.2.3.3.6.5 1 .7s.7 0 .7-.4c0-1.2.2-2.3.5-3.5.2-.9 1.6-1.6 2.3-1.5s1.4 0 2 .2c.8.2 1.3.9 1.4 1.7.2 1.4.3 2.8.5 4.2.1 1.2.3 2.4.4 3.6.1 1.3.2 2.6.3 3.9.1.9.1 1.8.1 2.7 0 1 .1 2.1.1 3.1 0 .5-.1 1-.1 1.5 0 1 .1 2.1.1 3.1 0 .9-.2 1.7-.2 2.6 0 1.1.2 2.2.2 3.3 0 1-.1 2-.2 3 0 .5.1 1 .1 1.5 0 .2-.1.4-.1.7 0 .8.1 1.5.1 2.3-.1 1.5-.2 3-.3 4.5-.1 1.1-.3 2.2-.4 3.4-.1.7-.2 1.5-.2 2.2 0 .6.2 1.2.2 1.8 0 1.1-.1 2.1-.1 3.2s0 2.1.1 3.2c.1.8.2 1.6.4 2.4.1.5-.2.9-.5 1.1-1.2.8-2.3 1.7-3.7 2-.6.2-1.2.3-1.8.3-1.5.1-3 .1-4.6.1-.3 0-.7 0-1 0-1.5.1-3 .1-4.4.2-.2 0-.5-.1-.7-.1-.8 0-1.6.1-2.4.1-.9 0-1.8 0-2.7 0-.6 0-1.2.2-1.8.2-.7 0-1.4-.1-2.1-.2-1.3-.2-2.6-.4-3.8-.1-1.2.2-2.4.3-3.6.6-1.4.3-2.7.6-4.1 1-.3.1-.7.2-1 .3-.7.2-1.3.7-1.8 1.2-.4.5-1.1.6-1.6.2-.8-.7-1.5-1.4-2.2-2.1-.4-.3-.7-.6-1.3-.6-1.1 0-2.2.1-3.4.1-1 0-2.1 0-3.1 0-1.3.1-2.5.2-3.8.4-1.2.1-2.3.3-3.5.5-1.3.2-2.5.5-3.8.8-.5.1-1.1.2-1.6.3-.7 0-1.4 0-2.2 0-.7 0-1.3.3-1.6 1-.4.7-.9.9-1.5.2s-1.3-.7-2-.5c-.5.1-.9.2-1.4.2-1 0-2 0-3 .1-1.1.2-2-.1-2.8-.8-.3-.3-.7-.4-1.1-.4-1.4.1-2.9.1-4.3.2-.8 0-1.7 0-2.5 0-.6 0-1.3 0-1.9.1-.9.1-1.8.4-2.7.4-.6.1-1.3-.1-1.9-.1-.1 0-.3-.1-.4-.1-.9 0-1.7-.1-2.6-.1-1.3-.1-2.6-.2-3.8-.2-.9 0-1.7 0-2.6.1-1 .1-2 .4-3.1.5-.8.1-1.6.1-2.5.1-.5 0-1 0-1.6-.1-1.4-.1-2.8-.2-4.3-.4-1.1-.1-2.3-.3-3.4-.5-.3.3-.9.1-1.4-.1m1.3-44c.2 1.2.3 2.4.5 3.6.3 1.8.7 3.7 1 5.5.2 1.2.5 2.3.7 3.4.2 1.2.5 2.5.7 3.8.2 1 .3 2.1.5 3.1.3 1.5.6 2.9.8 4.3.2 1.5.3 3 .5 4.4.1.8.1 1.5.2 2.3 0 .2-.1.3-.1.5.3 1 .2 2.1-.1 3.1-.3 1.2-.6 2.3-.3 3.5 0 .2-.2.4-.3.6-.1-.1-.2-.2-.2-.3-.1-.1-.1-.3-.2-.4s-.2-.2-.3-.3c-.1.1-.2.3-.2.4-.1 1.3-.2 2.7-.3 4 0 .6-.1 1.2-.7 1.6-.1.1-.1.4-.2.6.1 0 .3.1.4.1.5 0 1.1-.2 1.6-.2.9 0 1.8.1 2.7.2.6.1 1.3.2 1.9.4 1.2.2 1.6-.1 1.5-1.4 0-.8-.1-1.6-.1-2.4 0-1 0-2.1 0-3.1 0-1.8-.1-3.5-.1-5.3 0-.3 0-.7 0-1 0-1.2-.1-2.4-.1-3.5 0-.9-.1-1.8-.1-2.7 0-1-.1-2-.2-3s-.1-2-.2-3c-.1-1.2-.2-2.5-.3-3.7-.1-.9-.2-1.8-.3-2.7-.1-1.1-.3-2.2-.4-3.3 0-.4 0-.9-.1-1.3-.2-1.2-.2-2.5 0-3.7.2-1.5.6-2.9.9-4.4.2-1 .5-1.9.9-2.8.5-1.1 1.2-2.1 1.9-3 .6-.8 1.2-1.6 1.9-2.2 1.2-1.1 2.7-2 4.2-2.6.9-.4 1.8-.7 2.8-.7.9 0 1.8-.1 2.6-.2 1.2-.1 2.3-.4 3.6-.2 1 .2 2.1.2 3.1.4 1.6.3 3.2.8 4.6 1.6 1.7.9 3 2.3 3.5 4.3.3 1.3.7 2.7.9 4.1.3 1.7.5 3.3.7 5 .1.9.1 1.8.1 2.7 0 1 .1 2 .2 3 0 .2-.1.4-.1.6.2 1.2.2 2.4.1 3.6-.1 1.3-.3 2.5-.3 3.8 0 1.2.2 2.3.4 3.5.1 1.3.3 2.6.5 3.9.1 1 .2 2.1.3 3.1.1 1.3.3 2.6.4 3.8.1 1.1.2 2.2.3 3.4 0 .4.1.8.1 1.2.1.9.2 1.8.2 2.8v3.1c0 .6 0 1.1-.1 1.7-.1.8.3 1.3.9 1.2 1-.1 2.1-.3 3.1-.4.8-.1 1.1-.4 1-1.2-.1-1-.3-2-.4-2.9-.1-.6 0-1.2 0-1.8 0-1.4-.1-2.7-.1-4.1s.3-2.7.3-4.1c0-.7 0-1.3 0-2 0-4.9 0-9.7 0-14.6 0-.2-.1-.4-.1-.6 0-.6 0-1.2 0-1.8-.1-1.2-.3-2.4-.4-3.6s0-2.4 0-3.6c0-.7-.1-1.4-.1-2.1.1-1.1.3-2.3.4-3.4.1-1 .4-2 .8-2.8.7-1.3 1.4-2.7 2.2-4 .4-.7 1-1.3 1.8-1.7.9-.4 1.8-.8 2.7-1.2 1.4-.6 2.8-1.2 4.2-1.7 1.6-.6 3.1-1.3 4.8-.9.8.2 1.6.5 2.4.8 1 .5 1.7 1.2 2.4 2.1.9 1.1 1.9 2.2 2.8 3.3.2.3.6.6.2 1-.3.3-.3.7-.2 1.1.2.8.5 1.5.7 2.3.3 1.4.6 2.8.8 4.2.1.7.2 1.4.3 2.1.1 1 .3 2 .5 3 .1.7.1 1.4.2 2.1.1 1.1.3 2.1.4 3.2.1.7.1 1.5.2 2.2.1.9.3 1.7.4 2.6.1.8.1 1.6.2 2.3.3 1.8.4 3.5.4 5.3 0 .5.1 1.1.2 1.6.2 1.2.4 2.4.6 3.5.1.9.3 1.7.4 2.6.2 1.1.3 2.1.5 3.2.1.9.1 1.9.2 2.8.2 1.6.4 3.1.6 4.7.1.7.5 1.1 1.1 1 1.6-.4 3.2-.8 4.7-1.2.4-.1.8-.7.8-1.1-.2-.6-.4-1.2-.5-1.8-.4-1.6-.9-3.1-.8-4.7.1-1 .1-1.9.1-2.9 0-.7 0-1.5 0-2.2 0-.1 0-.2 0-.4 0-1 .1-1.9.1-2.9 0-.9-.3-1.8-.3-2.7 0-1.3 0-2.5.1-3.8 0-.2-.1-.3-.1-.5 0-1.2.1-2.4.2-3.6 0-.5 0-1.1.1-1.6.4-1.4.9-2.8.6-4.4-.1-.8-.2-1.6-.3-2.5-.1-1.2-.4-2.3-.4-3.5 0-1.1.1-2.2.3-3.3.1-1 .4-1.9.6-2.8.3-1.1.7-2.3 1-3.4.5-1.9 1.1-3.7 2.4-5.3 1-1.3 2.3-2.2 3.8-2.7 1.7-.6 3.3-1.1 5.1-1 .5 0 1 .1 1.5.1.6 0 1.1.1 1.7.1.8.1 1.7.3 2.5.2 1.1-.1 2 .1 3.1.3.7.1 1.4.3 2.1.4.2 0 .3-.1.5-.1-.1-.2-.1-.5-.2-.6-.7-.6-1.5-1.1-2.3-1.6-.6-1.1-1.6-1-2.6-1.2-.8-.2-1.6-.3-2.5-.4s-1.7-.3-2.6-.4c-.9 0-1.9.1-2.8.2-.5 0-1 .1-1.5.2-2 .5-3.9 1.1-5.7 2.1-.9.5-1.8 1.1-2.3 2.1-.2.4-.4.8-.6 1.2-.6.7-1.2 1.3-1.8 1.9-.5.5-.7 1.1-.8 1.7-.1.5-.2 1-.4 1.4-.1.3-.4.4-.7.2-.4-.3-.8-.7-1.1-1.1-.8-1.3-1.8-2.4-3.1-3.3s-2.6-1.7-4.1-2.2c-1.4-.5-2.9-.9-4.3-1.4-1.7-.6-3.6-.8-5.4-.9-1.1-.1-2.1 0-3.2-.2-.3-.1-.6-.1-.9-.1-.5 0-.9.1-1.4.2-1.1.1-2.1.3-3 .8-1.6.8-2.9 1.8-4.2 3.1-1.6 1.6-3.2 3.4-4.8 5.1-.4.5-1 .6-1.6 0-.5-.5-.9-1-1.4-1.5-1-1.1-2.3-1.8-3.7-2.3-1.9-.7-3.8-1.3-5.8-1.8-1.6-.4-3.3-.7-5-1-.6-.1-1.3-.2-1.9-.3-1.1-.2-2.1-.2-3.2-.1-1.2.1-2.3.4-3.4.7-1 .3-2 .5-2.9.9-1.8.8-3.1 2.1-4.5 3.4-1.1.9-2 2.1-2.7 3.4-.5.9-1.2 1.7-1.8 2.5-.2.2-.4.4-.7.2s-.4-.5-.3-.9c.2-.7.3-1.3-.4-1.8-.4-.3-.7-.6-1.1-.9-1.6-1.2-3.2-2.4-4.7-3.5-1-.7-2-1.4-3.1-1.8-.2-.1-.5 0-.8 0 .1.2.1.4.2.6.1.1.2.2.4.2.4.2.8.4 1.3.6.2.1.3.3.5.4-.2 0-.5.1-.7.1-.8-.2-1.6-.5-2.4-.8-1.2-.4-2.3-.7-3.5-.4-1.9.6-3.8.8-5.8.8-.2 0-.4 0-.5.1-.8.3-1.6.6-2.4.9-1.2.5-2.3 1.3-3.1 2.3-1 1.2-1.7 2.6-2 4.1-.3 1.4-.6 2.9-.8 4.4-.1.7 0 1.4 0 2.1 0 1-.1 1.9-.2 2.9 0 .2.1.4.1.5 0 .9-.1 1.7-.2 2.5 0 .9-.1 1.9-.1 2.8 0 .7-.1 1.4-.2 2.1-.1 1.1-.3 2.1-.4 3.2-.1.7-.1 1.4-.2 2.2-.1 1.4-.2 2.7-.3 4.1v2.9c0 1.3.1 2.7.1 4 0 .8-.1 1.6-.1 2.4 0 .2.1.4.1.6 0 .5-.1 1-.2 1.5v2.9c0 .2.1.4.1.6 0 .7.1 1.5.1 2.2 0 .5.1 1 .1 1.5 0 .3-.4.6-.6.5-1.6-.6-3.2-.6-4.8-.4-.4.1-.8.3-1.2.5-.3.2-.4.5-.2.8.5.7 1.2 1 2 .8 1.3-.2 2.7-.4 4-.7.8-.1 1.7-.9 1.6-1.8-.1-1.4-.2-2.8-.3-4.1-.1-.7-.1-1.5-.2-2.2 0-.5-.1-1-.1-1.5.1-.7.2-1.3.4-2 .3-1.2.5-2.4.8-3.6.4-1.6 1-3.1 1.5-4.6.4-1.2.7-2.4.6-3.6 0-.8-.1-1.7-.1-2.5 0-1.1.1-2.2.1-3.3 0-.1 0-.2 0-.4-.1-.9-.2-1.7-.2-2.6 0-1 .3-1.9.3-2.8.1-1.2.1-2.5.1-3.7 0-.9-.2-1.7-.2-2.6 0-.5 0-.9.1-1.4.2-1.1.7-2.1 1.2-3.1.3-.8.7-1.6.2-2.5-.1-.1.1-.4.1-.6.2.1.3.1.5.2.1 0 .1.1.2.2.3.3.5.3.8 0 .4-.4.8-.9 1.3-1.3.8-.8 1.7-1.5 2.6-2.2 1.4-1.1 3.1-1.7 4.8-1.7.9 0 1.7.3 2.6.4.8.1 1.6.3 2.2.8s1.3.9 1.9 1.4c.5.4.9.8 1.1 1.5.4 1.5 1.2 3 1.1 4.6 0 .5.1.8 0 1.2m103 13.7h2.2c.9 0 1.8-.1 2.7-.1s1.8 0 2.7.1c.5 0 .8-.2.8-.7 0-.8-.1-1.6-.1-2.4 0-.5-.1-.9-.1-1.4-.1-1.1-.2-2.1-.3-3.2-.1-.8-.1-1.6-.1-2.4 0-.3 0-.6-.1-.9-.1-.2-.2-.4-.4-.5-.3-.1-.6 0-.9 0-1.1.1-2.3.2-3.4.3-.9.1-1.8.1-2.7.2-1.4.1-2.7.2-4.1.3-1.2.1-2.4.1-3.6.1-.4 0-.8.1-1.2.1-.9 0-1.7-.1-2.6-.1-1.4 0-2.7 0-4.1 0-.2 0-.4-.1-.6-.1-.1 0-.3.1-.3.1-.1.4-.2.9-.3 1.3s-.2.8-.3 1.2c-.2 1.4-.4 2.7-.6 4.1-.2 1.2-.4 2.4-.7 3.5-.1.6 0 .7.6.7.4 0 .9-.2 1.3-.2 1.4 0 2.8.1 4.2.1h1.3c.8 0 1.6.1 2.4.1h6.2c.7-.1 1.4-.1 2.1-.2m-90.5-3.7c-.1.9-.1 1.8-.2 2.7 0 .5 0 1.1-.1 1.6-.1.7.1 1 .8 1 .1 0 .2-.1.3-.1.8 0 1.7.1 2.5.1h3 .3c.9-.1 1.9-.2 2.8-.2 1 0 2.1.1 3.1.2.3 0 .6 0 .8.1 1.3.6 2.6.4 4 .3.6-.1 1.2-.1 1.8-.1.4 0 .7.1 1.1.2 1.5.1 3-.3 4.5-.5.4-.1.8-.4.8-.8 0-1 0-2-.1-3-.1-.9-.3-1.9-.5-2.8-.2-1.1-.3-2.1-.5-3.2-.1-.5-.3-.9-.9-.9-.4 0-.9 0-1.3 0-1.2.1-2.5.2-3.7.3-.8.1-1.5.1-2.3.2-1.3.1-2.5.2-3.8.2-.8 0-1.7-.1-2.5-.1-1.3 0-2.6-.1-3.9-.1-1 0-2.1 0-3.1 0-.1 0-.3 0-.4-.1-.6-.2-1.4.2-1.5.7-.2.7-.3 1.3-.5 2-.2.7-.3 1.5-.5 2.3m43.9-6.5c-.9.1-1.8.2-2.7.3-.7.1-1.5.2-2.2.3-.5.1-1 .3-1.1.9-.2 1-.4 2-.5 3-.1.7-.1 1.4-.2 2.1-.1 1.3-.3 2.7-.4 4 0 .6.3.9.9.9.7 0 1.3-.2 2-.2s1.5.1 2.2.2c1.2.1 2.4.1 3.6.2 1 .1 2 .1 3 .2.9.1 1.8.1 2.7.2l3.6.3c1.2.1 2.4.1 3.6.1.1 0 .2-.1.3-.1.8-.2.9-.9.9-1.5 0-1-.2-2.1-.3-3.1-.1-.6-.1-1.2-.2-1.8-.1-1-.3-1.9-.4-2.9-.1-.7-.1-1.4-.2-2 0-.3-.3-.5-.5-.7-.2-.1-.6-.2-.8-.2-.9 0-1.8.2-2.8.2s-2.1 0-3.1-.1c-.4 0-.7 0-1.1-.1-1-.1-2-.2-3-.2-1.1-.1-2.2 0-3.3 0m-34.9 40.2 5.1-.3c.9 0 1.7-.1 2.6-.1 1.1 0 2.1-.1 3.2-.1h3.5c.3 0 .6-.1.6-.4 0-.9.1-1.9-.1-2.8-.4-1.7-1.6-3-3-4.1-1.2-.9-2.5-1.5-4-1.9-1.3-.4-2.7-.7-4.1-.7-.5 0-1-.1-1.4-.1-1.1-.1-2.2 0-3.2.3-1.3.3-2.5.8-3.7 1.5-1 .6-1.9 1.3-2.6 2.4-.8 1.4-1 2.9-.8 4.4.1.8.5 1.3 1.2 1.4 1.1.1 2.1.2 3.2.3.7.1 1.4.1 2.2.1.3 0 .7.1 1.3.1m82.4-43c.9-.1 1.9-.1 2.8-.2 1 0 2-.1 3-.1.3 0 .7-.1.7-.6 0-.9-.1-1.8-.5-2.5-.5-.9-1-1.8-1.5-2.6-1.1-1.7-2.7-2.8-4.7-3.3-1.7-.4-3.5-.5-5.2-.6-1.2-.1-2.3.2-3.4.5-1.7.5-3 1.5-4.3 2.7-1.1 1.1-1.9 2.4-2.4 3.9-.3.8-.6 1.6-.9 2.4-.2.4.2 1 .7 1 1 0 2 .1 2.9.1 1.3 0 2.6 0 3.9-.1 1.4-.1 2.9-.2 4.3-.3 1-.1 2-.1 3-.2.5 0 1-.1 1.6-.1m-121.3 38.3v.2c-.3 1-.5 2-.8 3-.2.6 0 .9.6.8.8 0 1.5-.1 2.3-.1s1.6-.1 2.4-.1c1 0 1.9-.1 2.9-.1h1.8c1.5 0 3.1-.1 4.6-.1h2.7c.4 0 .7-.4.7-.8-.1-.9-.2-1.8-.3-2.6-.1-1.2-.1-2.3-.4-3.5-.3-1.5-1.1-2.5-2.6-2.9-1.1-.3-2.2-.5-3.3-.9-1.2-.4-2.4-.6-3.6-.6-.4 0-.8.1-1.1.1-.4 0-.8 0-1.1.1-.5.1-1 .3-1.4.7-.3.3-.7.5-1 .8-.6.5-1.1 1-1.3 1.8-.4 1.4-.7 2.8-1.1 4.2m-1.3-31.7v.5c-.4 1.6-.3 3.2-.5 4.7-.1.7 0 1.4 0 2.1 0 .3.2.4.4.5.5.1 1 .2 1.5.2 1.1.1 2.2.1 3.3.1.2 0 .4-.1.6-.1 1 .1 2 .1 3.1.2.2 0 .3-.1.5-.1 1.1.1 2.2.1 3.3.2h4.3c.4 0 .6-.2.5-.5 0-1.3-.1-2.5-.1-3.8 0-1.1-.1-2.3-.1-3.4 0-.4 0-.7-.1-1.1-.1-.5-.5-.9-1-.9-1 0-2 .1-3.1.1-.9 0-1.9.1-2.8.1s-1.7.1-2.6.1c-1.6 0-3.2 0-4.8-.1-1.3-.2-1.9.1-2.4 1.2m131.7 29.7c0 .5-.1 1-.1 1.5 0 .2.2.4.4.5.1-.1.2-.3.3-.4.1-1.1.3-2.2.4-3.3.1-.7.2-1.3.3-1.9s.2-1.2.3-1.9c.1-.9.2-1.8.3-2.6.1-1.4.2-2.7.3-4.1 0-.9 0-1.9 0-2.8 0-1.4.1-2.8.2-4.1 0-.3.1-.6.2-.9.2-.6.6-1.2.7-1.8.2-.9.2-1.8.2-2.8s0-1.9.1-2.9c0-.8.1-1.6.1-2.3 0-.9 0-1.8 0-2.6 0-1.7 0-3.4 0-5.1 0-.8 0-1.6 0-2.4 0-.5.1-1 .1-1.5 0-.7.1-1.5 0-2.2-.1-1-.4-1.9-.4-2.9.1-.8 0-1.5-.1-2.3-.1-.7-.2-1.3-.2-2-.2-1.2-.3-2.3-.5-3.4-.1-.7-.2-1.2-1-1.4-1-.2-1.8 0-1.9 1.4-.1.9-.3 1.7-.4 2.6-.1.6-.3 1.1-.2 1.7 0 .8.3 1.6.3 2.4.1.9.2 1.7.1 2.6-.1 1.1 0 2.2.1 3.3 0 1.2.1 2.4.2 3.6 0 .4.1.9.1 1.3.1.6.1 1.3.2 1.9.1.8.1 1.5.2 2.3.1 1.2.4 2.4.4 3.6.1 1.3.1 2.6.1 3.9 0 .4 0 .7-.1 1.1-.3 1.3-.4 2.5-.2 3.8v.8c.1 1 .2 1.9.2 2.9s-.1 2-.2 3.1c0 .2.1.3.1.5 0 .8-.2 1.5-.2 2.3-.3 3.4-.2 6.9-.4 10.5m-48.3-3.4c-.8-.1-1.5-.2-2.3-.3-.6 0-1.1 0-1.7.1-.8 0-1.6 0-2.3.1-1.4.3-2.7.8-4 1.5-1 .5-1.8 1.3-2.2 2.3-.4.8-.6 1.6-.8 2.5-.3 1.1-.4 2.2-.2 3.4 0 .1.1.2.2.2h.6c1.5-.2 3.1-.5 4.6-.7 1-.2 2-.3 3-.5 1.5-.2 3.1-.4 4.6-.7.4-.1.8-.1 1.3-.1 1.4-.1 2.7-.3 4.1-.4.6 0 1.2-.1 1.7-.1.4 0 .8-.1 1.2-.1.5 0 .6-.2.4-.6s-.4-.9-.6-1.4c-.6-1.8-1.7-3.2-3.5-4-1.2-.6-2.6-.8-4.1-1.2m42.9 6.8c.4 0 .5-.4.4-.7-.5-1.2-.9-2.4-1.6-3.5-.9-1.5-2.2-2.5-3.9-3-1.3-.4-2.5-.8-3.8-1.2-1-.3-2-.6-3-.6-.8 0-1.5.1-2.2.3-1.8.5-3.3 1.4-4.3 3-.9 1.3-1.3 2.8-1.8 4.3-.2.7-.2.8.5 1.1.6.2 1.2.4 1.8.4.7.1 1.5.1 2.2.2 1.1.1 2.3.3 3.4.4 1.2 0 2.3 0 3.5-.1 1 0 2-.1 3-.1.6 0 1.1 0 1.7-.1 1.3-.1 2.7-.3 4.1-.4m-68.7-18.2c-.1-.6-.2-1.3-.2-1.9 0-.9-.1-1.8-.4-2.7-.2-.5-.3-1-1-1-.6 0-1.2 0-1.9 0-1.3.1-2.5.3-3.8.4-.9.1-1.7.1-2.6.1-.5 0-.9 0-1.4 0-.3 0-.6.1-.9.1-1-.1-2-.3-2.9-.3-3.6 0-7.2 0-10.8 0-.7 0-.8-.1-1 .8v.4c0 .6.1 1.3.1 1.9 0 .7-.1 1.4-.2 2.2-.1.9-.2 1.8-.3 2.7 0 .2 0 .6.2.7.3.2.3-.2.5-.4.7-1.4 1.9-2.3 3.5-2.8s3.2-1 4.8-1.5c1.2-.4 2.5-.7 3.8-.6 1 0 2.1.2 3.1.4 1.5.2 2.8.6 4.2 1.3 1.2.6 2.4 1.2 3.6 1.9.7.4 1.3.9 1.9 1.4s.9 1.3 1.3 2c.3.6.7 1.1 1 1.7 0 .1.2.1.3.2 0-.1 0-.2 0-.3-.1-1.1-.3-2.2-.4-3.4-.2-1.2-.3-2.2-.5-3.3m-5.6 1.7c-1.2-.5-2.3-1-3.5-1.5-1.3-.6-2.7-1-4.2-.9-.2 0-.4 0-.5 0-1.2-.1-2.4-.1-3.5.1-1.5.3-3 .7-4.5 1.2-1.4.5-2.5 1.2-3.3 2.5-.9 1.4-1.2 2.9-1.3 4.5 0 .6 0 1.1.1 1.7 0 .2.1.3.2.5.1-.2.3-.3.3-.5.2-.7.4-1.4.6-2s.5-.9 1.2-.9h.5c1.4-.5 2.9-.9 4.5-1 1.3-.1 2.6-.2 3.9-.4.7-.1 1.3-.2 1.9-.3.4-.1.9-.2 1.3-.2 1.2.1 2.2.7 3.3 1.2.7.3 1.3.7 2 1 1.4.6 2.7 1.2 3.6 2.5.2.2.5.5.8.5.8.1 1.2.6 1.5 1.3.2.6.4 1.3.7 1.9 0 .1.2.2.3.3.1-.1.2-.3.2-.4.1-.8-.1-1.6-.4-2.4-.5-1.4-1.1-2.8-1.6-4.2-.4-1.1-1-2.1-1.9-2.9-.8-.7-1.5-1.1-2.2-1.6m71.6-8.8c-1.2 0-2.3.1-3.5.1-.7 0-1.3-.1-2-.1-1.1 0-2.2-.1-3.3-.1-1.5 0-3.1.1-4.6.1-1.8 0-3.7 0-5.5 0-.1 0-.2 0-.3 0-.2-.1-.4-.1-.6.1-.1.2-.3.4-.4.5 0 .1.1.2.1.3 0 .2.1.4.1.6-.1.3-.2.6-.3.9-.1.8-.1 1.6-.1 2.4 0 1.3-.1 2.7-.1 4 0 .4.2.6.5.6.2 0 .5-.2.6-.4.4-.5.7-1.1 1.1-1.7.7-1 1.6-1.8 2.7-2.3 1.7-.8 3.5-1.5 5.4-1.9 1.1-.2 2.3-.3 3.4-.1s2.3.4 3.4.7c.8.1 1.6.2 2.3.5 1.4.5 2.8 1.1 4.1 1.8.7.4 1.3 1 1.8 1.6.4.4.6.9 1 1.4.1.2.4.3.6.4.1-.2.1-.4.2-.6 0-.2 0-.4 0-.7 0-1.4 0-2.8 0-4.1 0-1 .2-2.1.4-3.1 0-.4-.3-.8-.7-.8-1.4-.1-2.7-.1-4.1-.2-.8 0-1.4.1-2.2.1m-87.8-15.3c-.9 1.1-1.8 2.3-2.7 3.4-.1.2-.1.4-.2.6.2 0 .4.1.6.1 3.8-.1 7.5.2 11.3-.2.7-.1 1.4-.1 2.2-.2 1.1-.1 2.2-.2 3.3-.3h2.8 1.2c.3 0 .5-.1.3-.5-.1-.2-.3-.5-.4-.7-.6-1.2-1-2.5-2.1-3.4-.5-.4-1-.8-1.5-1.2-1.4-1.1-3.1-1.7-4.9-1.8-.8 0-1.7.1-2.5.2-1.2.1-2.4.4-3.5 1-.8.5-1.6 1-2.4 1.6-.5.5-1 .9-1.5 1.4m32 19.9v3.5c0 .6.2.7.7.5.2-.1.3-.2.4-.3.6-.5 1.1-1 2-1 .7 0 1.5-.2 2.2-.3 1-.1 2.1-.3 3.1-.4.7-.1 1.3-.1 2-.1.4 0 .9-.1 1.3-.1 1.3-.1 2.7-.2 4.1-.1 1.3.1 2.5.2 3.7.6 1.1.3 2.1.8 2.7 1.8.3.4.6.8 1.1.9.3.1.5.1.5-.3-.1-.9-.1-1.7-.2-2.6-.1-1.1-.2-2.3-.3-3.4 0-.5-.4-.9-.9-1-.8 0-1.7-.1-2.5-.1-.5 0-1.1 0-1.6 0-.6 0-1.3-.1-1.9-.1-.4 0-.9-.1-1.3-.1-.5 0-1.1 0-1.6-.1-.7-.1-1.5-.2-2.2-.4-.6-.1-1.1-.2-1.7-.3-.8-.1-1.5-.2-2.3-.2s-1.6.1-2.4.2c-1.2.1-2.5.1-3.7.1-.6 0-1.1.4-1.1 1.1-.1.7-.1 1.4-.1 2.2m60.5 5.5c-.2-.3-.3-.6-.5-.9-1-1.6-2.4-2.8-4.3-3.5-.8-.3-1.7-.6-2.6-.7-1.2-.2-2.4-.5-3.6-.6-1.1-.1-2.3 0-3.4.1-1.3.1-2.5.5-3.8 1-1.8.7-3.2 1.9-4.4 3.4-.1.1-.1.2-.1.2.1 0 .2.1.2.1.7 0 1.3 0 2-.1 1.4-.1 2.9-.3 4.3-.4.8 0 1.6.1 2.4.1h1.6c.4 0 .7.1 1.1.1 1.2.3 2.3.5 3.5.9s2.4.7 3.6 1.2c1 .5 1.9 1.1 2.8 1.7.6.4 1.1 1 1.2 1.8.2 1 .4 2.1.6 3.1.1.7.3 1.4.5 2.1 0 .1.1.2.2.2s.2-.1.2-.2c.1-.1.1-.3.1-.4 0-1.2 0-2.5-.1-3.7 0-.7 0-1.4-.2-2-.4-1.1-.9-2.3-1.3-3.5m-124.3-20.3c.6.1 1.2.2 1.8.2 1 0 2.1 0 3.1-.1.3 0 .7-.1 1-.1 1-.1 2-.2 3-.3.8 0 1.5.1 2.3.1s1.2-.4 1-1.2c-.4-1.4-.8-2.8-1.2-4.2-.5-1.5-1.8-2.6-3.5-2.5-.6 0-1.2.1-1.8.1-.8.1-1.7.1-2.5.2-1.9.3-3.4 1-4.3 2.9-.6 1.4-1.4 2.7-2.1 4-.3.5-.1.7.4.7s1 0 1.6.1c.5-.1.8 0 1.2.1m13.5 14.9c0-.9-.1-1.7-.1-2.6 0-.4-.2-.6-.5-.6-.8-.1-1.6-.2-2.4-.2-1.1 0-2.3 0-3.4 0-.6 0-1.2 0-1.7 0-1.1 0-2.1.2-3.2.2-1 0-1.9-.1-2.9-.2-.8 0-1.6-.1-2.4-.1-.5 0-1.2.3-1.2.7-.1.6-.1 1.3-.1 2v.6c-.1 1-.2 2-.3 3 0 .4.2.4.5.3.5-.2.9-.3 1.4-.5 1.5-.7 3.1-1.1 4.7-1.1.4 0 .7.1 1.1.1h1.9c.9.1 1.9.2 2.8.3.3 0 .6 0 .9.1 1.3.3 2.6.7 3.8 1.4.3.2.7.3 1 .5.4.1.6-.1.5-.4-.2-1.1-.3-2.2-.4-3.5m83.8-34c.1-.1.2-.3.3-.4.4-.4.8-.9 1.3-1.2.7-.6 1.5-1.1 2.3-1.6.9-.5 1.8-.9 2.7-1.3.1 0 .2-.1.3-.2-.1 0-.2-.1-.3-.1-.7-.2-1.4-.3-2.2-.2s-1.7 0-2.5 0c-1.2 0-2.4.1-3.7.1-.6 0-1.2.1-1.7.1-1.3.1-2.5.2-3.8.3-1 .1-1.9.1-2.9.2-.4 0-.7.1-1.1.1-1.4.1-2.8.2-4.2.4-.3 0-.7.2-1 .3-.1 0-.2.2-.2.3s.1.2.2.2c1.1.3 2.2.6 3.3 1 1.2.4 2.5.7 3.6 1.3 1.2.6 2.4 1.4 3.5 2.1.8.5 1.6 1 2.4 1.5s1.5.1 1.9-.5c.6-.8 1.2-1.6 1.8-2.4m-85.8 41.3c.6.3 1.1.6 1.7.8.3.1.6.1.9.1.1 0 .2-.2.2-.3-.3-1.3-1-2.4-2.2-3.2-1-.7-2.1-1-3.2-1.4-1.2-.3-2.4-.6-3.6-.6-2.3-.1-4.6.1-6.9.5-1 .2-2 .5-2.7 1.3-1.2 1.3-1.5 2.8-1.6 4.5v2.3c0 .2 0 .4.1.6.2-.1.5-.1.7-.3.3-.2.5-.6.8-.8.6-.4 1.1-.9 1.8-1.2.8-.4 1.7-.8 2.6-1.2 1.7-.7 3.3-1.6 5.2-1.8 1.4-.2 2.7-.2 4.1.1.6.1 1.4.3 2.1.6m-34.6-10.4v.1c0 1.4 0 2.7-.2 4.1-.2 1.2-.3 2.4-.5 3.6 0 .3 0 .6.4.7.6 0 1.2.1 1.8.1 1.1-.1 2.1-.3 3.2-.6.5-.1 1.2-.2 1.2-1.1 0-.6.3-1.2.3-1.8.1-.8-.6-1.5-1.4-1.5-.6 0-1.1 0-1.7 0-.8 0-1.5.1-2.3.1-.1 0-.2-.1-.3-.1 0-.1.1-.2.2-.3.4-.6 1.1-.7 1.8-.7 1-.1 2-.1 2.9-.1.5 0 .7-.3.8-.8 0-.4.1-.8.1-1.2 0-.9.6-1.6 1.2-2.2.1-.1.3-.2.5-.3 0 .2 0 .4.1.6v.2c.1.7.2 1.4 0 2.1s.1 1.1.8 1.1c.8 0 1.5-.1 2.3-.2.2 0 .5-.3.6-.5.1-.3.1-.6.1-.9.1-.8.3-1.7.3-2.5 0-.4-.3-.7-.7-.7-.6 0-1.3 0-1.9 0-.8 0-1.5.1-2.3.2-.4 0-.9 0-1.3.1-1.1.1-2.1.2-3.2.4-.8.1-1.6.2-2.4.3-.3 0-.5.3-.5.6.1.3.1.7.1 1.2m104.7-27.7c-.1-.2-.1-.4-.3-.5-.6-.7-1.4-1-2.2-1.2-.5-.1-1.1-.4-1.6-.3-2.1.5-4.1 1.2-6 2.1-1 .5-2.1 1.1-3.2 1.3-1.3.3-1.8 1.3-1.6 2.4.2 1.3.4 2.6.7 3.9.1.3.3.5.6.4.5-.2.9-.4 1.4-.7.3-.2.5-.5.5-.9-.1-.9-.3-1.8-.4-2.7-.1-.8-.3-1.5.4-2.2.2-.1.2-.2.3 0 .5.5.7 1.2.8 1.9 0 .9.1 1.7.1 2.6 0 .3.2.5.5.4.6-.2 1.3-.4 1.9-.6.5-.2.8-.6.9-1.2.2-1.1.3-2.1.6-3.2.1-.4.4-.7.6-1 0-.1.3-.1.3-.1.2.3.4.6.4 1-.1.7-.2 1.3-.3 2 0 .3 0 .6-.1.9-.1.6.1 1.1.7 1.2.4.1.8.1 1.1.1.4 0 .6-.2.5-.6 0-.4-.1-.7-.1-1.1 0-1.3 0-2.6.1-3.9 0-.3.1-.6.5-.5.2 0 .5.3.5.5.1 1 .2 1.9.2 2.9v2c0 .9.6 1.2 1.5 1.4.3.1.5-.1.5-.4-.1-.4-.2-.8-.2-1.2.1-.7.3-1.4.4-2.1 0-.7.4-1.6 0-2.6m.9 13.5c.2 0 .3-.1.5-.1h2.3s.1-.2.1-.3-.1-.2-.2-.2c-1.5-1.2-2.9-2.5-4.4-3.6s-3-2.1-5-1.8c-.8.1-1.6.2-2.3.3-1.4.2-2.5.9-3.6 1.8-1.2 1.1-2.4 2.2-3.6 3.3-.1.1-.2.2-.2.3v.8s.3.1.5 0c.9-.1 1.8-.3 2.8-.5.9-.1 1.8-.2 2.7-.4s1.9-.1 2.8-.1c1.4.1 2.7.3 4.1.3 1 .3 2.2.2 3.5.2m-1 23.3c.3.1.6.2.9.4 1.6.8 2.9 2 3.9 3.5.3.5.7 1 1.1 1.4.1.1.4.2.6.1.1-.1.3-.4.2-.5-.6-1.4-.8-2.9-1.6-4.2-.8-1.4-2-2.5-3.4-3.3-1.3-.7-2.8-1.2-4.3-1-.7.1-1.3 0-2 .1-1.3.2-2.5.4-3.8.5-1.4.1-2.7.1-4.1.1-.8 0-1.6.2-2.4.6-1.8 1-2.5 2.6-2.5 4.6 0 .3.2.6.3.9.2-.2.5-.3.7-.5.1 0 .1-.1.2-.2.8-1.3 2.1-2.1 3.5-2.7 1.6-.6 3.4-.8 5.1-.8 1.3 0 2.5.1 3.8.2 1.1.3 2.4.5 3.8.8m-53.6-30.6v.6c.1 1.1.3 2.3.5 3.4.1.6 0 1.1 0 1.7 0 .1.2.2.2.1.1-.1.3-.2.4-.3.4-.5.8-1 1.3-1.5 1.1-1.2 2.7-1.9 4-2.7.8-.5 1.6-.9 2.4-1.4.1-.1.3-.3.3-.5 0-.9-.1-1.7-.2-2.6 0-.5 0-1 .3-1.4.1-.2.3-.2.4-.1.3.3.5.6.6 1.1 0 .8.1 1.6.2 2.4 0 .1.2.3.4.4h2.4s.1-.1.1-.2c-.2-.3-.4-.6-.5-1-.1-.8-.2-1.7-.3-2.6-.1-1.1-.4-1.5-1.5-1.4-1.4.1-2.8.3-4.2.4-1.2.1-2.2.4-3.1 1.1-.8.6-1.6 1.3-2.4 1.9-.6.6-1.1 1.4-1.3 2.6m-44.4 9.1c-1.6 0-3.2 0-4.9 0-.8 0-1 .2-1 1 0 1.3 0 2.6-.2 4-.2 1.2-.3 2.5-.4 3.7 0 .2-.1.7.5.6h1.4c1.1-.1 2.2-.3 3.4-.4.8-.1 1-.1 1.2-.9.1-.4.3-.8.3-1.3 0-.2 0-.4 0-.6 0-.8-.1-1.6 0-2.4.1-.9.3-1.8.4-2.8.3-.7-.1-.9-.7-.9m130.4 25.7c-.2-.3-.4-.6-.5-.9-.2-.7-.4-1.4-.2-2.2.1-.3.2-.9-.2-1-.8-.3-1.6-.7-2.4-.7-1.5 0-3 .2-4.5.3-.9.1-1.7.2-2.6.4-.4.1-.8.2-.9.7s-.3.9-.4 1.4c-.2.7-.3 1.5-.1 2.2.1.5 0 .7-.4.8-.2 0-.4.1-.6.1-.9.2-1.1.5-1.1 1.4v.6 4.7c0 .2.2.5.4.5.2.1.5 0 .5-.4.2-.6.5-1.3.6-1.9.3-1 .6-2.1 0-3.2-.1-.2.2-.5.3-.8.1.1.3.1.4.2s.2.3.4.5c.1.1.4.3.5.3.5-.2 1-.4 1.5-.7.4-.2.3-.6.1-1s-.5-.8-.6-1.3c-.2-.5-.2-1.1-.3-1.6-.1-.6.1-1.1.3-1.5.1-.1.2-.3.3 0 .7 1 .9 2.1 1.1 3.3.1.4.2.7.6.7.4.1.9-.3.9-.6 0-.8-.1-1.5-.2-2.2-.2-.7-.2-1 .4-1.5.1-.1.3 0 .3 0 .6.7.9 1.5.9 2.5 0 .8.2 1.1 1.1 1.1h.4c.6 0 .6-.1.4-.6-.4-1-.5-1.9.1-2.8.2-.2.2-.2.3 0 .4.7.8 1.4.8 2.3 0 .7.3 1.1 1 1.3.4.1.7.3 1.1.4.2.1.4 0 .6.1 0-.2-.1-.3-.1-.5-.1-.3-.1-.3-.2-.4m-62.8-35.7c0-.5 0-1 0-1.5 0-.7-.5-1.2-1-1.6-.3-.2-.5-.1-.5.2 0 .7 0 1.5.1 2.2s-.1 1.3-.2 1.9c0 .2-.4.4-.6.4s-.4-.3-.5-.4c-.1-.2-.1-.4-.1-.5-.1-1.2-.1-2.5-.2-3.7 0-.5-.3-1-1-1.2-1.4-.3-2.8-.6-4.2-.9-.7-.2-1.1.1-1 .8 0 .5.1 1 .2 1.5.1.9.2 1.8.4 2.7 0 .3.3.5.6.5h1.2c.2 0 .4-.2.4-.3 0-.9-.1-1.8-.1-2.7 0-.5 0-.9 0-1.4 0-.2.2-.3.4-.1.5.4.7 1 .8 1.6.2.8.3 1.7.1 2.5-.1.7 0 1.4.6 1.9.5.4 1 .7 1.5 1.1.7.6 1.4 1.2 2 1.9.5.5.9 1 1.2 1.5.8 1.3 1.1 2.9 1.7 4.3.1.1.2.2.3.3.1-.1.2-.3.2-.4 0-.8-.1-1.6-.2-2.4-.1-1.3-.2-2.6-.3-4-.1-.7-.2-1.5-.3-2.2 0-.1-.2-.3-.3-.3s-.3.2-.3.3c-.1.1-.1.3-.1.5-.1.5-.3.9-.4 1.4 0 .2-.1.1-.2.1-.6-.2-.5-.6-.5-1 .2-1.1.2-2 .3-3m-71.5 8.9h3.6c.8 0 1.2-.3 1.2-1.2 0-1.4 0-2.9 0-4.3 0-.7.1-1.4.2-2.2.1-.9-.4-.9-1-.7-1.4.3-2.9.8-4.3 1.2-.8.2-1.4.6-1.3 1.7 0 .7 0 1.4-.1 2.1 0 .6-.1 1.1-.2 1.7 0 .6-.1 1.2-.1 1.8 0 .3 0 .5.5.4.4-.3.9-.4 1.5-.5m139.6 23.9c-.5-.2-1-.3-1.5-.5-.9-.2-1.9-.4-2.8-.6-.2 0-.5 0-.6.1s-.1.4 0 .6c.6.9.7 1.9.7 3 0 .8.2 1.5 1.1 1.7.3.1.6.2.9.4 1 .5 2.1 1 3.1 1.6 1.1.7 2.1 1.5 2.7 2.8.4.9.7 1.9 1.1 2.9.1.3.3.5.4.8h.2c.1-.2.2-.5.2-.7-.1-.5-.2-1.1-.3-1.6-.3-1.2-.5-2.5-.8-3.7-.2-.8-.4-1.7-.6-2.5-.2-.7-.4-1.5-.7-2.1-.7-1.2-1.9-1.7-3.1-2.2m-55.1-41.1c.1-.1.2-.1.3-.2.6-.4 1.3-.9 1.9-1.3 0 0 .1-.1.1-.1s-.1-.1-.1-.1c-.5 0-1-.1-1.5 0-1.6.3-3.1.6-4.7.9-.9.2-1.8.2-2.6.3-1.5.1-3.1.2-4.6.3-.9.1-1.9.1-2.8.2-.1 0-.3.2-.4.3.1.1.2.2.4.3 1.1.4 2.2.7 3.3 1.1 1.4.5 2.7 1.2 3.8 2.2 1.1.9 2.3 1 3.1-.2 1.1-1.3 2.3-2.6 3.8-3.7m-49.4 29.2c.1 1.2.2 2.3.3 3.5.1 1.3.3 2.6.5 3.8.1 1.3.2 2.6.4 3.8.1.8.3 1.7.7 2.4.6 1.5 1.5 2.8 1.5 4.4 0 .2.2.3.3.5.1-.2.3-.3.3-.5.1-.9.1-1.8.1-2.7 0-.7-.2-1.5-.3-2.2-.1-.8-.3-1.7-.4-2.5-.1-.9-.2-1.7-.4-2.6-.1-1-.3-1.9-.5-2.9-.1-.8-.3-1.7-.4-2.5-.2-1.3-.4-2.6-.6-3.9-.1-.7-.2-1.4-.3-2.1-.2-1-.4-2.1-.6-3.1-.1-.5-.3-1.1-.5-1.6 0 0-.2-.1-.2-.1-.1.3-.3.5-.3.8 0 .8 0 1.7.1 2.5 0 .9.1 1.8.2 2.7 0 .9 0 1.6.1 2.3m67.8 14.3c0 .6.1 1.2.1 1.8 0 .2-.3.5-.5.7-.2-.2-.5-.3-.6-.5-.1-.3-.1-.7-.2-1-.2-1-.4-2-.7-3.1-.2-.8-.6-1-1.4-.9-.5 0-.8.3-.7.7.1.7.3 1.4.4 2.2.1.6.3 1.2 0 1.8-.1.2-.3.3-.4.4-.3-.3-.7-.6-.7-.9-.3-1-.5-2-.6-3.1-.1-1-.2-1.2-1.1-1.3-.5-.1-1 .3-1 .9 0 .5.1 1 .2 1.6.1.8.2 1.6.3 2.4.1.3.2.7.6.8.3.1.7.1 1 .2 1.1.2 2.1.4 3.1.7.6.1 1.1.4 1.7.4 1 0 1.9.3 2.7.9s1.6 1.2 2.4 1.8c.3.2.5.2.5-.2 0-.2 0-.4-.1-.5-.4-1-.9-1.9-1.4-2.9-.2-.3-.4-.4-.7-.1-.2.2-.4.4-.5.6s-.2.1-.3 0c-.3-.4-.5-.8-.4-1.3 0-.4 0-.8 0-1.3-.1-.6-.2-1.3-.9-1.6-.2-.1-.5-.2-.8-.3 0 .2-.1.5-.1.7.1.1.1.2.1.4m-93.5-26.6c.7-.3 1.2-1 1-1.7-.3-.8-.2-1.7-.1-2.5.2-1.4.3-2.8.6-4.3.1-.5.3-.9.5-1.4.1-.2.1-.4.2-.6-.2 0-.4-.1-.5 0-1.1.2-2.2.4-3.3.8-.7.2-1.2.4-1.2 1.6v3.2.4c.1.6.1 1.2.2 1.8v2.4c0 .1.2.4.4.4.6-.1 1.3-.1 2.2-.1m38.1-14.7c0-.4-.3-.5-.6-.5-.7 0-1.4.1-2.1.1-.1 0-.3 0-.4 0-.9.1-1.7.2-2.6.2-1.2 0-2.3-.1-3.5-.1-.7 0-1.3-.1-2-.1-.5 0-.9 0-1.4.1-.3 0-.3.2-.2.5.2.4.6.6.9.8 1.3.7 2.4 1.6 3.5 2.6.6.5 1.3 1 1.9 1.5.3.2 1 .3 1.3 0 .4-.4.7-.8 1.1-1.1.8-.8 1.6-1.6 2.4-2.3.6-.7 1.2-1.1 1.7-1.7m-47.6 38c-.8.1-1.6.3-2.3.4-.6.1-1.3.4-1.2 1.3v1.2c0 1.1.1 2.2.1 3.3 0 .4.3.5.6.5.7 0 1.4-.1 2.1-.1h1.9c.4 0 .7-.3.8-.7.2-.8.4-1.6.5-2.4.1-.4.2-.9.2-1.3.1-.7.1-1.4.1-2.1 0-.1-.3-.3-.4-.3-.4 0-.8 0-1.2.1-.3-.1-.7 0-1.2.1m144.2-32.4c.2.2.4.5.6.7.2.1.4.1.6.1.1 0 .2-.3.1-.4-.1-1-.2-2-.4-3-.3-1.2-.9-2.3-1.7-3.2-.3-.3-.4-.3-.5.1s-.2.9-.4 1.3c-.1.2-.2.3-.2.5-.1-.1-.1-.3-.2-.4-.3-.5-.4-1-.1-1.6.2-.3.1-.6-.1-.8s-.5-.3-.7-.5c-1.2-.6-2.4-.5-3.7-.6-.7-.1-1.4 0-2.1.1-.6 0-1 .5-.8 1 .1.3.1.5.2.8.3 1.2 1.7 2.2 2.8 1.9.9-.3 1.8-.1 2.5.4.8.6 1.6 1.1 2.4 1.7.6.6 1.1 1.2 1.7 1.9m-146.5 48.3c1.1-.1 2.2-.2 3.3-.3.6-.1 1-.5 1-1.1-.1-1.6.1-3.2.4-4.8.1-.4-.1-.7-.5-.8-.2 0-.4 0-.6.1-1.3.1-2.6.2-3.8.4-.7 0-1.2.2-1.2 1.2.1 1.5 0 3 0 4.4 0 .8.5 1.2 1.4.9m1.1-50c0 .9-.1 1.7-.1 2.6 0 .4.2.5.5.4 1.6-.6 3.2-1.2 4.9-1.7.5-.2.6-.5.6-.9 0-1.1-.1-2.2.3-3.3.3-.6-.1-.9-.7-1-.6 0-1.3-.2-2-.2-.8 0-1.5-.1-2.3-.1-.5 0-.8.3-.8.7-.1.6-.1 1.1-.2 1.7s-.1 1.1-.2 1.8m11.4 15.5c0-.9 0-1.7 0-2.6 0-.5-.3-.9-.8-.9-.7-.1-1.4-.1-2.2-.1-.4 0-.7.3-.7.7-.1.7-.1 1.4-.2 2.2-.1 1.3-.1 2.5-.2 3.8 0 .5-.1 1-.2 1.5 0 .4.1.6.5.5.9-.1 1.8-.2 2.7-.3.3 0 .6-.3.7-.5.1-.3.1-.7.1-1 .1-1.1.2-2.1.3-3.3m123.1-21.3c-.3-.3-.7-.3-1-.3-1 .1-1.9.1-2.9.2-.3 0-.7-.1-1 0-1.2.4-2.4.8-3.5 1.3-.5.2-1 .5-1 1.2v1.4c.1.6.2 1.2.4 1.8.1.3.3.7.7.6.7-.2 1-.3.9-1-.1-.8-.1-1.7-.2-2.5 0-.2.2-.3.3-.5.2.1.4.2.5.3.3.5.5 1 .8 1.5.2.4.4.5.8.3.5-.2 1.1-.4 1.6-.7.1-.1.3-.2.3-.3.1-.5.1-1 .1-1.5 0-.4 0-.8 0-1.2 0-.1.1-.4.3-.2s.5.5.6.8c.2 1 .6 1.7 1.6 1.9.6.1 1.3-.2 1.3-.7-.1-.9-.4-1.6-.6-2.4m-124.4 39.6c0-.1.1-.2.1-.3.1-.2.2-.5.1-.6s-.4-.2-.6-.2c-.8.1-1.7.2-2.5.4-.4.1-.9.3-.9.9 0 .4 0 .8-.1 1.2-.1.9-.1 1.8-.2 2.6 0 .4-.1.8-.2 1.2-.1.9.2 1.5.9 1.7s1.5.3 2.2.4c.9.1 1.2-.2 1.2-1 0-.6 0-1.1 0-1.7 0-.7-.2-1.4-.2-2 .1-.9.1-1.7.2-2.6m39.4 9.8v.3c0 .1 0 .3.1.4.2-.1.4-.1.5-.2.4-.3.8-.6 1.2-.9 1.3-1 2.6-1.9 4.1-2.3.9-.3 1.2-.8.9-1.6-.2-.6-.1-1.1.2-1.6.1-.2.1-.3.3-.1.5.5.8 1 .8 1.8-.1.6.3.9.8.8.3 0 .7-.1 1-.2.8-.2.8-.4.7-1.1-.1-.6-.1-1.2 0-1.8.1-.5 0-.6-.5-.6s-1 .1-1.5.2c-.8.1-1.6.2-2.4.3-.4.1-.7.2-.6.7.1.3.1.6.1 1 0 .6.3 1.2-.1 1.7-.2.2-.4.5-.7.1-.2-.2-.3-.5-.3-.8-.1-.5-.1-1.1-.1-1.6 0-.1-.2-.4-.3-.4-.6-.1-1.5.1-1.8.9-.3.7-.5 1.4-.8 2.2-.1.4-.3.6-.7.8-.2.1-.4.3-.6.4-.4.3-.3.9-.3 1.6m-44.1 2.6v2.5c0 .5.4.8.8.6 1-.4 2-.5 3-.5.5 0 .8-.3.8-.7 0-.7 0-1.4 0-2.2 0-.3-.1-.7-.1-1 .1-.7.2-1.5.3-2.2 0-.2-.1-.3-.3-.2-.3 0-.7.1-1 .1-.5 0-1.1.1-1.6.1-.3 0-.6.1-.9.1-.6 0-1 .6-1 1.5.1.6 0 1.2 0 1.9m12.2-2.5s.1 0 .1-.1c.1-.4.3-.9.3-1.3 0-.8 0-1.5.3-2.2.1-.3.3-.5.5-.8.2.2.3.4.5.6.5.7 1.2.7 1.6-.1.2-.5.3-1.1.5-1.6.1-.2.1-.4.5-.2.5.4 1.2.6 1.8.1.4-.3.7-.8 1-1.2.4-.6.4-.6.8-.1.1.1.2.3.2.4.2.5.6.7 1.1.7.3 0 .5-.1.5-.4.1-.5.4-1 .5-1.5.1-.3.2-.3.4-.1.4.4.6.8.7 1.4.2 1.1.9 1.3 1.9 1 .2-.1.4-.2.2-.5-.3-.6-.3-1.2-.2-1.8 0-.4-.2-.8-.6-.8-.6-.1-1.1-.1-1.7-.1s-1.1.1-1.7.1c-.7 0-1.3.2-1.9.6-.5.3-1 .5-1.5.7-1.7.7-3.5 1.3-5.1 2.4-1.2.8-2.1 1.7-2 3.3.2.6.7 1.4 1.3 1.5m31.8-33.5c.1-.5.2-1.2-.2-1.6-.5-.5-.3-1.1-.4-1.6-.1-.7 0-1.4 0-2.1 0-.2-.3-.4-.4-.6-.1.1-.3.2-.3.4-.3.9-.5 1.9-.7 2.8-.1.7-.2 1.4-.4 2-.6 2-.8 4-.8 6 0 .6 0 1.3.1 1.9.1.7.2 1.3.3 2 0 .1.2.2.3.4.1-.1.2-.3.2-.4.1-.5.1-1 .2-1.6.2-1.2.4-2.4.6-3.7.2-1 .5-2 1.1-2.9 0-.3.2-.6.4-1m-39.9-20.9c.9.1 1.7.1 2.6.2.3 0 .3-.3.1-.5-.5-.5-1.2-.4-1.9-.5-.4-.1-.9 0-1.4-.1-.2 0-.4-.2-.6-.2.2-.2.5-.4.7-.6h.3 2.2c.4 0 .6-.1.5-.5 0-.2 0-.4 0-.5.1-.9.1-1.9.2-2.8 0-.4-.2-.5-.6-.4-.2.1-.4.2-.6.2-.8.1-1.6.1-2.4.2-.6 0-1.1.6-1.1 1 0 .2.1.5.1.7v3.3c0 .4.1.5.5.5zm19 12c.1-.4.2-.8.2-1.2 0-.2-.3-.6-.4-.6-.9-.1-1.9-.1-2.7.3-1.4.7-2.7 1.6-4 2.4-.2.1-.5.3-.6.5-.2.8-.3 1.6-.4 2.4 0 .4.3.6.6.4.5-.3.8-.8 1.2-1.2.1-.1.2-.4.1-.5-.2-.5.1-.9.2-1.3.1-.2.1-.1.2 0 .2.4.6.7.5 1.2 0 .2.1.4.4.4.8 0 1.3-.4 1.3-1.3 0-.7.2-1.3.6-1.9 0-.1.3-.1.3-.1.2.4.4.7.5 1.1s.1.9.2 1.3.5.5.9.4c.2-.1.4-.3.5-.5.1-.5.2-1.1.4-1.8m-21-8.8c-.2.7-.3 1.4 0 2.1.1.3.4.5.9.5.9-.1 1.7-.1 2.6-.1.5 0 1.1-.4 1.1-.7.1-1.1.2-2.2.3-3.3 0-.4-.3-.6-.8-.5-.8.2-1.6.3-2.5.1-.5-.1-1.2-.2-1.5.4-.1.4-.1.9-.1 1.5m-6.7 1c-.1.4-.1.7-.2 1.1 0 .2 0 .4.1.7.2 0 .4-.1.7-.1.6-.6 1.4-.5 2.1-.3.5.1 1 .2 1.5.2.4 0 .7-.3.7-.7.1-.8.2-1.6.3-2.4.1-.6-.2-1.1-.6-1.1-1.2 0-2.3 0-3.5 0-.3 0-.8.1-.8.6-.1.7-.2 1.3-.3 2m86.3 14.5c.1-.3.3-.5.4-.8.3-.6.5-1.3.5-2 0-.8-.2-1.7-.3-2.5-.1-.5-.2-.9-.4-1.4 0-.1-.2-.1-.2-.1-.2.2-.5.3-.6.5-1.1 1.8-1.6 3.7-1.8 5.8-.1 1.1-.2 2.1-.2 3.2 0 .3-.2.8.2.9s.7-.4.8-.7c.6-1 .9-2 1.6-2.9m34.4 4.5c.1-.1.1-.2.2-.3.3-.3.6-.7.3-1.2-.1-.1-.1-.4 0-.6.1-.6.3-1.2.4-1.8.2-1.7.8-3.4 1.5-4.9.2-.5.4-1 .4-1.5 0-1-.2-2-.3-3 0-.2-.2-.3-.4-.1-.3.4-.7.8-.8 1.4-.3 1.4-.7 2.8-1 4.2-.3 1.5-1 2.9-.8 4.5.2 1 .1 2 .1 3 0 .1.2.2.4.3m-34.3 27.2c0 .9.1 1.9.1 2.8 0 .2-.1.4-.2.6-.1-.1-.3-.3-.4-.4 0 0-.1-.1-.1-.1-.2-.2-.4-.3-.6-.5 0 .3-.1.5-.1.8v3.6c0 .2-.2.5.2.6.1 0 .2-.4.3-.6.2-.6.3-1.3.6-1.7.7-.8 1.5-1.6 2.3-2.3.3-.3.6-.8.5-1.1-.5-1-.5-2-.5-3.1 0-.3 0-.6-.1-.9 0-.1-.2-.2-.3-.2-.5-.1-1.3.5-1.4 1-.3.5-.3 1-.3 1.5m18.5-39.5c-.2-.4-.3-.8-.5-1.1-.3-.4-.5-.3-.6.2-.1.7-.2 1.4-.3 2.1 0 .7 0 1.3.1 2s.1 1.5.5 2.2c.6 1 1.4 1.7 2.2 2.5.1.1.4.1.6.1 0-.2.1-.3.1-.5 0-.1 0-.2-.1-.3-.5-1.5-1.2-3-1.5-4.6-.1-.9-.3-1.7-.5-2.6m-94.8-4.1c-.8 0-1.6 0-2.3 0-.4 0-.8 0-1.2 0-.2 0-.6.1-.2.5.1.1.2.4.2.6.1.5.1 1 .1 1.5 0 .8.5 1.3 1.1 1.2.7-.1 1.4-.3 2.1-.5s1.3-.5 1.5-1.2c.1-.4 0-.9 0-1.3 0-.5-.2-.7-.7-.7-.2-.1-.4-.1-.6-.1m59.3 43.1c-.3-.2-.5-.5-.8-.7s-.7 0-.7.2v2.1c0 .5.1 1 .6 1.3s1.1.6 1.6.9c1 .6 1.9 1.3 2.5 2.4.3.6.6 1 1 1.6 0 .1.1.1.2.1 0-.1.1-.2.1-.2-.1-.5 0-1-.2-1.5-.4-1-.8-2-1.3-3-.2-.4-.5-.8-.8-1.1-.2-.3-.4-.2-.6 0-.1.2-.3.3-.5.5-.3.3-.6.2-.7-.2s-.2-.8-.3-1.2 0-.8-.1-1.2m-56.2-37.7.6-.6c.6-.7 1-1.5 1.7-2 .7-.6 1.5-1 2.2-1.5.5-.3.6-.9.2-1.3-.1-.1-.2-.1-.3-.2 0 .1-.1.3-.1.4.1.3-.1.5-.4.5-.4.1-.8.1-1.2.2-.7.2-1.4 0-1.9-.4-.3-.2-.5-.5-.8-.7h-.1c-.1 1-.2 2-.3 3v2.5c0 .1 0 .2.1.3 0 0 .1-.1.3-.2m-11.9-17.1c0 .5 0 1 .1 1.5 0 .1.1.2.2.2.9.2 1.8.5 2.7.7.8.2 1.2-.2 1-.9s-.1-1.3.2-1.9c.2-.3.1-.5-.3-.5-1-.1-2-.3-3.1-.4-.1 0-.2 0-.2.1-.5.2-.6.6-.6 1.2m7.2 43.6c-.6 0-1.1-.1-1.7-.1-.3 0-.7.3-.7.5-.2.9-.3 1.9-.4 2.9 0 .4.3.6.7.5.7-.2 1.4-.3 2.1-.5.6-.2.9-.2.8-.9 0-.5 0-1.1 0-1.6.1-.7.1-.8-.8-.8m82.2 7c-.2 0-.5 0-.7 0-.2.1-.5.2-.5.3-.1.6-.3 1.3-.2 1.9.1.9.4 1.9.5 2.8.1.5.2.6.7.6h.6c.6 0 1-.5.9-1.1-.2-1.1-.4-2.2-.6-3.2-.1-.4 0-1-.7-1.3m2.5 3.4c.1.4.1.8.3 1.2.1.2.4.4.6.4.5.1 1 0 1.4 0 .3 0 .4-.1.2-.4-.7-1.5-1.1-3.1-1.3-4.7-.1-.4-.2-.7-.6-.7-.2 0-.5 0-.7 0-.6.1-.8.3-.7.9.2 1.1.5 2.2.8 3.3m-88.1-48.9c.2-.5.1-1.1-.3-1.3-1.1-.4-2.2-.9-3.3-1.3-.4-.2-.6 0-.8.5-.2.6-.3 1.3-.2 2 0 .2-.1.5 0 .6.2 0 .4.1.7.1.7-.1 1.5-.1 2.2-.2.6-.1 1.1-.2 1.7-.4m57.3 50.3c0-.2.1-.4.1-.6 0-.7 0-1.3 0-2 0-1.1-.7-1.6-1.8-1.3-.4.1-.7.4-.6.9.2 1 .4 2 .6 3 0 .2.3.4.5.4.4-.1.8-.3 1.2-.4m3.4-2.7c-.3-.2-.7-.4-1-.5-.4-.2-.6 0-.6.4v1.3 1.7c0 .4.2.7.5.6.4-.1.8-.1 1.2-.2.3-.1.6-.2.5-.6 0-.3 0-.5 0-.8 0-.7 0-1.4-.6-1.9m-48.6-29.6c-.4 1-.8 2-1.1 3-.2.5-.2 1.1.2 1.6.1.2.1.2.2 0l.6-1.5c.2-.8.3-1.7.9-2.4.8-.9 1.1-1.9 1-3.1 0-.2-.1-.4-.2-.6-.2.1-.4.3-.6.4-.1.1-.1.2-.2.4-.4.7-.6 1.4-.8 2.2m-1.9 43.5c.1-.3.3-.5.3-.8.1-.3.1-.7.2-1.1.1-.8.3-1.5.3-2.3 0-.6-.1-1.3-.2-1.9 0-.2-.3-.4-.5-.6-.1-.1-.3-.1-.3.1 0 .4-.2.8-.2 1.2 0 1.5 0 3 .1 4.6 0 .4.2.6.3.8m-13.5 1.3c.3 0 .4-.1.4-.4 0-.9 0-1-1-1-1.1 0-2.1 0-3.2 0-.3 0-.7.2-1 .4 0 0 0 .3.1.3.1.1.3.1.4.1.5.1 1 .1 1.5.2 1 .1 1.8.2 2.8.4m31-50.1c-.3-.3-.5-.7-.8-1-.1-.1-.2-.2-.3-.1-.1 0-.1.2-.2.3-.1.7-.1 1.5-.2 2.2 0 .4.1.8.5 1 .2.1.6.3.7.3.2-.1.5-.4.5-.7.1-.7.2-1.4-.2-2m-3.9 1.1c.6.2 1.3-.1 1.3-.8 0-.6-.1-1.1-.1-1.7 0-.8-.1-.9-.7-1.1-.2 0-.4-.1-.5 0s-.1.4-.1.5c.2.6.1 1.1 0 1.6 0 .6 0 1.1.1 1.5m2.8 35.3c.2.4.4.6.8.7.1 0 .3-.1.3-.1.1-.5.2-1.1.2-1.6s-.3-1-.8-1.3c-.5-.2-.7-.1-.7.4.1.6.2 1.2.2 1.9m3.4-.4c-.2-.1-.3-.2-.5-.3-.1 0-.2.1-.3.2-.3.9.3 1.6.7 2.3.1.1.3.1.5.1 0-.1.1-.2.1-.3-.2-.6-.3-1.3-.5-2m-35.4 3.7c-.2 0-.3 0-.4 0-.8 0-1.5 0-2.3.1-.1 0-.2.3-.3.5 0 0 0 .2.1.2.2 0 .4.1.7.1.8-.1 1.5-.3 2.3-.5.1 0 .2-.1.2-.2-.1-.1-.2-.1-.3-.2m34.8-36c-.1-.3-.2-.5-.4-.8-.1-.1-.2-.3-.3.1 0 .2-.1.5-.1.7-.1.4-.1.9-.1 1.3 0 .1.2.3.4.4.1-.1.2-.2.3-.3 0-.4.1-.9.2-1.4m-20.9 35.9c0-.3.1-.7.1-1 0-.1-.1-.1-.1-.2-.1.1-.2.1-.2.2v.9c-.1.1.1.1.2.1m21-31c0 .3.1.7.1 1 0 .1 0 .1.1.2.1-.1.2-.2.2-.2 0-.4-.1-.8-.2-1.1 0 0-.1-.1-.1-.1-.1 0-.1 0-.1.2z"/><path d="m46.3 68.1c0 .2.1.3.1.4s0 .2-.1.2-.2 0-.3 0c-.1-.1-.1-.2 0-.3.1-.2.2-.3.3-.3z"/><path d="m23.1 21.5c-.2 0-.3 0-.4 0 0-.1.1-.3.1-.4.1.1.1.2.2.2s.1.1.1.2z"/><path d="m60.9 18.2c.3-.6.3-.5.7-.1.3.5.5 1 .5 1.6 0 .7.1 1.3.1 2 0 .2 0 .4-.1.5-.1.2-.2.3-.3.5-.2-.1-.4-.2-.5-.4-.2-.4-.3-.8-.4-1.3-.1-.6-.2-1.1-.2-1.7 0-.4.1-.7.2-1.1z"/><path d="m58.1 21.6c0-.4-.1-.7-.1-1s.2-.5.4-.7c0 0 .1 0 .2.1.5.3.4.8.5 1.2.1.9.2 1.8.3 2.7v.2c-.1.4-.3.6-.6.3-.4-.3-.6-.7-.6-1.2 0-.4-.1-.9-.1-1.3-.1-.1 0-.2 0-.3z"/><path d="m147.5 59.4c-.7-.3-.7-1-.8-1.6-.1-.4-.2-.9-.2-1.3 0-.3.3-.5.5-.8.1 0 .1.1.2.1.6.4.7 1 .7 1.6v1.3c0 .2-.2.4-.4.7z"/><path d="m144.1 54.4c.1 0 .3.1.4.2.5.8.8 1.7.5 2.7-.1.4-.3.5-.6.1-.9-.9-.9-1.8-.3-3z"/><path d="m144.9 14.1c.3-.8.6-.8 1.1-.2.4.5.4 1.6-.2 2-.1 0-.2.1-.2 0-.2-.6-.5-1.1-.7-1.7-.1 0 0-.1 0-.1z"/></svg>