<svg enable-background="new 0 0 341.5 271.1" viewBox="0 0 341.5 271.1" xmlns="http://www.w3.org/2000/svg"><path d="m327.9 181.8h-6.9c-1.7 0-3.3.3-4.8.9 1.1-7.4 1.7-14.9 1.7-22.5 0-25.9-6.7-50.3-18.6-71.5 4.8-7.9 4.5-18.2-1.4-25.9-30.6-39.9-76.9-62.8-127.1-62.8s-96.6 22.9-127.2 62.8c-5.9 7.7-6.2 18-1.4 25.9-11.8 21.2-18.6 45.6-18.6 71.5 0 7.6.6 15.1 1.7 22.5-1.5-.6-3.1-.9-4.8-.9h-6.9c-7.5 0-13.6 6.1-13.6 13.6v40.3c0 7.5 6.1 13.6 13.6 13.6h6.9c2.1 0 4-.5 5.7-1.3v6c0 9.5 7.7 17.1 17.1 17.1h15.1c9.5 0 17.1-7.7 17.1-17.1v-76.8c0-9.5-7.7-17.1-17.1-17.1h-14.8c0-21.8 5.6-42.4 15.4-60.4 7.8 1 16-2.1 21.1-8.8 21.8-28.6 54.9-44.9 90.7-44.9s68.8 16.3 90.6 44.8c4.5 5.9 11.4 9 18.3 9 1 0 1.9-.1 2.9-.2 9.8 18 15.3 38.5 15.4 60.4h-15c-9.5 0-17.1 7.7-17.1 17.1v76.9c0 9.5 7.7 17.1 17.1 17.1h15.1c9.5 0 17.1-7.7 17.1-17.1v-6c1.7.8 3.7 1.3 5.7 1.3h6.9c7.5 0 13.6-6.1 13.6-13.6v-40.3c.1-7.5-5.9-13.6-13.5-13.6z"/></svg>