<?xml version="1.0" encoding="utf-8"?>
<!-- Generator: Adobe Illustrator 26.1.0, SVG Export Plug-In . SVG Version: 6.00 Build 0)  -->
<svg version="1.1" id="Layer_1" xmlns="http://www.w3.org/2000/svg" xmlns:xlink="http://www.w3.org/1999/xlink" x="0px" y="0px"
	 viewBox="0 0 341.5 271.1" style="enable-background:new 0 0 341.5 271.1;" xml:space="preserve">
<style type="text/css">
	.st0{fill:#000000;}
</style>
<path class="st0" d="M327.9,181.8H321c-1.7,0-3.3,0.3-4.8,0.9c1.1-7.4,1.7-14.9,1.7-22.5c0-25.9-6.7-50.3-18.6-71.5
	c4.8-7.9,4.5-18.2-1.4-25.9C267.3,22.9,221,0,170.8,0C120.6,0,74.2,22.9,43.6,62.8c-5.9,7.7-6.2,18-1.4,25.9
	c-11.8,21.2-18.6,45.6-18.6,71.5c0,7.6,0.6,15.1,1.7,22.5c-1.5-0.6-3.1-0.9-4.8-0.9h-6.9c-7.5,0-13.6,6.1-13.6,13.6v40.3
	c0,7.5,6.1,13.6,13.6,13.6h6.9c2.1,0,4-0.5,5.7-1.3v6c0,9.5,7.7,17.1,17.1,17.1h15.1c9.5,0,17.1-7.7,17.1-17.1v-76.8
	c0-9.5-7.7-17.1-17.1-17.1H43.6c0-21.8,5.6-42.4,15.4-60.4c7.8,1,16-2.1,21.1-8.8C101.9,62.3,135,46,170.8,46s68.8,16.3,90.6,44.8
	c4.5,5.9,11.4,9,18.3,9c1,0,1.9-0.1,2.9-0.2c9.8,18,15.3,38.5,15.4,60.4H283c-9.5,0-17.1,7.7-17.1,17.1V254
	c0,9.5,7.7,17.1,17.1,17.1h15.1c9.5,0,17.1-7.7,17.1-17.1v-6c1.7,0.8,3.7,1.3,5.7,1.3h6.9c7.5,0,13.6-6.1,13.6-13.6v-40.3
	C341.5,187.9,335.5,181.8,327.9,181.8z"/>
</svg>
