<svg enable-background="new 0 0 258 361.6" viewBox="0 0 258 361.6" xmlns="http://www.w3.org/2000/svg"><path d="m18.5 360c-9.4 0-17-7.6-17-17v-324.5c0-9.4 7.6-17 17-17h170.2l67.7 67.7v273.8c0 9.4-7.6 17-17 17z"/><path d="m188.1 3 66.8 66.8v273.2c0 8.5-7 15.5-15.5 15.5h-220.9c-8.5 0-15.5-7-15.5-15.5v-324.5c0-8.5 7-15.5 15.5-15.5zm1.2-3h-170.8c-10.2 0-18.5 8.3-18.5 18.5v324.5c0 10.2 8.3 18.5 18.5 18.5h220.9c10.2 0 18.5-8.3 18.5-18.5v-274.4z" fill="#af6ef9"/><path d="m206.4 68.4c-9.4 0-17-7.6-17-17v-44.8l61.6 61.8z" fill="#af6ef9"/><path d="m190.9 10.2 56.5 56.7h-41c-8.5 0-15.5-7-15.5-15.5zm-3-7.2v48.4c0 10.2 8.3 18.5 18.5 18.5h48.2z"/><path d="m62.8 147v89.6h146.4v-89.6" stroke="#af6ef9" stroke-linecap="round" stroke-linejoin="round" stroke-miterlimit="10" stroke-width="7"/><path d="m147 175.1v-28.2c0-2-1.7-3.7-3.7-3.7h-14c-2 0-3.7 1.7-3.7 3.7v28.3c0 2.2-1.9 4-4.2 3.7l-10-1.1c-3.1-.4-5.2 3-3.6 5.6l25.1 31.4c1.4 2.4 4.9 2.4 6.4 0l25.1-31.4c1.6-2.6-.5-6-3.6-5.6l-9.5 1.1c-2.4.2-4.3-1.6-4.3-3.8z" fill="#af6ef9"/></svg>