<?xml version="1.0" encoding="utf-8"?>
<!-- Generator: Adobe Illustrator 26.1.0, SVG Export Plug-In . SVG Version: 6.00 Build 0)  -->
<svg version="1.1" id="Layer_1" xmlns="http://www.w3.org/2000/svg" xmlns:xlink="http://www.w3.org/1999/xlink" x="0px" y="0px"
	 viewBox="0 0 258 361.6" style="enable-background:new 0 0 258 361.6;" xml:space="preserve">
<style type="text/css">
	.st0{fill:#AF6EF9;}
	.st1{fill:#000000;}
	.st2{fill:#000000;stroke:#AF6EF9;stroke-width:7;stroke-linecap:round;stroke-linejoin:round;stroke-miterlimit:10;}
</style>
<g>
	<path class="st1" d="M18.5,0C8.3,0,0,8.3,0,18.5v324.5c0,10.2,8.3,18.5,18.5,18.5h220.9c10.2,0,18.5-8.3,18.5-18.5V68.6L189.3,0
		H18.5z"/>
	<g>
		<path class="st0" d="M208.5,67.1c-9.7,0-17.6-7.9-17.6-17.6V3.6l63.5,63.5H208.5z"/>
		<path class="st1" d="M192.3,7.2l58.4,58.4h-42.3c-8.9,0-16.1-7.2-16.1-16.1V7.2 M189.3,0v49.5c0,10.6,8.6,19.1,19.1,19.1H258
			L189.3,0L189.3,0z"/>
	</g>
</g>
<polyline class="st2" points="62.8,147 62.8,236.6 209.2,236.6 209.2,147 "/>
<path class="st0" d="M147,175.1v-28.2c0-2-1.7-3.7-3.7-3.7h-14c-2,0-3.7,1.7-3.7,3.7v28.3c0,2.2-1.9,4-4.2,3.7l-10-1.1
	c-3.1-0.4-5.2,3-3.6,5.6l25.1,31.4c1.4,2.4,4.9,2.4,6.4,0l25.1-31.4c1.6-2.6-0.5-6-3.6-5.6l-9.5,1.1
	C148.9,179.1,147,177.3,147,175.1z"/>
</svg>
